<svg width="80" height="60" enable-background="new" viewBox="0 0 80 60" xmlns="http://www.w3.org/2000/svg" xmlns:xlink="http://www.w3.org/1999/xlink"><defs><linearGradient id="e" x1="86.641" x2="114.4" y1="15.9" y2="15.9" gradientTransform="translate(19.079 4.09) scale(.25765)" gradientUnits="userSpaceOnUse" xlink:href="#a"/><linearGradient id="b"><stop stop-color="#b3b3b3" offset="0"/><stop stop-color="#b3b3b3" stop-opacity="0" offset="1"/></linearGradient><linearGradient id="c" x1="31.324" x2="168.37" y1="100.92" y2="100.92" gradientTransform="matrix(.25765 0 0 .25473 -44.437 3.544)" gradientUnits="userSpaceOnUse" xlink:href="#a"/><linearGradient id="a"><stop stop-color="#f60" offset="0"/><stop stop-color="#f60" stop-opacity="0" offset="1"/></linearGradient><linearGradient id="g" x1="36.582" x2="62.343" y1="39.805" y2="39.805" gradientTransform="translate(18.988 3.686) scale(.25765)" gradientUnits="userSpaceOnUse" xlink:href="#a"/><linearGradient id="i" x1="157.46" x2="183.3" y1="142.38" y2="142.38" gradientTransform="translate(18.617 3.119) scale(.25765)" gradientUnits="userSpaceOnUse" xlink:href="#a"/><linearGradient id="k" x1="15.797" x2="41.48" y1="141.62" y2="141.62" gradientTransform="translate(19.488 3.394) scale(.25765)" gradientUnits="userSpaceOnUse" xlink:href="#a"/><linearGradient id="m" x1="112" x2="138.63" y1="182.51" y2="182.51" gradientTransform="translate(19.288 2.796) scale(.25765)" gradientUnits="userSpaceOnUse" xlink:href="#a"/><linearGradient id="o" x1="60.46" x2="86.991" y1="181.14" y2="181.14" gradientTransform="matrix(-.25723 .01476 .01476 .25723 76.109 2.39)" gradientUnits="userSpaceOnUse" xlink:href="#a"/><linearGradient id="f" x1="138.27" x2="163.9" y1="40.711" y2="40.711" gradientTransform="translate(19.388 4.49) scale(.25765)" gradientUnits="userSpaceOnUse" xlink:href="#a"/><linearGradient id="s" x1="5" x2="28.298" y1="89.611" y2="89.611" gradientTransform="translate(19.424 3.296) scale(.25765)" gradientUnits="userSpaceOnUse" xlink:href="#a"/><linearGradient id="u" x1="171.71" x2="195" y1="90.587" y2="90.587" gradientTransform="translate(19.387 3.69) scale(.25765)" gradientUnits="userSpaceOnUse" xlink:href="#a"/><linearGradient id="d" x1="19.49" x2="179.45" y1="153.72" y2="47.993" gradientTransform="matrix(.25765 0 0 .25473 -44.437 3.544)" gradientUnits="userSpaceOnUse" xlink:href="#a"/><linearGradient id="q" x1="138.27" x2="163.9" y1="40.711" y2="40.711" gradientTransform="translate(19.502 4.604) scale(.25765)" gradientUnits="userSpaceOnUse" xlink:href="#a"/><linearGradient id="v" x1="171.71" x2="195" y1="90.587" y2="90.587" gradientTransform="translate(19.387 3.69) scale(.25765)" gradientUnits="userSpaceOnUse" xlink:href="#a"/><linearGradient id="j" x1="157.46" x2="183.3" y1="142.38" y2="142.38" gradientTransform="translate(18.7 3.119) scale(.25765)" gradientUnits="userSpaceOnUse" xlink:href="#a"/><linearGradient id="n" x1="112" x2="138.63" y1="182.51" y2="182.51" gradientTransform="translate(19.288 2.796) scale(.25765)" gradientUnits="userSpaceOnUse" xlink:href="#a"/><linearGradient id="p" x1="60.46" x2="86.991" y1="181.14" y2="181.14" gradientTransform="matrix(-.25723 .01476 .01476 .25723 76.109 2.39)" gradientUnits="userSpaceOnUse" xlink:href="#a"/><linearGradient id="l" x1="15.797" x2="41.48" y1="141.62" y2="141.62" gradientTransform="translate(19.488 3.854) scale(.25765)" gradientUnits="userSpaceOnUse" xlink:href="#a"/><linearGradient id="t" x1="5" x2="28.298" y1="89.611" y2="89.611" gradientTransform="translate(19.424 3.296) scale(.25765)" gradientUnits="userSpaceOnUse" xlink:href="#a"/><linearGradient id="h" x1="36.582" x2="62.343" y1="39.805" y2="39.805" gradientTransform="translate(18.988 3.837) scale(.25765)" gradientUnits="userSpaceOnUse" xlink:href="#a"/><linearGradient id="r" x1="86.641" x2="114.4" y1="15.9" y2="15.9" gradientTransform="translate(19.216 4.099) scale(.25765)" gradientUnits="userSpaceOnUse" xlink:href="#a"/><linearGradient id="w" x1="33.224" x2="64.158" y1="40.922" y2="8.928" gradientUnits="userSpaceOnUse" xlink:href="#b"/><filter id="x" color-interpolation-filters="sRGB"><feColorMatrix result="fbSourceGraphic" values="0.973958 0 0 0.0977109 0.0130208 0 0.973958 0 0.0977109 0.0130208 0 0 0.973958 0.0977109 0.0130208 0 0 0 1 0"/><feColorMatrix in="fbSourceGraphic" result="fbSourceGraphicAlpha" values="0 0 0 -1 0 0 0 0 -1 0 0 0 0 -1 0 0 0 0 1 0"/><feColorMatrix in="fbSourceGraphic" values="0.927083 0 0 0.0300625 0.0364583 0 0.927083 0 0.0300625 0.0364583 0 0 0.927083 0.0300625 0.0364583 0 0 0 1 0"/></filter></defs><g stroke-width="1.211" fill-rule="evenodd"><path d="M-1.056 29.25c0 9.757-7.907 17.655-17.655 17.655-9.747 0-17.655-7.899-17.655-17.655 0-9.757 7.908-17.656 17.655-17.656 9.748 0 17.655 7.899 17.655 17.656z" fill="url(#c)" transform="matrix(.80684 -.16499 .16412 .81109 38.048 .88)"/><path d="M-1.056 29.25c0 9.757-7.907 17.655-17.655 17.655-9.747 0-17.656-7.899-17.656-17.655 0-9.757 7.908-17.656 17.656-17.656 9.748 0 17.655 7.899 17.655 17.656z" fill="url(#d)" transform="matrix(.80684 -.16499 .16412 .81109 38.048 .88)"/><path d="M48.367 10.902s-1.605-.117-2.505-.117H44.1c-.822 0-2.388.195-2.388.195-.274 0-.43-.156-.196-.626l2.506-4.386a1.14 1.14 0 01.665-.549c.235-.078.548-.039.783.079.235.078.392.313.509.509l2.545 4.308c.117.195-.157.94-.157.587z" fill="url(#e)" transform="matrix(.82336 0 0 .8277 -9.123 2.804)"/><path d="M60.342 18.273s-1.174-1.097-1.88-1.684l-1.33-1.175c-.626-.509-1.997-1.37-1.997-1.37-.195-.157-.195-.392.274-.588l4.698-1.762c.313-.118.587-.079.861 0 .235.117.431.313.548.548.118.235.118.509.079.783l-.744 4.935c-.04.235-.235.509-.509.313z" fill="url(#f)" transform="matrix(.82336 0 0 .8277 -9.123 2.804)"/><path d="M29.916 17.233s1.135-1.136 1.8-1.762l1.293-1.214c.587-.549 1.918-1.488 1.918-1.488.196-.157.196-.392-.274-.549l-4.776-1.566c-.313-.118-.587-.078-.861.039-.235.117-.43.313-.51.548a1.086 1.086 0 00-.038.784l.94 4.895c.038.235.234.509.508.313z" fill="url(#g)" transform="matrix(.82336 0 0 .8277 -9.123 3.55)"/><path d="M29.916 17.384s1.135-1.136 1.8-1.762l1.293-1.214c.587-.549 1.918-1.488 1.918-1.488.196-.157.196-.392-.274-.549l-4.776-1.566c-.313-.118-.587-.078-.861.039-.235.117-.43.313-.51.548a1.086 1.086 0 00-.038.784l.94 4.895c.038.235.234.509.508.313z" fill="url(#h)" transform="matrix(.82336 0 0 .8277 -9.123 3.424)"/><path d="M62.82 36.717s-.744 1.41-1.214 2.193l-.94 1.567c-.39.665-1.408 1.958-1.408 1.958-.157.196-.079.43.43.43l5.011.157c.313 0 .587-.117.822-.313.157-.157.313-.431.313-.666.04-.274-.039-.509-.156-.744l-2.31-4.425c-.117-.235-.352-.431-.548-.157z" fill="url(#i)" transform="matrix(.82336 0 0 .8277 -9.123 3.383)"/><path d="M62.904 36.717s-.744 1.41-1.214 2.193l-.94 1.567c-.39.665-1.408 1.958-1.408 1.958-.157.196-.079.43.43.43l5.011.157c.313 0 .587-.117.822-.313.157-.157.313-.431.313-.666.04-.274-.039-.509-.156-.744l-2.31-4.425c-.117-.235-.352-.431-.548-.157z" fill="url(#j)" transform="matrix(.82336 0 0 .8277 -9.123 3.383)"/><path d="M26.815 36.797s.665 1.449 1.096 2.271l.861 1.567c.392.705 1.331 1.997 1.331 1.997.157.235.079.47-.43.47l-5.011-.078a.985.985 0 01-.783-.353.897.897 0 01-.313-.665c-.04-.275.078-.549.196-.744l2.466-4.347c.117-.196.352-.392.587-.118z" fill="url(#k)" transform="matrix(.82336 0 0 .8277 -9.123 3.383)"/><path d="M26.815 37.256s.665 1.449 1.096 2.271l.861 1.567c.392.705 1.331 1.997 1.331 1.997.157.235.079.47-.43.47l-5.011-.078a.985.985 0 01-.783-.353.897.897 0 01-.313-.665c-.04-.275.078-.549.196-.744l2.466-4.347c.117-.196.352-.392.587-.118z" fill="url(#l)" transform="matrix(.82336 0 0 .8277 -9.146 3.003)"/><path d="M54.605 46.616s-1.448.666-2.27.979l-1.684.627c-.744.313-2.31.665-2.31.665-.234.079-.313.314.079.627l3.836 3.25c.274.196.548.274.822.274.235 0 .51-.156.705-.313.157-.196.274-.47.313-.705l.9-4.895c.04-.274-.039-.587-.391-.509z" fill="url(#m)" transform="matrix(.82336 0 0 .8277 -8.904 2.795)"/><path d="M54.605 46.616s-1.448.666-2.27.979l-1.684.627c-.744.313-2.31.665-2.31.665-.234.079-.313.314.079.627l3.836 3.25c.274.196.548.274.822.274.235 0 .51-.156.705-.313.157-.196.274-.47.313-.705l.9-4.895c.04-.274-.039-.587-.391-.509z" fill="url(#n)" transform="matrix(.82336 0 0 .8277 -8.904 2.795)"/><path d="M62.686 46.698s-1.408.748-2.25 1.11l-1.603.759c-.727.316-2.268.796-2.268.796-.269.094-.297.292.114.622l4.014 2.986c.285.18.563.242.837.226.271-.054.499-.185.683-.392.187-.167.249-.446.272-.722l.58-4.936c.023-.276-.07-.545-.379-.45z" fill="url(#o)" transform="matrix(-.82302 .02378 .02366 .82736 69.937 1.223)"/><path d="M62.686 46.698s-1.408.748-2.25 1.11l-1.603.759c-.727.316-2.268.796-2.268.796-.269.094-.297.292.114.622l4.014 2.986c.285.18.563.242.837.226.271-.054.499-.185.683-.392.186-.167.249-.446.272-.722l.58-4.936c.023-.276-.07-.545-.379-.45z" fill="url(#p)" transform="matrix(-.82302 .02378 .02366 .82736 69.937 1.223)"/><path d="M60.456 18.386s-1.174-1.097-1.88-1.684l-1.33-1.175c-.626-.509-1.997-1.37-1.997-1.37-.195-.157-.195-.392.274-.588l4.698-1.762c.313-.118.587-.079.861 0 .235.117.431.313.548.548.118.235.118.509.079.783l-.744 4.935c-.04.235-.235.509-.509.313z" fill="url(#q)" transform="matrix(.82336 0 0 .8277 -9.123 2.804)"/><path d="M48.504 10.911s-1.605-.117-2.505-.117h-1.762c-.822 0-2.388.195-2.388.195-.274 0-.43-.156-.196-.626l2.506-4.386a1.14 1.14 0 01.665-.549c.235-.078.548-.039.783.079.235.078.392.313.509.509l2.545 4.308c.117.195-.157.94-.157.587z" fill="url(#r)" transform="matrix(.82336 0 0 .8277 -9.123 2.804)"/><path d="M26.712 23.109s-.391 1.567-.548 2.467l-.352 1.762c-.157.784-.274 2.39-.274 2.39 0 .274-.235.391-.627.078l-3.797-3.33a1.256 1.256 0 01-.392-.782c-.039-.235.04-.51.196-.744.157-.196.392-.314.627-.431l4.658-1.684c.235-.118.548-.079.509.274z" fill="url(#s)" transform="matrix(.82336 0 0 .8277 -9.093 3.324)"/><path d="M26.712 23.109s-.391 1.567-.548 2.467l-.352 1.762c-.157.784-.274 2.39-.274 2.39 0 .274-.235.391-.627.078l-3.797-3.329a1.256 1.256 0 01-.392-.783c-.039-.235.04-.51.196-.744.157-.196.392-.314.627-.431l4.658-1.684c.235-.118.548-.078.509.274z" fill="url(#t)" transform="matrix(.82336 0 0 .8277 -9.093 3.324)"/><path d="M63.63 23.738s.391 1.567.548 2.467l.352 1.762c.157.784.235 2.428.235 2.428.04.275.235.353.627.04l3.797-3.29c.274-.196.391-.47.43-.744a.982.982 0 00-.195-.744c-.157-.235-.392-.353-.627-.47l-4.619-1.723c-.235-.078-.548-.078-.548.274z" fill="url(#u)" transform="matrix(.82336 0 0 .8277 -9.37 3.008)"/><path d="M63.63 23.738s.391 1.567.548 2.467l.352 1.762c.157.784.235 2.428.235 2.428.04.275.235.353.627.04l3.797-3.29c.274-.196.391-.47.43-.744a.982.982 0 00-.195-.744c-.157-.235-.392-.353-.627-.47l-4.619-1.723c-.235-.078-.548-.078-.548.274z" fill="url(#v)" transform="matrix(.82336 0 0 .8277 -9.37 3.008)"/></g><path transform="matrix(.47158 0 0 .56555 38.819 23.193)" d="M48.579 11.568c-2.966-.038-6.537.92-8.953 2.855-1.59 1.273-3.007 2.763-3.414 5.348-3.33-.657-7.517.183-9.7 2.315-2.05 2.004-2.07 5.165-1.136 7.844-3.185.452-5.595.632-7.596 3.521-2.655 3.832-2.252 8.628.62 11.787 2.347 2.582 6.017 3.22 9.016 3.158l35.451-.022c3.723-.002 7.992-2.437 9.834-5.875 1.938-3.617 2.021-8.795-.376-12.423-1.694-2.563-4.69-4.453-8.758-4.88.544-3.986-1.963-7.51-5.044-10.1-2.537-2.13-6.536-3.485-9.944-3.528z" color="#000" enable-background="accumulate" fill="url(#w)" filter="url(#x)" stroke="url(#M)" stroke-linejoin="round" stroke-width=".387" style="font-feature-settings:normal;font-variant-alternates:normal;font-variant-caps:normal;font-variant-ligatures:normal;font-variant-numeric:normal;font-variant-position:normal;isolation:auto;mix-blend-mode:normal;shape-padding:0;text-decoration-color:#000;text-decoration-line:none;text-decoration-style:solid;text-indent:0;text-orientation:mixed;text-transform:none;white-space:normal"/></svg>