<svg width="80" height="60" enable-background="new" viewBox="0 0 80 60" xmlns="http://www.w3.org/2000/svg" xmlns:xlink="http://www.w3.org/1999/xlink"><defs><linearGradient id="f" x1="19.49" x2="179.45" y1="153.72" y2="47.993" gradientTransform="matrix(.25765 0 0 .25473 -44.437 3.544)" gradientUnits="userSpaceOnUse" xlink:href="#a"/><linearGradient id="b"><stop stop-color="#00f" offset="0"/><stop stop-color="#0ff" offset="1"/></linearGradient><linearGradient id="d"><stop stop-color="#08a" offset="0"/><stop stop-color="#08a" stop-opacity="0" offset="1"/></linearGradient><linearGradient id="c"><stop stop-color="#0015b6" offset="0"/><stop stop-color="#00ffdf" offset="1"/></linearGradient><linearGradient id="e" x1="31.324" x2="168.37" y1="100.92" y2="100.92" gradientTransform="matrix(.25765 0 0 .25473 -44.437 3.544)" gradientUnits="userSpaceOnUse" xlink:href="#a"/><linearGradient id="a"><stop stop-color="#f60" offset="0"/><stop stop-color="#f60" stop-opacity="0" offset="1"/></linearGradient><linearGradient id="i" x1="36.582" x2="62.343" y1="39.805" y2="39.805" gradientTransform="translate(18.988 3.686) scale(.25765)" gradientUnits="userSpaceOnUse" xlink:href="#a"/><linearGradient id="k" x1="157.46" x2="183.3" y1="142.38" y2="142.38" gradientTransform="translate(18.617 3.119) scale(.25765)" gradientUnits="userSpaceOnUse" xlink:href="#a"/><linearGradient id="m" x1="15.797" x2="41.48" y1="141.62" y2="141.62" gradientTransform="translate(19.488 3.394) scale(.25765)" gradientUnits="userSpaceOnUse" xlink:href="#a"/><linearGradient id="o" x1="112" x2="138.63" y1="182.51" y2="182.51" gradientTransform="translate(19.288 2.796) scale(.25765)" gradientUnits="userSpaceOnUse" xlink:href="#a"/><linearGradient id="q" x1="60.46" x2="86.991" y1="181.14" y2="181.14" gradientTransform="matrix(-.25723 .01476 .01476 .25723 76.109 2.39)" gradientUnits="userSpaceOnUse" xlink:href="#a"/><linearGradient id="h" x1="138.27" x2="163.9" y1="40.711" y2="40.711" gradientTransform="translate(19.388 4.49) scale(.25765)" gradientUnits="userSpaceOnUse" xlink:href="#a"/><linearGradient id="g" x1="86.641" x2="114.4" y1="15.9" y2="15.9" gradientTransform="translate(19.079 4.09) scale(.25765)" gradientUnits="userSpaceOnUse" xlink:href="#a"/><linearGradient id="u" x1="5" x2="28.298" y1="89.611" y2="89.611" gradientTransform="translate(19.424 3.296) scale(.25765)" gradientUnits="userSpaceOnUse" xlink:href="#a"/><linearGradient id="w" x1="171.71" x2="195" y1="90.587" y2="90.587" gradientTransform="translate(19.387 3.69) scale(.25765)" gradientUnits="userSpaceOnUse" xlink:href="#a"/><linearGradient id="G" x1="28.403" x2="32.166" y1="7.993" y2="9.319" gradientTransform="translate(-.99 .228)" gradientUnits="userSpaceOnUse" xlink:href="#b"/><linearGradient id="s" x1="138.27" x2="163.9" y1="40.711" y2="40.711" gradientTransform="translate(19.502 4.604) scale(.25765)" gradientUnits="userSpaceOnUse" xlink:href="#a"/><linearGradient id="x" x1="171.71" x2="195" y1="90.587" y2="90.587" gradientTransform="translate(19.387 3.69) scale(.25765)" gradientUnits="userSpaceOnUse" xlink:href="#a"/><linearGradient id="l" x1="157.46" x2="183.3" y1="142.38" y2="142.38" gradientTransform="translate(18.7 3.119) scale(.25765)" gradientUnits="userSpaceOnUse" xlink:href="#a"/><linearGradient id="p" x1="112" x2="138.63" y1="182.51" y2="182.51" gradientTransform="translate(19.288 2.796) scale(.25765)" gradientUnits="userSpaceOnUse" xlink:href="#a"/><linearGradient id="r" x1="60.46" x2="86.991" y1="181.14" y2="181.14" gradientTransform="matrix(-.25723 .01476 .01476 .25723 76.109 2.39)" gradientUnits="userSpaceOnUse" xlink:href="#a"/><linearGradient id="n" x1="15.797" x2="41.48" y1="141.62" y2="141.62" gradientTransform="translate(19.488 3.854) scale(.25765)" gradientUnits="userSpaceOnUse" xlink:href="#a"/><linearGradient id="v" x1="5" x2="28.298" y1="89.611" y2="89.611" gradientTransform="translate(19.424 3.296) scale(.25765)" gradientUnits="userSpaceOnUse" xlink:href="#a"/><linearGradient id="j" x1="36.582" x2="62.343" y1="39.805" y2="39.805" gradientTransform="translate(18.988 3.837) scale(.25765)" gradientUnits="userSpaceOnUse" xlink:href="#a"/><linearGradient id="t" x1="86.641" x2="114.4" y1="15.9" y2="15.9" gradientTransform="translate(19.216 4.099) scale(.25765)" gradientUnits="userSpaceOnUse" xlink:href="#a"/><linearGradient id="E" x1="28.403" x2="32.166" y1="7.993" y2="9.319" gradientTransform="translate(65.948 -11.969)" gradientUnits="userSpaceOnUse" xlink:href="#b"/><linearGradient id="C" x1="28.403" x2="32.166" y1="7.993" y2="9.319" gradientTransform="translate(52.965 -13.869)" gradientUnits="userSpaceOnUse" xlink:href="#b"/><linearGradient id="A" x1="28.403" x2="32.166" y1="7.993" y2="9.319" gradientTransform="translate(59.456 -13.869)" gradientUnits="userSpaceOnUse" xlink:href="#b"/><linearGradient id="y" x1="22.107" x2="58.052" y1="30.016" y2="14.106" gradientUnits="userSpaceOnUse" xlink:href="#c"/><linearGradient id="z" x1="22.607" x2="67.214" y1="17.34" y2="17.34" gradientUnits="userSpaceOnUse" xlink:href="#d"/><filter id="F" color-interpolation-filters="sRGB"><feComponentTransfer result="component"><feFuncR amplitude="2" exponent="2" offset="-.7" type="gamma"/><feFuncG amplitude="2" exponent="2" offset="-.7" type="gamma"/><feFuncB amplitude="2" exponent="2" offset="-.7" type="gamma"/></feComponentTransfer></filter><filter id="B" color-interpolation-filters="sRGB"><feComponentTransfer result="component"><feFuncR amplitude="2" exponent="2" offset="-.7" type="gamma"/><feFuncG amplitude="2" exponent="2" offset="-.7" type="gamma"/><feFuncB amplitude="2" exponent="2" offset="-.7" type="gamma"/></feComponentTransfer></filter><filter id="D" color-interpolation-filters="sRGB"><feComponentTransfer result="component"><feFuncR amplitude="2" exponent="2" offset="-.7" type="gamma"/><feFuncG amplitude="2" exponent="2" offset="-.7" type="gamma"/><feFuncB amplitude="2" exponent="2" offset="-.7" type="gamma"/></feComponentTransfer></filter><filter id="H" color-interpolation-filters="sRGB"><feComponentTransfer result="component"><feFuncR amplitude="2" exponent="2" offset="-.7" type="gamma"/><feFuncG amplitude="2" exponent="2" offset="-.7" type="gamma"/><feFuncB amplitude="2" exponent="2" offset="-.7" type="gamma"/></feComponentTransfer></filter></defs><g stroke-width="1.211" fill-rule="evenodd"><path d="M-1.056 29.25c0 9.757-7.907 17.655-17.655 17.655-9.747 0-17.655-7.899-17.655-17.655 0-9.757 7.908-17.656 17.655-17.656 9.748 0 17.655 7.899 17.655 17.656z" fill="url(#e)" transform="matrix(.80684 -.16499 .16412 .81109 38.048 .88)"/><path d="M-1.056 29.25c0 9.757-7.907 17.655-17.655 17.655-9.747 0-17.656-7.899-17.656-17.655 0-9.757 7.908-17.656 17.656-17.656 9.748 0 17.655 7.899 17.655 17.656z" fill="url(#f)" transform="matrix(.80684 -.16499 .16412 .81109 38.048 .88)"/><path d="M48.367 10.902s-1.605-.117-2.505-.117H44.1c-.822 0-2.388.195-2.388.195-.274 0-.43-.156-.196-.626l2.506-4.386a1.14 1.14 0 01.665-.549c.235-.078.548-.039.783.079.235.078.392.313.509.509l2.545 4.308c.117.195-.157.94-.157.587z" fill="url(#g)" transform="matrix(.82336 0 0 .8277 -9.123 2.804)"/><path d="M60.342 18.273s-1.174-1.097-1.88-1.684l-1.33-1.175c-.626-.509-1.997-1.37-1.997-1.37-.195-.157-.195-.392.274-.588l4.698-1.762c.313-.118.587-.079.861 0 .235.117.431.313.548.548.118.235.118.509.079.783l-.744 4.935c-.04.235-.235.509-.509.313z" fill="url(#h)" transform="matrix(.82336 0 0 .8277 -9.123 2.804)"/><path d="M29.916 17.233s1.135-1.136 1.8-1.762l1.293-1.214c.587-.549 1.918-1.488 1.918-1.488.196-.157.196-.392-.274-.549l-4.776-1.566c-.313-.118-.587-.078-.861.039-.235.117-.43.313-.51.548a1.086 1.086 0 00-.038.784l.94 4.895c.038.235.234.509.508.313z" fill="url(#i)" transform="matrix(.82336 0 0 .8277 -9.123 3.55)"/><path d="M29.916 17.384s1.135-1.136 1.8-1.762l1.293-1.214c.587-.549 1.918-1.488 1.918-1.488.196-.157.196-.392-.274-.549l-4.776-1.566c-.313-.118-.587-.078-.861.039-.235.117-.43.313-.51.548a1.086 1.086 0 00-.038.784l.94 4.895c.038.235.234.509.508.313z" fill="url(#j)" transform="matrix(.82336 0 0 .8277 -9.123 3.424)"/><path d="M62.82 36.717s-.744 1.41-1.214 2.193l-.94 1.567c-.39.665-1.408 1.958-1.408 1.958-.157.196-.079.43.43.43l5.011.157c.313 0 .587-.117.822-.313.157-.157.313-.431.313-.666.04-.274-.039-.509-.156-.744l-2.31-4.425c-.117-.235-.352-.431-.548-.157z" fill="url(#k)" transform="matrix(.82336 0 0 .8277 -9.123 3.383)"/><path d="M62.904 36.717s-.744 1.41-1.214 2.193l-.94 1.567c-.39.665-1.408 1.958-1.408 1.958-.157.196-.079.43.43.43l5.011.157c.313 0 .587-.117.822-.313.157-.157.313-.431.313-.666.04-.274-.039-.509-.156-.744l-2.31-4.425c-.117-.235-.352-.431-.548-.157z" fill="url(#l)" transform="matrix(.82336 0 0 .8277 -9.123 3.383)"/><path d="M26.815 36.797s.665 1.449 1.096 2.271l.861 1.567c.392.705 1.331 1.997 1.331 1.997.157.235.079.47-.43.47l-5.011-.078a.985.985 0 01-.783-.353.897.897 0 01-.313-.665c-.04-.275.078-.549.196-.744l2.466-4.347c.117-.196.352-.392.587-.118z" fill="url(#m)" transform="matrix(.82336 0 0 .8277 -9.123 3.383)"/><path d="M26.815 37.256s.665 1.449 1.096 2.271l.861 1.567c.392.705 1.331 1.997 1.331 1.997.157.235.079.47-.43.47l-5.011-.078a.985.985 0 01-.783-.353.897.897 0 01-.313-.665c-.04-.275.078-.549.196-.744l2.466-4.347c.117-.196.352-.392.587-.118z" fill="url(#n)" transform="matrix(.82336 0 0 .8277 -9.146 3.003)"/><path d="M54.605 46.616s-1.448.666-2.27.979l-1.684.627c-.744.313-2.31.665-2.31.665-.234.079-.313.314.079.627l3.836 3.25c.274.196.548.274.822.274.235 0 .51-.156.705-.313.157-.196.274-.47.313-.705l.9-4.895c.04-.274-.039-.587-.391-.509z" fill="url(#o)" transform="matrix(.82336 0 0 .8277 -8.904 2.795)"/><path d="M54.605 46.616s-1.448.666-2.27.979l-1.684.627c-.744.313-2.31.665-2.31.665-.234.079-.313.314.079.627l3.836 3.25c.274.196.548.274.822.274.235 0 .51-.156.705-.313.157-.196.274-.47.313-.705l.9-4.895c.04-.274-.039-.587-.391-.509z" fill="url(#p)" transform="matrix(.82336 0 0 .8277 -8.904 2.795)"/><path d="M62.686 46.698s-1.408.748-2.25 1.11l-1.603.759c-.727.316-2.268.796-2.268.796-.269.094-.297.292.114.622l4.014 2.986c.285.18.563.242.837.226.271-.054.499-.185.683-.392.187-.167.249-.446.272-.722l.58-4.936c.023-.276-.07-.545-.379-.45z" fill="url(#q)" transform="matrix(-.82302 .02378 .02366 .82736 69.937 1.223)"/><path d="M62.686 46.698s-1.408.748-2.25 1.11l-1.603.759c-.727.316-2.268.796-2.268.796-.269.094-.297.292.114.622l4.014 2.986c.285.18.563.242.837.226.271-.054.499-.185.683-.392.186-.167.249-.446.272-.722l.58-4.936c.023-.276-.07-.545-.379-.45z" fill="url(#r)" transform="matrix(-.82302 .02378 .02366 .82736 69.937 1.223)"/><path d="M60.456 18.386s-1.174-1.097-1.88-1.684l-1.33-1.175c-.626-.509-1.997-1.37-1.997-1.37-.195-.157-.195-.392.274-.588l4.698-1.762c.313-.118.587-.079.861 0 .235.117.431.313.548.548.118.235.118.509.079.783l-.744 4.935c-.04.235-.235.509-.509.313z" fill="url(#s)" transform="matrix(.82336 0 0 .8277 -9.123 2.804)"/><path d="M48.504 10.911s-1.605-.117-2.505-.117h-1.762c-.822 0-2.388.195-2.388.195-.274 0-.43-.156-.196-.626l2.506-4.386a1.14 1.14 0 01.665-.549c.235-.078.548-.039.783.079.235.078.392.313.509.509l2.545 4.308c.117.195-.157.94-.157.587z" fill="url(#t)" transform="matrix(.82336 0 0 .8277 -9.123 2.804)"/><path d="M26.712 23.109s-.391 1.567-.548 2.467l-.352 1.762c-.157.784-.274 2.39-.274 2.39 0 .274-.235.391-.627.078l-3.797-3.33a1.256 1.256 0 01-.392-.782c-.039-.235.04-.51.196-.744.157-.196.392-.314.627-.431l4.658-1.684c.235-.118.548-.079.509.274z" fill="url(#u)" transform="matrix(.82336 0 0 .8277 -9.093 3.324)"/><path d="M26.712 23.109s-.391 1.567-.548 2.467l-.352 1.762c-.157.784-.274 2.39-.274 2.39 0 .274-.235.391-.627.078l-3.797-3.329a1.256 1.256 0 01-.392-.783c-.039-.235.04-.51.196-.744.157-.196.392-.314.627-.431l4.658-1.684c.235-.118.548-.078.509.274z" fill="url(#v)" transform="matrix(.82336 0 0 .8277 -9.093 3.324)"/><path d="M63.63 23.738s.391 1.567.548 2.467l.352 1.762c.157.784.235 2.428.235 2.428.04.275.235.353.627.04l3.797-3.29c.274-.196.391-.47.43-.744a.982.982 0 00-.195-.744c-.157-.235-.392-.353-.627-.47l-4.619-1.723c-.235-.078-.548-.078-.548.274z" fill="url(#w)" transform="matrix(.82336 0 0 .8277 -9.37 3.008)"/><path d="M63.63 23.738s.391 1.567.548 2.467l.352 1.762c.157.784.235 2.428.235 2.428.04.275.235.353.627.04l3.797-3.29c.274-.196.391-.47.43-.744a.982.982 0 00-.195-.744c-.157-.235-.392-.353-.627-.47l-4.619-1.723c-.235-.078-.548-.078-.548.274z" fill="url(#x)" transform="matrix(.82336 0 0 .8277 -9.37 3.008)"/></g><g stroke-width="1.729" fill-rule="evenodd"><g fill="url(#y)" transform="matrix(.60346 0 0 .55422 32.975 25.738)"><path d="M38.542 26.165c-1.699-.05-3.426.37-4.995 1.024-.508.211-1.374.914-1.374.914l-.968-.835c-2.615-1.787-3.767-1.847-7.62-1.194-.836.296-.977.423-.942-.36.08-1.787 2.178-6.472 4.41-8.897 4.06-4.411 8.54-6.81 14.756-7.601.894-.114 1.713-.266 1.785-.34.073-.073.14-.498.216-.969.266-1.02.678-1.265 1.154-1.306.36.021.565.214.694.419.31.532.317 1.32.494 1.839.073.073.868.231 1.761.345 6.216.792 10.848 3.213 14.908 7.625 2.225 2.417 4.453 6.89 4.453 8.945 0 .512-.017.517-1.097.184-2.745-.846-6.567-.209-8.195 1.334l-.84.81s-.72-.697-1.157-.914c-1.212-.6-2.653-.933-3.912-.989-2.417-.106-4.626.66-7.085 1.69-3.122-1.21-4.223-1.658-6.446-1.724z"/><path d="M45.802 27.58l-.814.308-.787-.283v16.36m-.045 0h1.747m-1.89.014v3.582c.026 1.141-1.12 1.779-2.105 1.767-1.042-.012-1.759-.907-1.92-1.875-.08-.49.051-1.06-.465-1.465-.402-.26-1.173-.092-1.318.314-.157.408-.135.848-.088 1.264.219 1.017.488 1.993 1.53 2.867.938.786 2.356.87 3.516.602.77-.18 1.513-.712 1.984-1.401.587-.858.861-1.628.831-3.083v-2.572" fill="#666" opacity=".97"/><path d="M53.7 45.426c0-4.864.006-6.86.012-4.437.007 2.423.007 6.403 0 8.843-.006 2.44-.012.458-.012-4.406z" opacity=".83" paint-order="markers stroke fill"/></g><path d="M59.85 41.095l.273.1.268-.1.288-.07c.1 3.195.011 5.651 0 9.088H59.6v-9.097z" fill="#666" opacity=".97" paint-order="markers fill stroke"/><path d="M38.418 26.216c-1.676-.056-3.374.476-4.93 1.103-.503.203-1.308.768-1.308.768l-.373-.219c-2.325-1.925-3.7-2.674-8.332-1.73-.836.297-.868.188-.868-.328 0-2.076 2.22-6.564 4.452-9 4.06-4.432 8.763-6.854 14.978-7.65.894-.114 1.47-.242 1.542-.316.073-.074.195-.524.27-.997.135-.837.594-1.255 1.108-1.255s.866.418 1 1.255c.1.571.167.923.24.997.072.074.614.202 1.507.316 6.216.796 10.997 3.218 15.057 7.65 2.225 2.429 4.453 6.923 4.453 8.987 0 .515-.017.52-1.097.185-2.745-.85-6.666-.109-8.294 1.441l-.641.664s-.964-.811-1.473-1.015c-1.34-.535-2.819-.924-4.259-.856-2.24.105-2.721.117-6.463 1.673-3.343-1.571-4.31-1.598-6.57-1.673z" fill="url(#z)" transform="matrix(.60346 0 0 .55422 32.975 25.738)"/></g><g stroke-width="1.59"><path d="M92.036-6.65l-.648.404c-.357.221-.885.734-1.172 1.138-.403.568-.46.843-.252 1.205.148.259.44.494.646.524.726.105 1.123-.486 1.276-1.889z" enable-background="new" fill="url(#A)" filter="url(#B)" transform="matrix(.62754 0 0 .63018 5.062 30.128)"/><path d="M85.545-6.65l-.648.404c-.357.221-.885.734-1.172 1.138-.403.568-.46.843-.252 1.205.148.259.44.494.646.524.726.105 1.123-.486 1.276-1.889z" enable-background="new" fill="url(#C)" filter="url(#D)" transform="matrix(.62754 0 0 .63018 5.062 30.128)"/><path d="M98.527-4.751l-.648.404c-.357.222-.885.735-1.172 1.139-.403.567-.46.842-.252 1.205.148.259.44.494.646.524.726.105 1.123-.486 1.276-1.89z" enable-background="new" fill="url(#E)" filter="url(#F)" transform="matrix(.62754 0 0 .63018 5.062 30.128)"/><path d="M31.589 7.447l-.648.404c-.357.222-.885.734-1.172 1.139-.403.567-.46.842-.252 1.205.148.258.44.493.646.523.726.105 1.123-.486 1.276-1.889z" enable-background="new" fill="url(#G)" filter="url(#H)" transform="matrix(.62754 0 0 .63018 34.848 22.441)"/></g></svg>