<svg width="80" height="60" enable-background="new" viewBox="0 0 80 60" xmlns="http://www.w3.org/2000/svg" xmlns:xlink="http://www.w3.org/1999/xlink"><defs><linearGradient id="d"><stop stop-color="#e6e6e6" offset="0"/><stop stop-color="#939393" offset="1"/></linearGradient><linearGradient id="l" x1="157.46" x2="183.3" y1="142.38" y2="142.38" gradientTransform="translate(18.7 3.119) scale(.25765)" gradientUnits="userSpaceOnUse" xlink:href="#a"/><linearGradient id="e" x1="31.324" x2="168.37" y1="100.92" y2="100.92" gradientTransform="matrix(.25765 0 0 .25473 -44.437 3.544)" gradientUnits="userSpaceOnUse" xlink:href="#a"/><linearGradient id="a"><stop stop-color="#f60" offset="0"/><stop stop-color="#f60" stop-opacity="0" offset="1"/></linearGradient><linearGradient id="i" x1="36.582" x2="62.343" y1="39.805" y2="39.805" gradientTransform="translate(18.988 3.686) scale(.25765)" gradientUnits="userSpaceOnUse" xlink:href="#a"/><linearGradient id="k" x1="157.46" x2="183.3" y1="142.38" y2="142.38" gradientTransform="translate(18.617 3.119) scale(.25765)" gradientUnits="userSpaceOnUse" xlink:href="#a"/><linearGradient id="m" x1="15.797" x2="41.48" y1="141.62" y2="141.62" gradientTransform="translate(19.488 3.394) scale(.25765)" gradientUnits="userSpaceOnUse" xlink:href="#a"/><linearGradient id="o" x1="112" x2="138.63" y1="182.51" y2="182.51" gradientTransform="translate(19.288 2.796) scale(.25765)" gradientUnits="userSpaceOnUse" xlink:href="#a"/><linearGradient id="q" x1="60.46" x2="86.991" y1="181.14" y2="181.14" gradientTransform="matrix(-.25723 .01476 .01476 .25723 76.109 2.39)" gradientUnits="userSpaceOnUse" xlink:href="#a"/><linearGradient id="h" x1="138.27" x2="163.9" y1="40.711" y2="40.711" gradientTransform="translate(19.388 4.49) scale(.25765)" gradientUnits="userSpaceOnUse" xlink:href="#a"/><linearGradient id="g" x1="86.641" x2="114.4" y1="15.9" y2="15.9" gradientTransform="translate(19.079 4.09) scale(.25765)" gradientUnits="userSpaceOnUse" xlink:href="#a"/><linearGradient id="u" x1="5" x2="28.298" y1="89.611" y2="89.611" gradientTransform="translate(19.424 3.296) scale(.25765)" gradientUnits="userSpaceOnUse" xlink:href="#a"/><linearGradient id="w" x1="171.71" x2="195" y1="90.587" y2="90.587" gradientTransform="translate(19.387 3.69) scale(.25765)" gradientUnits="userSpaceOnUse" xlink:href="#a"/><linearGradient id="F" x1="16.95" x2="36.026" y1="6.005" y2="6.005" gradientUnits="userSpaceOnUse" xlink:href="#b"/><linearGradient id="s" x1="138.27" x2="163.9" y1="40.711" y2="40.711" gradientTransform="translate(19.502 4.604) scale(.25765)" gradientUnits="userSpaceOnUse" xlink:href="#a"/><linearGradient id="x" x1="171.71" x2="195" y1="90.587" y2="90.587" gradientTransform="translate(19.387 3.69) scale(.25765)" gradientUnits="userSpaceOnUse" xlink:href="#a"/><linearGradient id="f" x1="19.49" x2="179.45" y1="153.72" y2="47.993" gradientTransform="matrix(.25765 0 0 .25473 -44.437 3.544)" gradientUnits="userSpaceOnUse" xlink:href="#a"/><linearGradient id="p" x1="112" x2="138.63" y1="182.51" y2="182.51" gradientTransform="translate(19.288 2.796) scale(.25765)" gradientUnits="userSpaceOnUse" xlink:href="#a"/><linearGradient id="r" x1="60.46" x2="86.991" y1="181.14" y2="181.14" gradientTransform="matrix(-.25723 .01476 .01476 .25723 76.109 2.39)" gradientUnits="userSpaceOnUse" xlink:href="#a"/><linearGradient id="n" x1="15.797" x2="41.48" y1="141.62" y2="141.62" gradientTransform="translate(19.488 3.854) scale(.25765)" gradientUnits="userSpaceOnUse" xlink:href="#a"/><linearGradient id="v" x1="5" x2="28.298" y1="89.611" y2="89.611" gradientTransform="translate(19.424 3.296) scale(.25765)" gradientUnits="userSpaceOnUse" xlink:href="#a"/><linearGradient id="j" x1="36.582" x2="62.343" y1="39.805" y2="39.805" gradientTransform="translate(18.988 3.837) scale(.25765)" gradientUnits="userSpaceOnUse" xlink:href="#a"/><linearGradient id="t" x1="86.641" x2="114.4" y1="15.9" y2="15.9" gradientTransform="translate(19.216 4.099) scale(.25765)" gradientUnits="userSpaceOnUse" xlink:href="#a"/><linearGradient id="D" x1="51.162" x2="73.325" y1="32.759" y2="32.759" gradientTransform="matrix(.99527 0 0 .94146 -32.407 -24.589)" gradientUnits="userSpaceOnUse" xlink:href="#c"/><linearGradient id="c"><stop stop-color="#fff" offset="0"/><stop stop-color="#898789" offset="1"/></linearGradient><linearGradient id="C" x1="8.974" x2="37.147" y1="33.139" y2="33.139" gradientUnits="userSpaceOnUse" xlink:href="#d"/><linearGradient id="b"><stop stop-color="#f9f9f9" offset="0"/><stop stop-color="#a1a1a2" offset="1"/></linearGradient><linearGradient id="A" x1="17.903" x2="37.862" y1="26.492" y2="29.941" gradientUnits="userSpaceOnUse" xlink:href="#b"/><linearGradient id="y" x1="25.139" x2="44.405" y1="30.894" y2="32.872" gradientUnits="userSpaceOnUse" xlink:href="#d"/><filter id="z" x="-.014" y="-.01" width="1.028" height="1.021" color-interpolation-filters="sRGB"><feGaussianBlur stdDeviation=".161"/></filter><filter id="B" x="-.014" y="-.01" width="1.028" height="1.021" color-interpolation-filters="sRGB"><feGaussianBlur stdDeviation=".161"/></filter><filter id="E" x="-.016" y="-.05" width="1.032" height="1.099" color-interpolation-filters="sRGB"><feGaussianBlur stdDeviation=".142"/></filter></defs><g stroke-width="1.211" fill-rule="evenodd"><path d="M-1.056 29.25c0 9.757-7.907 17.655-17.655 17.655-9.747 0-17.655-7.899-17.655-17.655 0-9.757 7.908-17.656 17.655-17.656 9.748 0 17.655 7.899 17.655 17.656z" fill="url(#e)" transform="matrix(.80684 -.16499 .16412 .81109 38.06 .86)"/><path d="M-1.056 29.25c0 9.757-7.907 17.655-17.655 17.655-9.747 0-17.656-7.899-17.656-17.655 0-9.757 7.908-17.656 17.656-17.656 9.748 0 17.655 7.899 17.655 17.656z" fill="url(#f)" transform="matrix(.80684 -.16499 .16412 .81109 38.06 .86)"/><path d="M48.367 10.902s-1.605-.117-2.505-.117H44.1c-.822 0-2.388.195-2.388.195-.274 0-.43-.156-.196-.626l2.506-4.386a1.14 1.14 0 01.665-.549c.235-.078.548-.039.783.079.235.078.392.313.509.509l2.545 4.308c.117.195-.157.94-.157.587z" fill="url(#g)" transform="matrix(.82336 0 0 .8277 -9.111 2.784)"/><path d="M60.342 18.273s-1.174-1.097-1.88-1.684l-1.33-1.175c-.626-.509-1.997-1.37-1.997-1.37-.195-.157-.195-.392.274-.588l4.698-1.762c.313-.118.587-.079.861 0 .235.117.431.313.548.548.118.235.118.509.079.783l-.744 4.935c-.04.235-.235.509-.509.313z" fill="url(#h)" transform="matrix(.82336 0 0 .8277 -9.111 2.784)"/><path d="M29.916 17.233s1.135-1.136 1.8-1.762l1.293-1.214c.587-.549 1.918-1.488 1.918-1.488.196-.157.196-.392-.274-.549l-4.776-1.566c-.313-.118-.587-.078-.861.039-.235.117-.43.313-.51.548a1.086 1.086 0 00-.038.784l.94 4.895c.038.235.234.509.508.313z" fill="url(#i)" transform="matrix(.82336 0 0 .8277 -9.111 3.53)"/><path d="M29.916 17.384s1.135-1.136 1.8-1.762l1.293-1.214c.587-.549 1.918-1.488 1.918-1.488.196-.157.196-.392-.274-.549l-4.776-1.566c-.313-.118-.587-.078-.861.039-.235.117-.43.313-.51.548a1.086 1.086 0 00-.038.784l.94 4.895c.038.235.234.509.508.313z" fill="url(#j)" transform="matrix(.82336 0 0 .8277 -9.111 3.404)"/><path d="M62.82 36.717s-.744 1.41-1.214 2.193l-.94 1.567c-.39.665-1.408 1.958-1.408 1.958-.157.196-.079.43.43.43l5.011.157c.313 0 .587-.117.822-.313.157-.157.313-.431.313-.666.04-.274-.039-.509-.156-.744l-2.31-4.425c-.117-.235-.352-.431-.548-.157z" fill="url(#k)" transform="matrix(.82336 0 0 .8277 -9.111 3.363)"/><path d="M62.904 36.717s-.744 1.41-1.214 2.193l-.94 1.567c-.39.665-1.408 1.958-1.408 1.958-.157.196-.079.43.43.43l5.011.157c.313 0 .587-.117.822-.313.157-.157.313-.431.313-.666.04-.274-.039-.509-.156-.744l-2.31-4.425c-.117-.235-.352-.431-.548-.157z" fill="url(#l)" transform="matrix(.82336 0 0 .8277 -9.111 3.363)"/><path d="M26.815 36.797s.665 1.449 1.096 2.271l.861 1.567c.392.705 1.331 1.997 1.331 1.997.157.235.079.47-.43.47l-5.011-.078a.985.985 0 01-.783-.353.897.897 0 01-.313-.665c-.04-.275.078-.549.196-.744l2.466-4.347c.117-.196.352-.392.587-.118z" fill="url(#m)" transform="matrix(.82336 0 0 .8277 -9.111 3.363)"/><path d="M26.815 37.256s.665 1.449 1.096 2.271l.861 1.567c.392.705 1.331 1.997 1.331 1.997.157.235.079.47-.43.47l-5.011-.078a.985.985 0 01-.783-.353.897.897 0 01-.313-.665c-.04-.275.078-.549.196-.744l2.466-4.347c.117-.196.352-.392.587-.118z" fill="url(#n)" transform="matrix(.82336 0 0 .8277 -9.134 2.983)"/><path d="M54.605 46.616s-1.448.666-2.27.979l-1.684.627c-.744.313-2.31.665-2.31.665-.234.079-.313.314.079.627l3.836 3.25c.274.196.548.274.822.274.235 0 .51-.156.705-.313.157-.196.274-.47.313-.705l.9-4.895c.04-.274-.039-.587-.391-.509z" fill="url(#o)" transform="matrix(.82336 0 0 .8277 -8.892 2.775)"/><path d="M54.605 46.616s-1.448.666-2.27.979l-1.684.627c-.744.313-2.31.665-2.31.665-.234.079-.313.314.079.627l3.836 3.25c.274.196.548.274.822.274.235 0 .51-.156.705-.313.157-.196.274-.47.313-.705l.9-4.895c.04-.274-.039-.587-.391-.509z" fill="url(#p)" transform="matrix(.82336 0 0 .8277 -8.892 2.775)"/><path d="M62.686 46.698s-1.408.748-2.25 1.11l-1.603.759c-.727.316-2.268.796-2.268.796-.269.094-.297.292.114.622l4.014 2.986c.285.18.563.242.837.226.271-.054.499-.185.683-.392.187-.167.249-.446.272-.722l.58-4.936c.023-.276-.07-.545-.379-.45z" fill="url(#q)" transform="matrix(-.82302 .02378 .02366 .82736 69.949 1.203)"/><path d="M62.686 46.698s-1.408.748-2.25 1.11l-1.603.759c-.727.316-2.268.796-2.268.796-.269.094-.297.292.114.622l4.014 2.986c.285.18.563.242.837.226.271-.054.499-.185.683-.392.186-.167.249-.446.272-.722l.58-4.936c.023-.276-.07-.545-.379-.45z" fill="url(#r)" transform="matrix(-.82302 .02378 .02366 .82736 69.949 1.203)"/><path d="M60.456 18.386s-1.174-1.097-1.88-1.684l-1.33-1.175c-.626-.509-1.997-1.37-1.997-1.37-.195-.157-.195-.392.274-.588l4.698-1.762c.313-.118.587-.079.861 0 .235.117.431.313.548.548.118.235.118.509.079.783l-.744 4.935c-.04.235-.235.509-.509.313z" fill="url(#s)" transform="matrix(.82336 0 0 .8277 -9.111 2.784)"/><path d="M48.504 10.911s-1.605-.117-2.505-.117h-1.762c-.822 0-2.388.195-2.388.195-.274 0-.43-.156-.196-.626l2.506-4.386a1.14 1.14 0 01.665-.549c.235-.078.548-.039.783.079.235.078.392.313.509.509l2.545 4.308c.117.195-.157.94-.157.587z" fill="url(#t)" transform="matrix(.82336 0 0 .8277 -9.111 2.784)"/><path d="M26.712 23.109s-.391 1.567-.548 2.467l-.352 1.762c-.157.784-.274 2.39-.274 2.39 0 .274-.235.391-.627.078l-3.797-3.33a1.256 1.256 0 01-.392-.782c-.039-.235.04-.51.196-.744.157-.196.392-.314.627-.431l4.658-1.684c.235-.118.548-.079.509.274z" fill="url(#u)" transform="matrix(.82336 0 0 .8277 -9.081 3.304)"/><path d="M26.712 23.109s-.391 1.567-.548 2.467l-.352 1.762c-.157.784-.274 2.39-.274 2.39 0 .274-.235.391-.627.078l-3.797-3.329a1.256 1.256 0 01-.392-.783c-.039-.235.04-.51.196-.744.157-.196.392-.314.627-.431l4.658-1.684c.235-.118.548-.078.509.274z" fill="url(#v)" transform="matrix(.82336 0 0 .8277 -9.081 3.304)"/><path d="M63.63 23.738s.391 1.567.548 2.467l.352 1.762c.157.784.235 2.428.235 2.428.04.275.235.353.627.04l3.797-3.29c.274-.196.391-.47.43-.744a.982.982 0 00-.195-.744c-.157-.235-.392-.353-.627-.47l-4.619-1.723c-.235-.078-.548-.078-.548.274z" fill="url(#w)" transform="matrix(.82336 0 0 .8277 -9.357 2.988)"/><path d="M63.63 23.738s.391 1.567.548 2.467l.352 1.762c.157.784.235 2.428.235 2.428.04.275.235.353.627.04l3.797-3.29c.274-.196.391-.47.43-.744a.982.982 0 00-.195-.744c-.157-.235-.392-.353-.627-.47l-4.619-1.723c-.235-.078-.548-.078-.548.274z" fill="url(#x)" transform="matrix(.82336 0 0 .8277 -9.357 2.988)"/></g><g stroke-width="1.393"><path d="M23.314 14.548c-5.653 0-10.424 3.923-10.424 8.763 0 1.973 1.268 4.527 2.697 6.075-3.802 2.411-6.33 5.784-6.224 10.033.177 6.903 6.356 12.39 13.86 12.309 7.503-.082 13.54-5.702 13.54-12.607l-.016-.596c-.202-3.805-2.262-7.321-5.604-9.568 1.555-1.58 2.408-3.58 2.408-5.646 0-4.84-4.583-8.763-10.236-8.763z" fill="url(#y)" filter="url(#z)" opacity=".98" paint-order="markers stroke fill" transform="matrix(.78078 0 0 .6602 41.963 20.718)"/><g stroke-width="1.571"><path d="M58.92 36.98c-.2-.18-.227-.534-.227-.676 0-.4.535-.874 1.145-.862.547.01 1.125.445 1.125.948 0 .828-1.209 1.338-2.042.59zm1.411-.861c0-.18-.105-.271-.316-.271-.21 0-.316.09-.316.27 0 .181.105.271.316.271.21 0 .316-.09.316-.27z" fill="#bd392a"/><path d="M58.597 39.028c-.515-.218-.672-.361-.672-.613 0-.454.339-.522.968-.193.673.351 1.503.355 2.113.008.26-.148.6-.269.755-.27.418 0 .51.376.173.7-.71.683-2.207.848-3.337.368zm-1.383-3.645c-.714-.356-.386-1.619.42-1.619.737 0 1.008 1.161.362 1.549-.407.244-.43.246-.782.07zm4.318-.163c-.355-.336-.33-.913.055-1.242.38-.325.46-.33.913-.06.658.395.31 1.55-.467 1.55-.132 0-.357-.112-.5-.248zm-9.464-3.52c-.517-.444.01-1.056.908-1.056.287.052.561.007 1.027-.03.01-.663-.02-.407.054-2.017.088-1.912.392-2.254 1.271-3.022.238-.207.619-.26.953-.317 1.216-.211 3.72-.093 3.72-.093 4.526-.06 4.81.004 5.625.913.489.545.394.841.448 2.682l.054 1.884h.527c.83 0 1.329.631.833 1.055-.273.234-15.147.234-15.42 0z" fill="#324e5c"/></g><path d="M53.84 38.973c-.547 0-1.091.368-1.227.83-.11.374-.045.877.252 1.183.19.196.426.3.72.452l.487.261-.863 1.74c-.475.956-.864 1.905-.864 2.11 0 .505.291.93.743 1.087 1.07.37 1.584-.053 2.6-2.136 1.05-2.155.928-2.031 1.834-1.852.417.082 1.582.151 2.587.153 2.975.006 6.564-.895 7.059-1.788.275-.497.053-1.046-.563-1.392-.43-.241-.58-.233-2.268.218-2.093.56-3.9.753-5.54.592-1.564-.154-2.117-.303-3.461-.936-.61-.287-1.284-.523-1.496-.523z" fill="#bd392a"/></g><g stroke-width="1.606"><path d="M59 37.27c-.188-.182-.213-.537-.213-.68 0-.402.5-.88 1.067-.867.51.01 1.047.448 1.047.953 0 .833-1.125 1.347-1.902.594zm1.313-.867c0-.181-.098-.272-.294-.272-.197 0-.295.09-.295.272 0 .182.098.273.295.273.196 0 .294-.091.294-.273z" enable-background="new" fill="#bd392a"/><path transform="matrix(.71384 0 0 .66408 43.333 20.912)" d="M23.314 14.548c-5.653 0-10.424 3.923-10.424 8.763 0 1.973 1.268 4.527 2.697 6.075-3.802 2.411-6.248 5.918-6.1 10.344.178 6.903 6.232 12.079 13.735 11.998 7.504-.082 13.54-5.702 13.54-12.607l-.015-.596c-.201-3.805-2.261-7.321-5.604-9.568 1.555-1.58 2.408-3.58 2.408-5.646 0-4.84-4.583-8.763-10.236-8.763z" enable-background="new" fill="url(#A)" filter="url(#B)" opacity=".98" stroke="url(#C)" stroke-linecap="round" stroke-linejoin="round" stroke-width=".29" paint-order="markers stroke fill"/><path d="M54.412 39.274c-.51 0-1.017.37-1.143.835-.102.376-.042.883.235 1.19.177.198.397.303.67.455l.454.263-.804 1.75c-.442.961-.804 1.916-.804 2.122 0 .508.27.936.691 1.093.997.372 1.475-.052 2.421-2.148.978-2.168.864-2.043 1.708-1.863.389.083 1.473.152 2.409.154 2.77.006 6.113-.9 6.573-1.799.256-.5.05-1.052-.524-1.4-.4-.242-.54-.234-2.112.22-1.95.563-3.632.757-5.158.595-1.457-.155-1.972-.305-3.224-.941-.568-.29-1.195-.526-1.392-.526z" enable-background="new" fill="#bd392a"/><path d="M46.253 42.918l2.492 2.19-1.273-3.06m5.029 5.106l-3.756-2.045-3.146-.282m28.045-2.294l-2.492 2.19 1.273-3.06m-5.352 5.433l4.079-2.373 3.145-.28" enable-background="new" fill="none" stroke="#502d16" stroke-width="1"/><path d="M58.878 39.33c-.479-.22-.625-.364-.625-.617 0-.457.315-.525.901-.195.627.354 1.4.357 1.968.009.242-.149.559-.27.703-.271.388-.002.475.377.16.703-.66.687-2.054.853-3.107.37zm-1.384-3.667c-.664-.359-.359-1.628.392-1.628.686 0 .938 1.168.337 1.558-.379.245-.401.247-.729.07zm4.149-.164c-.33-.338-.307-.918.05-1.249.355-.328.43-.333.85-.06.614.397.29 1.558-.434 1.558-.122 0-.332-.112-.466-.25zm-8.844-3.541c-.482-.446.009-1.062.845-1.062.267.052.523.007.956-.03.01-.667-.019-.41.05-2.029.083-1.923.366-2.267 1.185-3.04.22-.208.576-.26.886-.319 1.133-.212 3.465-.093 3.465-.093 4.214-.06 4.42-.035 5.178.88.456.548.244.728.294 2.58l.05 1.894.674.157c.752.175 1.237.635.776 1.062-.254.235-14.105.235-14.359 0z" enable-background="new" fill="#324e5c"/><path transform="matrix(.54126 0 0 .53694 45.333 23.588)" d="M28.445 2.917c-2.376.016-4.848-.393-7.122.298-1.241.377-2.546.988-3.321 2.03-.436.585-1.085 1.61-.559 2.116.665.64 1.739-.64 2.645-.812.485-.093 1.003-.257 1.477-.117.552.163.945.663 1.37 1.05.58.528.815 1.75 1.596 1.723 1.164-.044 1.339-1.923 2.176-2.732.343-.332.673-.838 1.15-.854.543-.018.827.905 1.37.883.86-.035 1.19-1.543 2.052-1.57.822-.027 1.233 1.44 2.053 1.37.493-.04.722-.678 1.08-1.02.437-.42 1.453-.68 1.304-1.266-.3-1.183-2.317-.807-3.523-.991-1.236-.19-2.498-.116-3.748-.108z" enable-background="new" fill="url(#D)" filter="url(#E)" opacity=".97" stroke="url(#F)" stroke-width="1.855"/></g><path d="M58.955 37.215c-.227-.207-.257-.61-.257-.773 0-.457.603-1 1.29-.985.614.012 1.264.508 1.264 1.083 0 .946-1.36 1.53-2.297.675zm1.586-.985c0-.206-.118-.31-.355-.31s-.356.104-.356.31.119.31.356.31.355-.104.355-.31z" enable-background="new" fill="#bd392a"/></svg>