<svg width="80" height="60" enable-background="new" viewBox="0 0 80 60" xmlns="http://www.w3.org/2000/svg" xmlns:xlink="http://www.w3.org/1999/xlink"><defs><linearGradient id="a"><stop stop-color="#b3b3b3" offset="0"/><stop stop-color="#b3b3b3" stop-opacity="0" offset="1"/></linearGradient><linearGradient id="b" x1="42.943" x2="56.6" y1="36.013" y2="7.883" gradientUnits="userSpaceOnUse" xlink:href="#a"/><filter id="c" color-interpolation-filters="sRGB"><feColorMatrix result="fbSourceGraphic" values="0.973958 0 0 0.0977109 0.0130208 0 0.973958 0 0.0977109 0.0130208 0 0 0.973958 0.0977109 0.0130208 0 0 0 1 0"/><feColorMatrix in="fbSourceGraphic" result="fbSourceGraphicAlpha" values="0 0 0 -1 0 0 0 0 -1 0 0 0 0 -1 0 0 0 0 1 0"/><feColorMatrix in="fbSourceGraphic" values="0.927083 0 0 0.0300625 0.0364583 0 0.927083 0 0.0300625 0.0364583 0 0 0.927083 0.0300625 0.0364583 0 0 0 1 0"/></filter></defs><path transform="matrix(.88601 0 0 .94635 .224 1.496)" d="M48.579 11.568c-2.966-.038-6.112.92-8.528 2.855-1.59 1.273-3.008 2.763-3.415 5.348-3.33-.657-6.672.486-9.01 2.802-1.732 1.715-2.68 4.501-2.673 7.181-3.186.452-5.171.631-7.173 3.52-2.655 3.833-2.252 8.805.62 11.965 2.347 2.582 6.017 3.22 9.016 3.158l35.452-.022c3.722-.002 7.99-2.437 9.833-5.875 1.938-3.618 1.62-8.94-.376-12.423-1.893-3.302-5.326-4.807-9.393-5.234-.12-3.066-2.11-7.384-4.622-9.746-2.614-2.458-6.323-3.485-9.731-3.528z" color="#000" enable-background="accumulate" fill="url(#b)" filter="url(#c)" stroke="url(#G)" stroke-linejoin="round" stroke-width=".218" style="font-feature-settings:normal;font-variant-alternates:normal;font-variant-caps:normal;font-variant-ligatures:normal;font-variant-numeric:normal;font-variant-position:normal;isolation:auto;mix-blend-mode:normal;shape-padding:0;text-decoration-color:#000;text-decoration-line:none;text-decoration-style:solid;text-indent:0;text-orientation:mixed;text-transform:none;white-space:normal"/></svg>