<svg width="80" height="60" enable-background="new" viewBox="0 0 80 60" xmlns="http://www.w3.org/2000/svg" xmlns:xlink="http://www.w3.org/1999/xlink"><defs><linearGradient id="e" x1="33.224" x2="64.158" y1="40.922" y2="8.928" gradientUnits="userSpaceOnUse" xlink:href="#d"/><linearGradient id="b"><stop stop-color="#f9f9f9" offset="0"/><stop stop-color="#a1a1a2" offset="1"/></linearGradient><linearGradient id="d"><stop stop-color="#b3b3b3" offset="0"/><stop stop-color="#b3b3b3" stop-opacity="0" offset="1"/></linearGradient><linearGradient id="n" x1="16.95" x2="36.026" y1="6.005" y2="6.005" gradientUnits="userSpaceOnUse" xlink:href="#b"/><linearGradient id="c"><stop stop-color="#e6e6e6" offset="0"/><stop stop-color="#939393" offset="1"/></linearGradient><linearGradient id="a"><stop stop-color="#fff" offset="0"/><stop stop-color="#898789" offset="1"/></linearGradient><linearGradient id="k" x1="8.974" x2="37.147" y1="33.139" y2="33.139" gradientUnits="userSpaceOnUse" xlink:href="#c"/><linearGradient id="l" x1="51.162" x2="73.325" y1="32.759" y2="32.759" gradientTransform="matrix(.99527 0 0 .94146 -32.407 -24.589)" gradientUnits="userSpaceOnUse" xlink:href="#a"/><linearGradient id="i" x1="17.903" x2="37.862" y1="26.492" y2="29.941" gradientUnits="userSpaceOnUse" xlink:href="#b"/><linearGradient id="g" x1="25.139" x2="44.405" y1="30.894" y2="32.872" gradientUnits="userSpaceOnUse" xlink:href="#c"/><filter id="h" x="-.014" y="-.01" width="1.028" height="1.021" color-interpolation-filters="sRGB"><feGaussianBlur stdDeviation=".161"/></filter><filter id="f" color-interpolation-filters="sRGB"><feColorMatrix result="fbSourceGraphic" values="0.973958 0 0 0.0977109 0.0130208 0 0.973958 0 0.0977109 0.0130208 0 0 0.973958 0.0977109 0.0130208 0 0 0 1 0"/><feColorMatrix in="fbSourceGraphic" result="fbSourceGraphicAlpha" values="0 0 0 -1 0 0 0 0 -1 0 0 0 0 -1 0 0 0 0 1 0"/><feColorMatrix in="fbSourceGraphic" values="0.927083 0 0 0.0300625 0.0364583 0 0.927083 0 0.0300625 0.0364583 0 0 0.927083 0.0300625 0.0364583 0 0 0 1 0"/></filter><filter id="j" x="-.014" y="-.01" width="1.028" height="1.021" color-interpolation-filters="sRGB"><feGaussianBlur stdDeviation=".161"/></filter><filter id="m" x="-.016" y="-.05" width="1.032" height="1.099" color-interpolation-filters="sRGB"><feGaussianBlur stdDeviation=".142"/></filter></defs><path transform="matrix(.66568 0 0 .82004 -.536 2.293)" d="M46.619 11.808c-2.667-.166-5.62.336-7.77 1.662-2.488 1.533-4.822 3.16-4.844 6.603-4.743-1.086-7.316.1-9.485 2.148-2.137 2.019-2.4 5-1.366 8.001-4.598 0-6.939 2.605-8.052 5.303-1.301 3.15.271 7.16 2.838 9.713 2.016 2.006 5.618 3.22 8.617 3.158l33.607-.021c3.722-.003 7.786-2.91 9.476-5.876 2.133-3.743 1.695-8.771-.656-12.423-1.681-2.612-4.553-4.807-8.62-5.233-.12-3.067-1.475-7.224-4.342-9.72-2.354-2.05-6.01-3.104-9.403-3.315z" color="#000" enable-background="accumulate" fill="url(#e)" filter="url(#f)" stroke="url(#q)" stroke-linejoin="round" stroke-width=".271" style="font-feature-settings:normal;font-variant-alternates:normal;font-variant-caps:normal;font-variant-ligatures:normal;font-variant-numeric:normal;font-variant-position:normal;isolation:auto;mix-blend-mode:normal;shape-padding:0;text-decoration-color:#000;text-decoration-line:none;text-decoration-style:solid;text-indent:0;text-orientation:mixed;text-transform:none;white-space:normal"/><g stroke-width="1.393"><path d="M23.314 14.548c-5.653 0-10.424 3.923-10.424 8.763 0 1.973 1.268 4.527 2.697 6.075-3.802 2.411-6.33 5.784-6.224 10.033.177 6.903 6.356 12.39 13.86 12.309 7.503-.082 13.54-5.702 13.54-12.607l-.016-.596c-.202-3.805-2.262-7.321-5.604-9.568 1.555-1.58 2.408-3.58 2.408-5.646 0-4.84-4.583-8.763-10.236-8.763z" fill="url(#g)" filter="url(#h)" opacity=".98" paint-order="markers stroke fill" transform="matrix(.78078 0 0 .6602 41.963 20.718)"/><g stroke-width="1.571"><path d="M58.92 36.98c-.2-.18-.227-.534-.227-.676 0-.4.535-.874 1.145-.862.547.01 1.125.445 1.125.948 0 .828-1.209 1.338-2.042.59zm1.411-.861c0-.18-.105-.271-.316-.271-.21 0-.316.09-.316.27 0 .181.105.271.316.271.21 0 .316-.09.316-.27z" fill="#bd392a"/><path d="M58.597 39.028c-.515-.218-.672-.361-.672-.613 0-.454.339-.522.968-.193.673.351 1.503.355 2.113.008.26-.148.6-.269.755-.27.418 0 .51.376.173.7-.71.683-2.207.848-3.337.368zm-1.383-3.645c-.714-.356-.386-1.619.42-1.619.737 0 1.008 1.161.362 1.549-.407.244-.43.246-.782.07zm4.318-.163c-.355-.336-.33-.913.055-1.242.38-.325.46-.33.913-.06.658.395.31 1.55-.467 1.55-.132 0-.357-.112-.5-.248zm-9.464-3.52c-.517-.444.01-1.056.908-1.056.287.052.561.007 1.027-.03.01-.663-.02-.407.054-2.017.088-1.912.392-2.254 1.271-3.022.238-.207.619-.26.953-.317 1.216-.211 3.72-.093 3.72-.093 4.526-.06 4.81.004 5.625.913.489.545.394.841.448 2.682l.054 1.884h.527c.83 0 1.329.631.833 1.055-.273.234-15.147.234-15.42 0z" fill="#324e5c"/></g><path d="M53.84 38.973c-.547 0-1.091.368-1.227.83-.11.374-.045.877.252 1.183.19.196.426.3.72.452l.487.261-.863 1.74c-.475.956-.864 1.905-.864 2.11 0 .505.291.93.743 1.087 1.07.37 1.584-.053 2.6-2.136 1.05-2.155.928-2.031 1.834-1.852.417.082 1.582.151 2.587.153 2.975.006 6.564-.895 7.059-1.788.275-.497.053-1.046-.563-1.392-.43-.241-.58-.233-2.268.218-2.093.56-3.9.753-5.54.592-1.564-.154-2.117-.303-3.461-.936-.61-.287-1.284-.523-1.496-.523z" fill="#bd392a"/></g><g stroke-width="1.606"><path d="M59 37.27c-.188-.182-.213-.537-.213-.68 0-.402.5-.88 1.067-.867.51.01 1.047.448 1.047.953 0 .833-1.125 1.347-1.902.594zm1.313-.867c0-.181-.098-.272-.294-.272-.197 0-.295.09-.295.272 0 .182.098.273.295.273.196 0 .294-.091.294-.273z" enable-background="new" fill="#bd392a"/><path transform="matrix(.71384 0 0 .66408 43.333 20.912)" d="M23.314 14.548c-5.653 0-10.424 3.923-10.424 8.763 0 1.973 1.268 4.527 2.697 6.075-3.802 2.411-6.248 5.918-6.1 10.344.178 6.903 6.232 12.079 13.735 11.998 7.504-.082 13.54-5.702 13.54-12.607l-.015-.596c-.201-3.805-2.261-7.321-5.604-9.568 1.555-1.58 2.408-3.58 2.408-5.646 0-4.84-4.583-8.763-10.236-8.763z" enable-background="new" fill="url(#i)" filter="url(#j)" opacity=".98" stroke="url(#k)" stroke-linecap="round" stroke-linejoin="round" stroke-width=".29" paint-order="markers stroke fill"/><path d="M54.412 39.274c-.51 0-1.017.37-1.143.835-.102.376-.042.883.235 1.19.177.198.397.303.67.455l.454.263-.804 1.75c-.442.961-.804 1.916-.804 2.122 0 .508.27.936.691 1.093.997.372 1.475-.052 2.421-2.148.978-2.168.864-2.043 1.708-1.863.389.083 1.473.152 2.409.154 2.77.006 6.113-.9 6.573-1.799.256-.5.05-1.052-.524-1.4-.4-.242-.54-.234-2.112.22-1.95.563-3.632.757-5.158.595-1.457-.155-1.972-.305-3.224-.941-.568-.29-1.195-.526-1.392-.526z" enable-background="new" fill="#bd392a"/><path d="M46.253 42.918l2.492 2.19-1.273-3.06m5.029 5.106l-3.756-2.045-3.146-.282m28.045-2.294l-2.492 2.19 1.273-3.06m-5.352 5.433l4.079-2.373 3.145-.28" enable-background="new" fill="none" stroke="#502d16" stroke-width="1"/><path d="M58.878 39.33c-.479-.22-.625-.364-.625-.617 0-.457.315-.525.901-.195.627.354 1.4.357 1.968.009.242-.149.559-.27.703-.271.388-.002.475.377.16.703-.66.687-2.054.853-3.107.37zm-1.384-3.667c-.664-.359-.359-1.628.392-1.628.686 0 .938 1.168.337 1.558-.379.245-.401.247-.729.07zm4.149-.164c-.33-.338-.307-.918.05-1.249.355-.328.43-.333.85-.06.614.397.29 1.558-.434 1.558-.122 0-.332-.112-.466-.25zm-8.844-3.541c-.482-.446.009-1.062.845-1.062.267.052.523.007.956-.03.01-.667-.019-.41.05-2.029.083-1.923.366-2.267 1.185-3.04.22-.208.576-.26.886-.319 1.133-.212 3.465-.093 3.465-.093 4.214-.06 4.42-.035 5.178.88.456.548.244.728.294 2.58l.05 1.894.674.157c.752.175 1.237.635.776 1.062-.254.235-14.105.235-14.359 0z" enable-background="new" fill="#324e5c"/><path transform="matrix(.54126 0 0 .53694 45.333 23.588)" d="M28.445 2.917c-2.376.016-4.848-.393-7.122.298-1.241.377-2.546.988-3.321 2.03-.436.585-1.085 1.61-.559 2.116.665.64 1.739-.64 2.645-.812.485-.093 1.003-.257 1.477-.117.552.163.945.663 1.37 1.05.58.528.815 1.75 1.596 1.723 1.164-.044 1.339-1.923 2.176-2.732.343-.332.673-.838 1.15-.854.543-.018.827.905 1.37.883.86-.035 1.19-1.543 2.052-1.57.822-.027 1.233 1.44 2.053 1.37.493-.04.722-.678 1.08-1.02.437-.42 1.453-.68 1.304-1.266-.3-1.183-2.317-.807-3.523-.991-1.236-.19-2.498-.116-3.748-.108z" enable-background="new" fill="url(#l)" filter="url(#m)" opacity=".97" stroke="url(#n)" stroke-width="1.855"/></g><path d="M58.955 37.215c-.227-.207-.257-.61-.257-.773 0-.457.603-1 1.29-.985.614.012 1.264.508 1.264 1.083 0 .946-1.36 1.53-2.297.675zm1.586-.985c0-.206-.118-.31-.355-.31s-.356.104-.356.31.119.31.356.31.355-.104.355-.31z" enable-background="new" fill="#bd392a"/></svg>