<svg width="80" height="60" enable-background="new" viewBox="0 0 80 60" xmlns="http://www.w3.org/2000/svg" xmlns:xlink="http://www.w3.org/1999/xlink"><defs><linearGradient id="l" x1="28.403" x2="32.166" y1="7.993" y2="9.319" gradientTransform="translate(52.965 -13.869)" gradientUnits="userSpaceOnUse" xlink:href="#a"/><linearGradient id="a"><stop stop-color="#00f" offset="0"/><stop stop-color="#0ff" offset="1"/></linearGradient><linearGradient id="c"><stop stop-color="#08a" offset="0"/><stop stop-color="#08a" stop-opacity="0" offset="1"/></linearGradient><linearGradient id="b"><stop stop-color="#0015b6" offset="0"/><stop stop-color="#00ffdf" offset="1"/></linearGradient><linearGradient id="d"><stop stop-color="#b3b3b3" offset="0"/><stop stop-color="#b3b3b3" stop-opacity="0" offset="1"/></linearGradient><linearGradient id="p" x1="28.403" x2="32.166" y1="7.993" y2="9.319" gradientTransform="translate(-.99 .228)" gradientUnits="userSpaceOnUse" xlink:href="#a"/><linearGradient id="n" x1="28.403" x2="32.166" y1="7.993" y2="9.319" gradientTransform="translate(65.948 -11.969)" gradientUnits="userSpaceOnUse" xlink:href="#a"/><linearGradient id="j" x1="28.403" x2="32.166" y1="7.993" y2="9.319" gradientTransform="translate(59.456 -13.869)" gradientUnits="userSpaceOnUse" xlink:href="#a"/><linearGradient id="g" x1="33.337" x2="46.389" y1="51.885" y2="51.885" gradientTransform="translate(.1 -4)" gradientUnits="userSpaceOnUse"><stop stop-color="#d40000" offset="0"/><stop stop-color="red" offset="1"/></linearGradient><linearGradient id="h" x1="22.107" x2="58.052" y1="30.016" y2="14.106" gradientUnits="userSpaceOnUse" xlink:href="#b"/><linearGradient id="i" x1="22.607" x2="67.214" y1="17.34" y2="17.34" gradientUnits="userSpaceOnUse" xlink:href="#c"/><linearGradient id="e" x1="33.224" x2="64.158" y1="40.922" y2="8.928" gradientUnits="userSpaceOnUse" xlink:href="#d"/><filter id="f" color-interpolation-filters="sRGB"><feColorMatrix result="fbSourceGraphic" values="0.973958 0 0 0.0977109 0.0130208 0 0.973958 0 0.0977109 0.0130208 0 0 0.973958 0.0977109 0.0130208 0 0 0 1 0"/><feColorMatrix in="fbSourceGraphic" result="fbSourceGraphicAlpha" values="0 0 0 -1 0 0 0 0 -1 0 0 0 0 -1 0 0 0 0 1 0"/><feColorMatrix in="fbSourceGraphic" values="0.927083 0 0 0.0300625 0.0364583 0 0.927083 0 0.0300625 0.0364583 0 0 0.927083 0.0300625 0.0364583 0 0 0 1 0"/></filter><filter id="k" color-interpolation-filters="sRGB"><feComponentTransfer result="component"><feFuncR amplitude="2" exponent="2" offset="-.7" type="gamma"/><feFuncG amplitude="2" exponent="2" offset="-.7" type="gamma"/><feFuncB amplitude="2" exponent="2" offset="-.7" type="gamma"/></feComponentTransfer></filter><filter id="m" color-interpolation-filters="sRGB"><feComponentTransfer result="component"><feFuncR amplitude="2" exponent="2" offset="-.7" type="gamma"/><feFuncG amplitude="2" exponent="2" offset="-.7" type="gamma"/><feFuncB amplitude="2" exponent="2" offset="-.7" type="gamma"/></feComponentTransfer></filter><filter id="o" color-interpolation-filters="sRGB"><feComponentTransfer result="component"><feFuncR amplitude="2" exponent="2" offset="-.7" type="gamma"/><feFuncG amplitude="2" exponent="2" offset="-.7" type="gamma"/><feFuncB amplitude="2" exponent="2" offset="-.7" type="gamma"/></feComponentTransfer></filter><filter id="q" color-interpolation-filters="sRGB"><feComponentTransfer result="component"><feFuncR amplitude="2" exponent="2" offset="-.7" type="gamma"/><feFuncG amplitude="2" exponent="2" offset="-.7" type="gamma"/><feFuncB amplitude="2" exponent="2" offset="-.7" type="gamma"/></feComponentTransfer></filter></defs><path transform="matrix(.57276 0 0 .68735 -5.901 9.398)" d="M48.579 11.568c-2.966-.038-6.537.92-8.953 2.855-1.59 1.273-3.007 2.763-3.414 5.348-3.33-.657-7.517.183-9.7 2.315-2.05 2.004-2.07 5.165-1.136 7.844-3.185.452-5.595.632-7.596 3.521-2.655 3.832-2.252 8.628.62 11.787 2.347 2.582 6.017 3.22 9.016 3.158l35.451-.022c3.723-.002 7.992-2.437 9.834-5.875 1.938-3.617 2.021-8.795-.376-12.423-1.694-2.563-4.69-4.453-8.758-4.88.544-3.986-1.963-7.51-5.044-10.1-2.537-2.13-6.536-3.485-9.944-3.528z" color="#000" enable-background="accumulate" fill="url(#e)" filter="url(#f)" stroke="url(#P)" stroke-linejoin="round" stroke-width=".319" style="font-feature-settings:normal;font-variant-alternates:normal;font-variant-caps:normal;font-variant-ligatures:normal;font-variant-numeric:normal;font-variant-position:normal;isolation:auto;mix-blend-mode:normal;shape-padding:0;text-decoration-color:#000;text-decoration-line:none;text-decoration-style:solid;text-indent:0;text-orientation:mixed;text-transform:none;white-space:normal"/><path d="M40.938 43.794v2.541h-7.05v3.1h7.05v2.54l5.102-4.09-2.551-2.046z" fill="url(#g)" fill-rule="evenodd" paint-order="stroke markers fill"/><g stroke-width="1.355" fill-rule="evenodd"><g fill="url(#h)" transform="matrix(.77134 0 0 .70665 25.361 11.65)"><path d="M38.542 26.165c-1.699-.05-3.426.37-4.995 1.024-.508.211-1.374.914-1.374.914l-.968-.835c-2.615-1.787-3.767-1.847-7.62-1.194-.836.296-.977.423-.942-.36.08-1.787 2.178-6.472 4.41-8.897 4.06-4.411 8.54-6.81 14.756-7.601.894-.114 1.713-.266 1.785-.34.073-.073.14-.498.216-.969.266-1.02.678-1.265 1.154-1.306.36.021.565.214.694.419.31.532.317 1.32.494 1.839.073.073.868.231 1.761.345 6.216.792 10.848 3.213 14.908 7.625 2.225 2.417 4.453 6.89 4.453 8.945 0 .512-.017.517-1.097.184-2.745-.846-6.567-.209-8.195 1.334l-.84.81s-.72-.697-1.157-.914c-1.212-.6-2.653-.933-3.912-.989-2.417-.106-4.626.66-7.085 1.69-3.122-1.21-4.223-1.658-6.446-1.724z"/><path d="M45.802 27.58l-.814.308-.787-.283v16.36m-.045 0h1.747m-1.89.014v3.582c.026 1.141-1.12 1.779-2.105 1.767-1.042-.012-1.759-.907-1.92-1.875-.08-.49.051-1.06-.465-1.465-.402-.26-1.173-.092-1.318.314-.157.408-.135.848-.088 1.264.219 1.017.488 1.993 1.53 2.867.938.786 2.356.87 3.516.602.77-.18 1.513-.712 1.984-1.401.587-.858.861-1.628.831-3.083v-2.572" fill="#666" opacity=".97"/><path d="M53.7 45.426c0-4.864.006-6.86.012-4.437.007 2.423.007 6.403 0 8.843-.006 2.44-.012.458-.012-4.406z" opacity=".83" paint-order="markers stroke fill"/></g><path d="M59.712 31.23l.35.127.342-.128.369-.089c.127 4.074.014 7.206 0 11.588h-1.38v-11.6z" fill="#666" opacity=".97" paint-order="markers fill stroke"/><path d="M38.418 26.216c-1.676-.056-3.374.476-4.93 1.103-.503.203-1.308.768-1.308.768l-.373-.219c-2.325-1.925-3.7-2.674-8.332-1.73-.836.297-.868.188-.868-.328 0-2.076 2.22-6.564 4.452-9 4.06-4.432 8.763-6.854 14.978-7.65.894-.114 1.47-.242 1.542-.316.073-.074.195-.524.27-.997.135-.837.594-1.255 1.108-1.255s.866.418 1 1.255c.1.571.167.923.24.997.072.074.614.202 1.507.316 6.216.796 10.997 3.218 15.057 7.65 2.225 2.429 4.453 6.923 4.453 8.987 0 .515-.017.52-1.097.185-2.745-.85-6.666-.109-8.294 1.441l-.641.664s-.964-.811-1.473-1.015c-1.34-.535-2.819-.924-4.259-.856-2.24.105-2.721.117-6.463 1.673-3.343-1.571-4.31-1.598-6.57-1.673z" fill="url(#i)" transform="matrix(.77134 0 0 .70665 25.361 11.65)"/></g><g stroke-width="1.246"><path d="M92.036-6.65l-.648.404c-.357.221-.885.734-1.172 1.138-.403.568-.46.843-.252 1.205.148.259.44.494.646.524.726.105 1.123-.486 1.276-1.889z" enable-background="new" fill="url(#j)" filter="url(#k)" transform="matrix(.80212 0 0 .80349 -10.317 17.247)"/><path d="M85.545-6.65l-.648.404c-.357.221-.885.734-1.172 1.138-.403.568-.46.843-.252 1.205.148.259.44.494.646.524.726.105 1.123-.486 1.276-1.889z" enable-background="new" fill="url(#l)" filter="url(#m)" transform="matrix(.80212 0 0 .80349 -10.317 17.247)"/><path d="M98.527-4.751l-.648.404c-.357.222-.885.735-1.172 1.139-.403.567-.46.842-.252 1.205.148.259.44.494.646.524.726.105 1.123-.486 1.276-1.89z" enable-background="new" fill="url(#n)" filter="url(#o)" transform="matrix(.80212 0 0 .80349 -10.317 17.247)"/><path d="M31.589 7.447l-.648.404c-.357.222-.885.734-1.172 1.139-.403.567-.46.842-.252 1.205.148.258.44.493.646.523.726.105 1.123-.486 1.276-1.889z" enable-background="new" fill="url(#p)" filter="url(#q)" transform="matrix(.80212 0 0 .80349 27.756 7.446)"/></g></svg>