<svg width="80" height="60" enable-background="new" viewBox="0 0 80 60" xmlns="http://www.w3.org/2000/svg" xmlns:xlink="http://www.w3.org/1999/xlink"><defs><linearGradient id="e"><stop stop-color="#e6e6e6" offset="0"/><stop stop-color="#939393" offset="1"/></linearGradient><linearGradient id="o" x1="28.403" x2="32.166" y1="7.993" y2="9.319" gradientTransform="translate(-.99 .228)" gradientUnits="userSpaceOnUse" xlink:href="#a"/><linearGradient id="b"><stop stop-color="#08a" offset="0"/><stop stop-color="#08a" stop-opacity="0" offset="1"/></linearGradient><linearGradient id="f"><stop stop-color="#0015b6" offset="0"/><stop stop-color="#00ffdf" offset="1"/></linearGradient><linearGradient id="x" x1="16.95" x2="36.026" y1="6.005" y2="6.005" gradientUnits="userSpaceOnUse" xlink:href="#c"/><linearGradient id="v" x1="51.162" x2="73.325" y1="32.759" y2="32.759" gradientTransform="matrix(.99527 0 0 .94146 -32.407 -24.589)" gradientUnits="userSpaceOnUse" xlink:href="#d"/><linearGradient id="d"><stop stop-color="#fff" offset="0"/><stop stop-color="#898789" offset="1"/></linearGradient><linearGradient id="u" x1="8.974" x2="37.147" y1="33.139" y2="33.139" gradientUnits="userSpaceOnUse" xlink:href="#e"/><linearGradient id="c"><stop stop-color="#f9f9f9" offset="0"/><stop stop-color="#a1a1a2" offset="1"/></linearGradient><linearGradient id="g" x1="22.107" x2="58.052" y1="30.016" y2="14.106" gradientUnits="userSpaceOnUse" xlink:href="#f"/><linearGradient id="s" x1="17.903" x2="37.862" y1="26.492" y2="29.941" gradientUnits="userSpaceOnUse" xlink:href="#c"/><linearGradient id="q" x1="25.139" x2="44.405" y1="30.894" y2="32.872" gradientUnits="userSpaceOnUse" xlink:href="#e"/><linearGradient id="h" x1="22.607" x2="67.214" y1="17.34" y2="17.34" gradientUnits="userSpaceOnUse" xlink:href="#b"/><linearGradient id="m" x1="28.403" x2="32.166" y1="7.993" y2="9.319" gradientTransform="translate(65.948 -11.969)" gradientUnits="userSpaceOnUse" xlink:href="#a"/><linearGradient id="k" x1="28.403" x2="32.166" y1="7.993" y2="9.319" gradientTransform="translate(52.965 -13.869)" gradientUnits="userSpaceOnUse" xlink:href="#a"/><linearGradient id="i" x1="28.403" x2="32.166" y1="7.993" y2="9.319" gradientTransform="translate(59.456 -13.869)" gradientUnits="userSpaceOnUse" xlink:href="#a"/><linearGradient id="a"><stop stop-color="#00f" offset="0"/><stop stop-color="#0ff" offset="1"/></linearGradient><filter id="j" color-interpolation-filters="sRGB"><feComponentTransfer result="component"><feFuncR amplitude="2" exponent="2" offset="-.7" type="gamma"/><feFuncG amplitude="2" exponent="2" offset="-.7" type="gamma"/><feFuncB amplitude="2" exponent="2" offset="-.7" type="gamma"/></feComponentTransfer></filter><filter id="l" color-interpolation-filters="sRGB"><feComponentTransfer result="component"><feFuncR amplitude="2" exponent="2" offset="-.7" type="gamma"/><feFuncG amplitude="2" exponent="2" offset="-.7" type="gamma"/><feFuncB amplitude="2" exponent="2" offset="-.7" type="gamma"/></feComponentTransfer></filter><filter id="n" color-interpolation-filters="sRGB"><feComponentTransfer result="component"><feFuncR amplitude="2" exponent="2" offset="-.7" type="gamma"/><feFuncG amplitude="2" exponent="2" offset="-.7" type="gamma"/><feFuncB amplitude="2" exponent="2" offset="-.7" type="gamma"/></feComponentTransfer></filter><filter id="p" color-interpolation-filters="sRGB"><feComponentTransfer result="component"><feFuncR amplitude="2" exponent="2" offset="-.7" type="gamma"/><feFuncG amplitude="2" exponent="2" offset="-.7" type="gamma"/><feFuncB amplitude="2" exponent="2" offset="-.7" type="gamma"/></feComponentTransfer></filter><filter id="r" x="-.014" y="-.01" width="1.028" height="1.021" color-interpolation-filters="sRGB"><feGaussianBlur stdDeviation=".161"/></filter><filter id="t" x="-.014" y="-.01" width="1.028" height="1.021" color-interpolation-filters="sRGB"><feGaussianBlur stdDeviation=".161"/></filter><filter id="w" x="-.016" y="-.05" width="1.032" height="1.099" color-interpolation-filters="sRGB"><feGaussianBlur stdDeviation=".142"/></filter></defs><g stroke-width="1.14" fill-rule="evenodd"><g fill="url(#g)" transform="matrix(.91686 0 0 .83879 -13.23 5.488)"><path d="M38.542 26.165c-1.699-.05-3.426.37-4.995 1.024-.508.211-1.374.914-1.374.914l-.968-.835c-2.615-1.787-3.767-1.847-7.62-1.194-.836.296-.977.423-.942-.36.08-1.787 2.178-6.472 4.41-8.897 4.06-4.411 8.54-6.81 14.756-7.601.894-.114 1.713-.266 1.785-.34.073-.073.14-.498.216-.969.266-1.02.678-1.265 1.154-1.306.36.021.565.214.694.419.31.532.317 1.32.494 1.839.073.073.868.231 1.761.345 6.216.792 10.848 3.213 14.908 7.625 2.225 2.417 4.453 6.89 4.453 8.945 0 .512-.017.517-1.097.184-2.745-.846-6.567-.209-8.195 1.334l-.84.81s-.72-.697-1.157-.914c-1.212-.6-2.653-.933-3.912-.989-2.417-.106-4.626.66-7.085 1.69-3.122-1.21-4.223-1.658-6.446-1.724z"/><path d="M45.802 27.58l-.814.308-.787-.283v16.36m-.045 0h1.747m-1.89.014v3.582c.026 1.141-1.12 1.779-2.105 1.767-1.042-.012-1.759-.907-1.92-1.875-.08-.49.051-1.06-.465-1.465-.402-.26-1.173-.092-1.318.314-.157.408-.135.848-.088 1.264.219 1.017.488 1.993 1.53 2.867.938.786 2.356.87 3.516.602.77-.18 1.513-.712 1.984-1.401.587-.858.861-1.628.831-3.083v-2.572" fill="#666" opacity=".97"/><path d="M53.7 45.426c0-4.864.006-6.86.012-4.437.007 2.423.007 6.403 0 8.843-.006 2.44-.012.458-.012-4.406z" opacity=".83" paint-order="markers stroke fill"/></g><path d="M27.6 28.73l.417.152.406-.152.439-.106c.15 4.835.016 8.553 0 13.755h-1.64V28.61z" fill="#666" opacity=".97" paint-order="markers fill stroke"/><path d="M38.418 26.216c-1.676-.056-3.374.476-4.93 1.103-.503.203-1.308.768-1.308.768l-.373-.219c-2.325-1.925-3.7-2.674-8.332-1.73-.836.297-.868.188-.868-.328 0-2.076 2.22-6.564 4.452-9 4.06-4.432 8.763-6.854 14.978-7.65.894-.114 1.47-.242 1.542-.316.073-.074.195-.524.27-.997.135-.837.594-1.255 1.108-1.255s.866.418 1 1.255c.1.571.167.923.24.997.072.074.614.202 1.507.316 6.216.796 10.997 3.218 15.057 7.65 2.225 2.429 4.453 6.923 4.453 8.987 0 .515-.017.52-1.097.185-2.745-.85-6.666-.109-8.294 1.441l-.641.664s-.964-.811-1.473-1.015c-1.34-.535-2.819-.924-4.259-.856-2.24.105-2.721.117-6.463 1.673-3.343-1.571-4.31-1.598-6.57-1.673z" fill="url(#h)" transform="matrix(.91686 0 0 .83879 -13.23 5.488)"/></g><g stroke-width="1.049"><path d="M92.036-6.65l-.648.404c-.357.221-.885.734-1.172 1.138-.403.568-.46.843-.252 1.205.148.259.44.494.646.524.726.105 1.123-.486 1.276-1.889z" enable-background="new" fill="url(#i)" filter="url(#j)" transform="matrix(.95344 0 0 .95374 -55.64 12.132)"/><path d="M85.545-6.65l-.648.404c-.357.221-.885.734-1.172 1.138-.403.568-.46.843-.252 1.205.148.259.44.494.646.524.726.105 1.123-.486 1.276-1.889z" enable-background="new" fill="url(#k)" filter="url(#l)" transform="matrix(.95344 0 0 .95374 -55.64 12.132)"/><path d="M98.527-4.751l-.648.404c-.357.222-.885.735-1.172 1.139-.403.567-.46.842-.252 1.205.148.259.44.494.646.524.726.105 1.123-.486 1.276-1.89z" enable-background="new" fill="url(#m)" filter="url(#n)" transform="matrix(.95344 0 0 .95374 -55.64 12.132)"/><path d="M31.589 7.447l-.648.404c-.357.222-.885.734-1.172 1.139-.403.567-.46.842-.252 1.205.148.258.44.493.646.523.726.105 1.123-.486 1.276-1.889z" enable-background="new" fill="url(#o)" filter="url(#p)" transform="matrix(.95344 0 0 .95374 -10.384 .498)"/></g><g stroke-width="1.393"><path d="M23.314 14.548c-5.653 0-10.424 3.923-10.424 8.763 0 1.973 1.268 4.527 2.697 6.075-3.802 2.411-6.33 5.784-6.224 10.033.177 6.903 6.356 12.39 13.86 12.309 7.503-.082 13.54-5.702 13.54-12.607l-.016-.596c-.202-3.805-2.262-7.321-5.604-9.568 1.555-1.58 2.408-3.58 2.408-5.646 0-4.84-4.583-8.763-10.236-8.763z" fill="url(#q)" filter="url(#r)" opacity=".98" paint-order="markers stroke fill" transform="matrix(.78078 0 0 .6602 41.963 20.718)"/><g stroke-width="1.571"><path d="M58.92 36.98c-.2-.18-.227-.534-.227-.676 0-.4.535-.874 1.145-.862.547.01 1.125.445 1.125.948 0 .828-1.209 1.338-2.042.59zm1.411-.861c0-.18-.105-.271-.316-.271-.21 0-.316.09-.316.27 0 .181.105.271.316.271.21 0 .316-.09.316-.27z" fill="#bd392a"/><path d="M58.597 39.028c-.515-.218-.672-.361-.672-.613 0-.454.339-.522.968-.193.673.351 1.503.355 2.113.008.26-.148.6-.269.755-.27.418 0 .51.376.173.7-.71.683-2.207.848-3.337.368zm-1.383-3.645c-.714-.356-.386-1.619.42-1.619.737 0 1.008 1.161.362 1.549-.407.244-.43.246-.782.07zm4.318-.163c-.355-.336-.33-.913.055-1.242.38-.325.46-.33.913-.06.658.395.31 1.55-.467 1.55-.132 0-.357-.112-.5-.248zm-9.464-3.52c-.517-.444.01-1.056.908-1.056.287.052.561.007 1.027-.03.01-.663-.02-.407.054-2.017.088-1.912.392-2.254 1.271-3.022.238-.207.619-.26.953-.317 1.216-.211 3.72-.093 3.72-.093 4.526-.06 4.81.004 5.625.913.489.545.394.841.448 2.682l.054 1.884h.527c.83 0 1.329.631.833 1.055-.273.234-15.147.234-15.42 0z" fill="#324e5c"/></g><path d="M53.84 38.973c-.547 0-1.091.368-1.227.83-.11.374-.045.877.252 1.183.19.196.426.3.72.452l.487.261-.863 1.74c-.475.956-.864 1.905-.864 2.11 0 .505.291.93.743 1.087 1.07.37 1.584-.053 2.6-2.136 1.05-2.155.928-2.031 1.834-1.852.417.082 1.582.151 2.587.153 2.975.006 6.564-.895 7.059-1.788.275-.497.053-1.046-.563-1.392-.43-.241-.58-.233-2.268.218-2.093.56-3.9.753-5.54.592-1.564-.154-2.117-.303-3.461-.936-.61-.287-1.284-.523-1.496-.523z" fill="#bd392a"/></g><g stroke-width="1.606"><path d="M59 37.27c-.188-.182-.213-.537-.213-.68 0-.402.5-.88 1.067-.867.51.01 1.047.448 1.047.953 0 .833-1.125 1.347-1.902.594zm1.313-.867c0-.181-.098-.272-.294-.272-.197 0-.295.09-.295.272 0 .182.098.273.295.273.196 0 .294-.091.294-.273z" enable-background="new" fill="#bd392a"/><path transform="matrix(.71384 0 0 .66408 43.333 20.912)" d="M23.314 14.548c-5.653 0-10.424 3.923-10.424 8.763 0 1.973 1.268 4.527 2.697 6.075-3.802 2.411-6.248 5.918-6.1 10.344.178 6.903 6.232 12.079 13.735 11.998 7.504-.082 13.54-5.702 13.54-12.607l-.015-.596c-.201-3.805-2.261-7.321-5.604-9.568 1.555-1.58 2.408-3.58 2.408-5.646 0-4.84-4.583-8.763-10.236-8.763z" enable-background="new" fill="url(#s)" filter="url(#t)" opacity=".98" stroke="url(#u)" stroke-linecap="round" stroke-linejoin="round" stroke-width=".29" paint-order="markers stroke fill"/><path d="M54.412 39.274c-.51 0-1.017.37-1.143.835-.102.376-.042.883.235 1.19.177.198.397.303.67.455l.454.263-.804 1.75c-.442.961-.804 1.916-.804 2.122 0 .508.27.936.691 1.093.997.372 1.475-.052 2.421-2.148.978-2.168.864-2.043 1.708-1.863.389.083 1.473.152 2.409.154 2.77.006 6.113-.9 6.573-1.799.256-.5.05-1.052-.524-1.4-.4-.242-.54-.234-2.112.22-1.95.563-3.632.757-5.158.595-1.457-.155-1.972-.305-3.224-.941-.568-.29-1.195-.526-1.392-.526z" enable-background="new" fill="#bd392a"/><path d="M46.253 42.918l2.492 2.19-1.273-3.06m5.029 5.106l-3.756-2.045-3.146-.282m28.045-2.294l-2.492 2.19 1.273-3.06m-5.352 5.433l4.079-2.373 3.145-.28" enable-background="new" fill="none" stroke="#502d16" stroke-width="1"/><path d="M58.878 39.33c-.479-.22-.625-.364-.625-.617 0-.457.315-.525.901-.195.627.354 1.4.357 1.968.009.242-.149.559-.27.703-.271.388-.002.475.377.16.703-.66.687-2.054.853-3.107.37zm-1.384-3.667c-.664-.359-.359-1.628.392-1.628.686 0 .938 1.168.337 1.558-.379.245-.401.247-.729.07zm4.149-.164c-.33-.338-.307-.918.05-1.249.355-.328.43-.333.85-.06.614.397.29 1.558-.434 1.558-.122 0-.332-.112-.466-.25zm-8.844-3.541c-.482-.446.009-1.062.845-1.062.267.052.523.007.956-.03.01-.667-.019-.41.05-2.029.083-1.923.366-2.267 1.185-3.04.22-.208.576-.26.886-.319 1.133-.212 3.465-.093 3.465-.093 4.214-.06 4.42-.035 5.178.88.456.548.244.728.294 2.58l.05 1.894.674.157c.752.175 1.237.635.776 1.062-.254.235-14.105.235-14.359 0z" enable-background="new" fill="#324e5c"/><path transform="matrix(.54126 0 0 .53694 45.333 23.588)" d="M28.445 2.917c-2.376.016-4.848-.393-7.122.298-1.241.377-2.546.988-3.321 2.03-.436.585-1.085 1.61-.559 2.116.665.64 1.739-.64 2.645-.812.485-.093 1.003-.257 1.477-.117.552.163.945.663 1.37 1.05.58.528.815 1.75 1.596 1.723 1.164-.044 1.339-1.923 2.176-2.732.343-.332.673-.838 1.15-.854.543-.018.827.905 1.37.883.86-.035 1.19-1.543 2.052-1.57.822-.027 1.233 1.44 2.053 1.37.493-.04.722-.678 1.08-1.02.437-.42 1.453-.68 1.304-1.266-.3-1.183-2.317-.807-3.523-.991-1.236-.19-2.498-.116-3.748-.108z" enable-background="new" fill="url(#v)" filter="url(#w)" opacity=".97" stroke="url(#x)" stroke-width="1.855"/></g><path d="M58.955 37.215c-.227-.207-.257-.61-.257-.773 0-.457.603-1 1.29-.985.614.012 1.264.508 1.264 1.083 0 .946-1.36 1.53-2.297.675zm1.586-.985c0-.206-.118-.31-.355-.31s-.356.104-.356.31.119.31.356.31.355-.104.355-.31z" enable-background="new" fill="#bd392a"/></svg>