<svg width="80" height="60" enable-background="new" viewBox="0 0 80 60" xmlns="http://www.w3.org/2000/svg" xmlns:xlink="http://www.w3.org/1999/xlink"><defs><linearGradient id="o" x1="-81.649" x2="-36.7" y1="-3.519" y2="-3.519" gradientUnits="userSpaceOnUse" xlink:href="#b"/><linearGradient id="c"><stop stop-color="#3c98f8" offset="0"/><stop stop-color="#3c98f8" stop-opacity="0" offset="1"/></linearGradient><linearGradient id="d"><stop stop-color="#0098cd" offset="0"/><stop stop-color="#0098cd" stop-opacity="0" offset="1"/></linearGradient><linearGradient id="a"><stop stop-color="#0015b6" offset="0"/><stop stop-color="#00ffdf" offset="1"/></linearGradient><linearGradient id="t" x1="-81.649" x2="-36.7" y1="-3.519" y2="-3.519" gradientTransform="translate(0 -.304)" gradientUnits="userSpaceOnUse" xlink:href="#b"/><linearGradient id="q" x1="-81.649" x2="-36.7" y1="-3.519" y2="-3.519" gradientTransform="matrix(1.1209 0 0 1.1636 100.7 36.429)" gradientUnits="userSpaceOnUse" xlink:href="#b"/><linearGradient id="p" x1="-81.649" x2="-36.7" y1="-3.519" y2="-3.519" gradientUnits="userSpaceOnUse"><stop stop-color="#04a" stop-opacity="0" offset="0"/><stop stop-opacity="0" offset="1"/></linearGradient><linearGradient id="b"><stop stop-color="#ccc" offset="0"/><stop stop-color="#fff" stop-opacity=".937" offset="1"/></linearGradient><linearGradient id="k" x1="-81.335" x2="-76.614" y1="-44.867" y2="1.45" gradientTransform="translate(-.048 3.83)" gradientUnits="userSpaceOnUse" xlink:href="#c"/><linearGradient id="n" x1="-81.335" x2="-76.614" y1="-44.867" y2="1.45" gradientTransform="translate(-.057 4.596)" gradientUnits="userSpaceOnUse" xlink:href="#c"/><linearGradient id="e" x1="23.624" x2="61.528" y1="18.284" y2="1.882" gradientTransform="rotate(-44.644 58.876 22.872)" gradientUnits="userSpaceOnUse" xlink:href="#a"/><linearGradient id="i" x1="-83.375" x2="-82.475" y1="-34.375" y2="-34.375" gradientTransform="translate(-22.209 -10.771) scale(.75726)" gradientUnits="userSpaceOnUse" xlink:href="#d"/><linearGradient id="g" x1="-98.825" x2="-97.925" y1="-23.063" y2="-23.063" gradientTransform="translate(-5)" gradientUnits="userSpaceOnUse" xlink:href="#d"/><linearGradient id="j" x1="-67.925" x2="-66.644" y1="-27.441" y2="-27.441" gradientTransform="matrix(.65607 0 0 .56697 -49.969 -15.386)" gradientUnits="userSpaceOnUse" xlink:href="#d"/><linearGradient id="l" x1="-83.375" x2="-82.475" y1="-34.375" y2="-34.375" gradientTransform="translate(-13.024 -10.771) scale(.75726)" gradientUnits="userSpaceOnUse" xlink:href="#d"/><linearGradient id="m" x1="-67.925" x2="-66.644" y1="-27.441" y2="-27.441" gradientTransform="matrix(.65607 0 0 .56697 -22.424 -14.619)" gradientUnits="userSpaceOnUse" xlink:href="#d"/><linearGradient id="h" x1="-60.2" x2="-59.3" y1="-23.063" y2="-23.063" gradientTransform="translate(2.3)" gradientUnits="userSpaceOnUse" xlink:href="#d"/><linearGradient id="f" x1="-81.335" x2="-76.614" y1="-44.867" y2="1.45" gradientUnits="userSpaceOnUse" xlink:href="#c"/><filter id="u" x="-.015" y="-.06" width="1.03" height="1.119" color-interpolation-filters="sRGB"><feGaussianBlur stdDeviation=".166"/></filter><filter id="s" x="-.009" y="-.043" width="1.018" height="1.086" color-interpolation-filters="sRGB"><feGaussianBlur stdDeviation=".166"/></filter><filter id="r" x="-.017" y="-.052" width="1.034" height="1.104" color-interpolation-filters="sRGB"><feGaussianBlur stdDeviation=".166"/></filter></defs><path d="M71.655 43.858c-3.177-3.217-4.478-4.54-2.89-2.943 1.587 1.598 4.187 4.23 5.776 5.849 1.59 1.618.291.31-2.886-2.906z" fill="#868686" fill-rule="evenodd" opacity=".83" paint-order="markers stroke fill"/><g fill-rule="evenodd"><path d="M55.367 43.482L45.323 33.68c.082-.08-.677.676-.759.756l9.955 9.875.848-.828m-.91.906l2.179 2.18c.572.573.382 1.52-.12 2.098-.669.693-1.417.73-2.162.32-.63-.347-.633-.78-1.135-.775-.358.04-.69.564-.517.88.169.324.495.53.77.76.725.51 1.771.743 2.6.487.781-.3 1.557-.904 1.871-1.678.189-.453.357-1.112.29-1.565-.196-.853-.403-1.293-1.297-2.159l-1.501-1.502m0 0l-.977.954" fill="#4d4d4d"/><path d="M49.448 39.465l-4.959-4.963c.272-.067.547-.118.834-.181.042-.296.128-.758.128-.758l4.994 4.998 4.958 4.963-.962.939z" fill="#4d4d4d" opacity=".83" paint-order="markers stroke fill"/><path transform="translate(-7.19 -1.99)" d="M65.566 19.07c-.057-.02-.402.125-.402.125-1.576.812-6.85 3.127-9.9 2.981-5.567-.265-6.954-.68-11.125.149-1.043.207-2.888 1.126-2.985 1.125-.096-.002-.47-.219-.828-.48-.632-.464-1.1-.543-1.369-.278l-.072.07c-.269.265-.264.805.191 1.444.258.36.469.737.469.834 0 .096-1.203 1.577-1.46 2.511-1.205 4.359-.182 6.497.015 12.066.108 3.061-3.148 8.656-3.53 9.924-.196.654.458.286.817-.455 2.06-4.825 5.968-4.298 8.342-4.266l.412.012s-.087-1.077.123-1.535c-.004-1.52.323-4.19 1.487-5.241 2.178-1.89 5.309-.595 7.368-1.168.593-1.99.106-5.502 1.594-6.997 1.62-1.296 3.712-1.05 4.742-1.319l1.063-.187.06-.785c.069-2.084-2.325-5.083 3.98-7.566.699-.363 1.178-.905 1.008-.964z" fill="url(#e)"/></g><g stroke-linecap="round" transform="matrix(.68091 -.73187 .67576 .6287 27.799 -31.697)" opacity=".98" stroke="url(#f)" stroke-dasharray="1.87392578, 1.87392578" stroke-width=".937"><path d="M-103.37-44.375V-1.75" fill="url(#g)" transform="matrix(.99974 .02448 -.02087 .99974 43.02 80.219)"/><path d="M-57.45-44.375V-1.75" fill="url(#h)" transform="matrix(.99974 .02448 -.02087 .99974 43.02 80.219)"/><path d="M-85.005-44.375v15.145" fill="url(#i)" transform="matrix(.99974 .02448 -.02087 .99974 43.02 80.219)"/><path d="M-94.238-40.546v19.206" fill="url(#j)" stroke="url(#k)" transform="matrix(.99974 .02448 -.02087 .99974 43.02 80.219)"/><path d="M-75.82-44.375v15.145" fill="url(#l)" transform="matrix(.99974 .02448 -.02087 .99974 43.02 80.219)"/><path d="M-66.692-39.779v19.206" fill="url(#m)" stroke="url(#n)" transform="matrix(.99974 .02448 -.02087 .99974 43.02 80.219)"/></g><g stroke-linecap="round" stroke-linejoin="round" transform="matrix(1.1034 0 0 1.1308 107.41 34.369)" fill="url(#o)" stroke="url(#p)" stroke-width=".448"><path transform="matrix(.89212 0 0 .85939 -89.84 -31.594)" d="M36.595 19.817c-.53.272-1.024.734-1.232 1.291-.294.788-.393 1.576.119 2.522.502.926.46-1.855 1.2-2.3 1.009-.607 2.605-.704 3.53.023.84.66 1.016 2.064.78 3.104-.207.911-.992 1.705-1.788 2.157-1.701.963-2.755.79-5.738.813l-4.73.038c-1.854.015-4.694.103-6.38.248-3.619.31-5.846.537-5.846.537h16.73s4.045.288 5.924-.42c1.008-.38 2.057-.99 2.674-1.978.503-.804.71-1.899.629-2.877-.063-.755-.348-1.538-.847-2.108-.628-.716-1.552-1.228-2.488-1.406a4.049 4.049 0 00-2.537.356z" fill="url(#q)" filter="url(#r)" stroke="url(#q)" stroke-width=".511"/><path transform="matrix(.89212 0 0 .85939 -91.892 -31.307)" d="M54.229 21.955c-1.052.063-2.223.58-2.829 1.492-.732 1.104-1.123 2.878-.443 4.02.564.947 1.921 1.417 3.005 1.088.872-.265-.525-.466-.816-.655-.37-.24-.893-.251-1.17-.604-.37-.47-.54-1.161-.466-1.768.082-.676.486-1.321.974-1.766.51-.466 1.202-.786 1.876-.797a4.12 4.12 0 012.783 1.071c.512.473.797 1.208.948 1.91.171.798.18 1.686-.084 2.456-.3.875-.806 1.634-1.619 2.208-1.11.783-2.825 1.086-2.825 1.086l-9.191.178-14.441.121-13.932.32-6.37.388s28.805.623 42.17.162c1.68-.058 3.588 0 4.989-1.004 1.252-.898 2.235-2.463 2.438-4.049.195-1.531-.284-3.31-1.291-4.43-1.117-.914-2.393-1.506-3.706-1.427z" fill="url(#q)" filter="url(#s)" opacity=".93" stroke="url(#q)" stroke-width=".511"/><path d="M-77.076 1.052L-58.295.75c.558-.01 2.504-.12 3.754-.05 1.264.07 2.863.367 3.51 1.475.674 1.154.421 2.97-.418 4.006-.713.88-2.152 1.365-3.212 1-.804-.278-1.45-1.248-1.48-2.11-.037-1.026.585-1.492 1.373-1.75.344-.114 1.084.064 1.084.064s-1.063.247-1.427.62a1.155 1.155 0 00-.311.756c-.009.37.12.78.374 1.045.301.312.774.439 1.203.474.42.035.869-.06 1.24-.266.328-.183.6-.486.788-.816a2.7 2.7 0 00.352-1.295 2.574 2.574 0 00-.336-1.286 2.394 2.394 0 00-.87-.843c-.51-.295-1.115-.393-1.696-.48-1.05-.156-3.183-.066-3.183-.066l-6.032.095-7.787.02z" fill="url(#t)" filter="url(#u)" stroke="url(#t)"/></g></svg>