<svg width="80" height="60" enable-background="new" viewBox="0 0 80 60" xmlns="http://www.w3.org/2000/svg" xmlns:xlink="http://www.w3.org/1999/xlink"><defs><linearGradient id="i" x1="16.95" x2="36.026" y1="6.005" y2="6.005" gradientUnits="userSpaceOnUse" xlink:href="#a"/><linearGradient id="c"><stop stop-color="#e6e6e6" offset="0"/><stop stop-color="#939393" offset="1"/></linearGradient><linearGradient id="g" x1="51.162" x2="73.325" y1="32.759" y2="32.759" gradientTransform="matrix(.99527 0 0 .94146 -32.407 -24.589)" gradientUnits="userSpaceOnUse" xlink:href="#b"/><linearGradient id="b"><stop stop-color="#fff" offset="0"/><stop stop-color="#898789" offset="1"/></linearGradient><linearGradient id="f" x1="8.974" x2="37.147" y1="33.139" y2="33.139" gradientUnits="userSpaceOnUse" xlink:href="#c"/><linearGradient id="a"><stop stop-color="#f9f9f9" offset="0"/><stop stop-color="#a1a1a2" offset="1"/></linearGradient><linearGradient id="d" x1="17.903" x2="37.862" y1="26.492" y2="29.941" gradientUnits="userSpaceOnUse" xlink:href="#a"/><filter id="e" x="-.014" y="-.01" width="1.028" height="1.021" color-interpolation-filters="sRGB"><feGaussianBlur stdDeviation=".161"/></filter><filter id="h" x="-.016" y="-.05" width="1.032" height="1.099" color-interpolation-filters="sRGB"><feGaussianBlur stdDeviation=".142"/></filter></defs><path d="M38.433 25.215c-.3-.292-.34-.863-.34-1.093 0-.644.8-1.412 1.713-1.392.817.018 1.681.72 1.681 1.531 0 1.338-1.807 2.162-3.054.954zm2.11-1.392c0-.291-.158-.437-.473-.437-.315 0-.473.146-.473.437 0 .292.158.438.473.438.315 0 .472-.146.472-.438z" enable-background="new" fill="#bd392a"/><path transform="matrix(1.1463 0 0 1.0664 13.275 -1.053)" d="M23.314 14.548c-5.653 0-10.424 3.923-10.424 8.763 0 1.973 1.268 4.527 2.697 6.075-3.802 2.411-6.248 5.918-6.1 10.344.178 6.903 6.232 12.079 13.735 11.998 7.504-.082 13.54-5.702 13.54-12.607l-.015-.596c-.201-3.805-2.261-7.321-5.604-9.568 1.555-1.58 2.408-3.58 2.408-5.646 0-4.84-4.583-8.763-10.236-8.763z" enable-background="new" fill="url(#d)" filter="url(#e)" opacity=".98" stroke="url(#f)" stroke-linecap="round" stroke-linejoin="round" stroke-width=".181" paint-order="markers stroke fill"/><path d="M31.066 28.433c-.818 0-1.632.595-1.835 1.34-.164.605-.067 1.418.377 1.913.285.316.637.485 1.075.73l.73.422-1.291 2.809c-.71 1.545-1.291 3.079-1.291 3.408 0 .816.435 1.504 1.11 1.756 1.601.597 2.369-.084 3.888-3.45 1.57-3.48 1.388-3.28 2.742-2.992.625.134 2.366.245 3.869.248 4.448.01 9.816-1.446 10.555-2.888.41-.803.079-1.69-.841-2.248-.644-.39-.868-.377-3.392.352-3.13.904-5.832 1.216-8.283.956-2.34-.248-3.167-.49-5.177-1.512-.912-.464-1.919-.844-2.236-.844z" enable-background="new" fill="#bd392a"/><path d="M17.964 34.285l4.003 3.518-2.045-4.915m8.075 8.198l-6.031-3.283-5.052-.452m45.036-3.685l-4.003 3.519 2.045-4.915m-8.594 8.723l6.55-3.81 5.051-.45" enable-background="new" fill="none" stroke="#502d16"/><path d="M38.238 28.522c-.769-.352-1.004-.584-1.004-.99 0-.734.506-.843 1.447-.312 1.007.567 2.247.573 3.16.013.39-.238.898-.435 1.13-.435.623-.003.762.605.257 1.13-1.061 1.102-3.3 1.369-4.99.594zm-2.222-5.887c-1.067-.576-.577-2.615.629-2.615 1.101 0 1.507 1.875.54 2.501-.607.394-.643.398-1.169.114zm6.662-.265c-.53-.542-.493-1.473.081-2.005.57-.526.69-.534 1.365-.096.985.638.466 2.501-.697 2.501-.197 0-.534-.18-.75-.4zm-14.202-5.686c-.774-.715.014-1.705 1.357-1.705.43.084.84.012 1.536-.049.015-1.07-.031-.656.08-3.257.132-3.088.587-3.64 1.902-4.881.355-.335.925-.419 1.424-.512 1.818-.341 5.564-.15 5.564-.15 6.767-.098 7.096-.056 8.315 1.412.731.88.392 1.17.472 4.143l.081 3.042 1.08.252c1.21.282 1.988 1.02 1.247 1.705-.408.378-22.65.378-23.058 0z" enable-background="new" fill="#324e5c"/><path transform="matrix(.86917 0 0 .86224 16.487 3.245)" d="M28.445 2.917c-2.376.016-4.848-.393-7.122.298-1.241.377-2.546.988-3.321 2.03-.436.585-1.085 1.61-.559 2.116.665.64 1.739-.64 2.645-.812.485-.093 1.003-.257 1.477-.117.552.163.945.663 1.37 1.05.58.528.815 1.75 1.596 1.723 1.164-.044 1.339-1.923 2.176-2.732.343-.332.673-.838 1.15-.854.543-.018.827.905 1.37.883.86-.035 1.19-1.543 2.052-1.57.822-.027 1.233 1.44 2.053 1.37.493-.04.722-.678 1.08-1.02.437-.42 1.453-.68 1.304-1.266-.3-1.183-2.317-.807-3.523-.991-1.236-.19-2.498-.116-3.748-.108z" enable-background="new" fill="url(#g)" filter="url(#h)" opacity=".97" stroke="url(#i)" stroke-width="1.155"/><path d="M38.361 25.126c-.363-.331-.411-.98-.411-1.241 0-.733.967-1.605 2.07-1.582.987.02 2.03.817 2.03 1.74 0 1.519-2.183 2.456-3.69 1.083zm2.548-1.581c0-.331-.19-.497-.57-.497-.381 0-.572.166-.572.497s.19.497.571.497.571-.166.571-.497z" enable-background="new" fill="#bd392a"/></svg>