<svg width="80" height="60" enable-background="new" viewBox="0 0 80 60" xmlns="http://www.w3.org/2000/svg" xmlns:xlink="http://www.w3.org/1999/xlink"><defs><linearGradient id="e"><stop stop-color="#e6e6e6" offset="0"/><stop stop-color="#939393" offset="1"/></linearGradient><linearGradient id="o" x1="28.403" x2="32.166" y1="7.993" y2="9.319" gradientTransform="translate(-.99 .228)" gradientUnits="userSpaceOnUse" xlink:href="#a"/><linearGradient id="f"><stop stop-color="#08a" offset="0"/><stop stop-color="#08a" stop-opacity="0" offset="1"/></linearGradient><linearGradient id="b"><stop stop-color="#0015b6" offset="0"/><stop stop-color="#00ffdf" offset="1"/></linearGradient><linearGradient id="v" x1="16.95" x2="36.026" y1="6.005" y2="6.005" gradientUnits="userSpaceOnUse" xlink:href="#c"/><linearGradient id="t" x1="51.162" x2="73.325" y1="32.759" y2="32.759" gradientTransform="matrix(.99527 0 0 .94146 -32.407 -24.589)" gradientUnits="userSpaceOnUse" xlink:href="#d"/><linearGradient id="d"><stop stop-color="#fff" offset="0"/><stop stop-color="#898789" offset="1"/></linearGradient><linearGradient id="s" x1="8.974" x2="37.147" y1="33.139" y2="33.139" gradientUnits="userSpaceOnUse" xlink:href="#e"/><linearGradient id="c"><stop stop-color="#f9f9f9" offset="0"/><stop stop-color="#a1a1a2" offset="1"/></linearGradient><linearGradient id="h" x1="22.607" x2="67.214" y1="17.34" y2="17.34" gradientUnits="userSpaceOnUse" xlink:href="#f"/><linearGradient id="q" x1="17.903" x2="37.862" y1="26.492" y2="29.941" gradientUnits="userSpaceOnUse" xlink:href="#c"/><linearGradient id="g" x1="22.107" x2="58.052" y1="30.016" y2="14.106" gradientUnits="userSpaceOnUse" xlink:href="#b"/><linearGradient id="m" x1="28.403" x2="32.166" y1="7.993" y2="9.319" gradientTransform="translate(65.948 -11.969)" gradientUnits="userSpaceOnUse" xlink:href="#a"/><linearGradient id="k" x1="28.403" x2="32.166" y1="7.993" y2="9.319" gradientTransform="translate(52.965 -13.869)" gradientUnits="userSpaceOnUse" xlink:href="#a"/><linearGradient id="i" x1="28.403" x2="32.166" y1="7.993" y2="9.319" gradientTransform="translate(59.456 -13.869)" gradientUnits="userSpaceOnUse" xlink:href="#a"/><linearGradient id="a"><stop stop-color="#00f" offset="0"/><stop stop-color="#0ff" offset="1"/></linearGradient><filter id="j" color-interpolation-filters="sRGB"><feComponentTransfer result="component"><feFuncR amplitude="2" exponent="2" offset="-.7" type="gamma"/><feFuncG amplitude="2" exponent="2" offset="-.7" type="gamma"/><feFuncB amplitude="2" exponent="2" offset="-.7" type="gamma"/></feComponentTransfer></filter><filter id="l" color-interpolation-filters="sRGB"><feComponentTransfer result="component"><feFuncR amplitude="2" exponent="2" offset="-.7" type="gamma"/><feFuncG amplitude="2" exponent="2" offset="-.7" type="gamma"/><feFuncB amplitude="2" exponent="2" offset="-.7" type="gamma"/></feComponentTransfer></filter><filter id="n" color-interpolation-filters="sRGB"><feComponentTransfer result="component"><feFuncR amplitude="2" exponent="2" offset="-.7" type="gamma"/><feFuncG amplitude="2" exponent="2" offset="-.7" type="gamma"/><feFuncB amplitude="2" exponent="2" offset="-.7" type="gamma"/></feComponentTransfer></filter><filter id="p" color-interpolation-filters="sRGB"><feComponentTransfer result="component"><feFuncR amplitude="2" exponent="2" offset="-.7" type="gamma"/><feFuncG amplitude="2" exponent="2" offset="-.7" type="gamma"/><feFuncB amplitude="2" exponent="2" offset="-.7" type="gamma"/></feComponentTransfer></filter><filter id="r" x="-.014" y="-.01" width="1.028" height="1.021" color-interpolation-filters="sRGB"><feGaussianBlur stdDeviation=".161"/></filter><filter id="u" x="-.016" y="-.05" width="1.032" height="1.099" color-interpolation-filters="sRGB"><feGaussianBlur stdDeviation=".142"/></filter></defs><g stroke-width="1.729" fill-rule="evenodd"><g fill="url(#g)" transform="matrix(.60346 0 0 .55422 32.975 25.738)"><path d="M38.542 26.165c-1.699-.05-3.426.37-4.995 1.024-.508.211-1.374.914-1.374.914l-.968-.835c-2.615-1.787-3.767-1.847-7.62-1.194-.836.296-.977.423-.942-.36.08-1.787 2.178-6.472 4.41-8.897 4.06-4.411 8.54-6.81 14.756-7.601.894-.114 1.713-.266 1.785-.34.073-.073.14-.498.216-.969.266-1.02.678-1.265 1.154-1.306.36.021.565.214.694.419.31.532.317 1.32.494 1.839.073.073.868.231 1.761.345 6.216.792 10.848 3.213 14.908 7.625 2.225 2.417 4.453 6.89 4.453 8.945 0 .512-.017.517-1.097.184-2.745-.846-6.567-.209-8.195 1.334l-.84.81s-.72-.697-1.157-.914c-1.212-.6-2.653-.933-3.912-.989-2.417-.106-4.626.66-7.085 1.69-3.122-1.21-4.223-1.658-6.446-1.724z"/><path d="M45.802 27.58l-.814.308-.787-.283v16.36m-.045 0h1.747m-1.89.014v3.582c.026 1.141-1.12 1.779-2.105 1.767-1.042-.012-1.759-.907-1.92-1.875-.08-.49.051-1.06-.465-1.465-.402-.26-1.173-.092-1.318.314-.157.408-.135.848-.088 1.264.219 1.017.488 1.993 1.53 2.867.938.786 2.356.87 3.516.602.77-.18 1.513-.712 1.984-1.401.587-.858.861-1.628.831-3.083v-2.572" fill="#666" opacity=".97"/><path d="M53.7 45.426c0-4.864.006-6.86.012-4.437.007 2.423.007 6.403 0 8.843-.006 2.44-.012.458-.012-4.406z" opacity=".83" paint-order="markers stroke fill"/></g><path d="M59.85 41.095l.273.1.268-.1.288-.07c.1 3.195.011 5.651 0 9.088H59.6v-9.097z" fill="#666" opacity=".97" paint-order="markers fill stroke"/><path d="M38.418 26.216c-1.676-.056-3.374.476-4.93 1.103-.503.203-1.308.768-1.308.768l-.373-.219c-2.325-1.925-3.7-2.674-8.332-1.73-.836.297-.868.188-.868-.328 0-2.076 2.22-6.564 4.452-9 4.06-4.432 8.763-6.854 14.978-7.65.894-.114 1.47-.242 1.542-.316.073-.074.195-.524.27-.997.135-.837.594-1.255 1.108-1.255s.866.418 1 1.255c.1.571.167.923.24.997.072.074.614.202 1.507.316 6.216.796 10.997 3.218 15.057 7.65 2.225 2.429 4.453 6.923 4.453 8.987 0 .515-.017.52-1.097.185-2.745-.85-6.666-.109-8.294 1.441l-.641.664s-.964-.811-1.473-1.015c-1.34-.535-2.819-.924-4.259-.856-2.24.105-2.721.117-6.463 1.673-3.343-1.571-4.31-1.598-6.57-1.673z" fill="url(#h)" transform="matrix(.60346 0 0 .55422 32.975 25.738)"/></g><g stroke-width="1.59"><path d="M92.036-6.65l-.648.404c-.357.221-.885.734-1.172 1.138-.403.568-.46.843-.252 1.205.148.259.44.494.646.524.726.105 1.123-.486 1.276-1.889z" enable-background="new" fill="url(#i)" filter="url(#j)" transform="matrix(.62754 0 0 .63018 5.062 30.128)"/><path d="M85.545-6.65l-.648.404c-.357.221-.885.734-1.172 1.138-.403.568-.46.843-.252 1.205.148.259.44.494.646.524.726.105 1.123-.486 1.276-1.889z" enable-background="new" fill="url(#k)" filter="url(#l)" transform="matrix(.62754 0 0 .63018 5.062 30.128)"/><path d="M98.527-4.751l-.648.404c-.357.222-.885.735-1.172 1.139-.403.567-.46.842-.252 1.205.148.259.44.494.646.524.726.105 1.123-.486 1.276-1.89z" enable-background="new" fill="url(#m)" filter="url(#n)" transform="matrix(.62754 0 0 .63018 5.062 30.128)"/><path d="M31.589 7.447l-.648.404c-.357.222-.885.734-1.172 1.139-.403.567-.46.842-.252 1.205.148.258.44.493.646.523.726.105 1.123-.486 1.276-1.889z" enable-background="new" fill="url(#o)" filter="url(#p)" transform="matrix(.62754 0 0 .63018 34.848 22.441)"/></g><g stroke-width=".997"><path d="M23.75 24.306c-.3-.293-.34-.865-.34-1.096 0-.646.802-1.415 1.717-1.396.82.018 1.686.722 1.686 1.536 0 1.34-1.812 2.168-3.062.956zm2.116-1.395c0-.293-.158-.439-.474-.439-.316 0-.474.146-.474.439 0 .292.158.438.474.438.316 0 .474-.146.474-.438z" enable-background="new" fill="#bd392a"/><path transform="matrix(1.1494 0 0 1.0693 -1.475 -2.033)" d="M23.314 14.548c-5.653 0-10.424 3.923-10.424 8.763 0 1.973 1.268 4.527 2.697 6.075-3.802 2.411-6.248 5.918-6.1 10.344.178 6.903 6.232 12.079 13.735 11.998 7.504-.082 13.54-5.702 13.54-12.607l-.015-.596c-.201-3.805-2.261-7.321-5.604-9.568 1.555-1.58 2.408-3.58 2.408-5.646 0-4.84-4.583-8.763-10.236-8.763z" enable-background="new" fill="url(#q)" filter="url(#r)" opacity=".98" stroke="url(#s)" stroke-linecap="round" stroke-linejoin="round" stroke-width=".18" paint-order="markers stroke fill"/><path d="M16.364 27.533c-.82 0-1.637.596-1.84 1.344-.164.606-.067 1.421.378 1.917.286.317.639.486 1.078.732l.732.423-1.295 2.817c-.712 1.549-1.294 3.087-1.294 3.417 0 .818.436 1.509 1.113 1.761 1.605.599 2.375-.084 3.898-3.46 1.575-3.489 1.392-3.289 2.75-3 .626.135 2.372.246 3.879.25 4.46.009 9.842-1.45 10.583-2.897.413-.804.08-1.694-.843-2.254-.645-.39-.87-.377-3.4.353-3.14.907-5.849 1.22-8.306.959-2.347-.249-3.176-.491-5.19-1.516-.916-.465-1.925-.846-2.243-.846z" enable-background="new" fill="#bd392a"/><path d="M3.227 33.4l4.013 3.528L5.19 32m8.096 8.22L7.24 36.928l-5.065-.453m45.156-3.695l-4.013 3.528 2.05-4.928m-8.617 8.747l6.567-3.82 5.065-.452" enable-background="new" fill="none" stroke="#502d16" stroke-width="1"/><path d="M23.555 27.622c-.77-.353-1.007-.586-1.007-.993 0-.736.508-.845 1.452-.313 1.01.57 2.253.575 3.168.014.39-.24.9-.436 1.132-.437.626-.002.765.607.259 1.133-1.064 1.105-3.309 1.373-5.004.596zm-2.227-5.903c-1.07-.578-.58-2.623.63-2.623 1.104 0 1.51 1.881.542 2.509-.61.395-.645.399-1.172.114zm6.679-.265c-.532-.544-.494-1.478.082-2.01.57-.528.69-.537 1.368-.098.988.64.467 2.509-.699 2.509-.197 0-.535-.18-.75-.401zm-14.24-5.702c-.776-.717.014-1.71 1.361-1.71.43.084.841.012 1.54-.049.015-1.073-.031-.658.08-3.266.132-3.096.588-3.65 1.907-4.894.356-.336.927-.42 1.428-.514 1.823-.341 5.58-.15 5.58-.15 6.784-.098 7.115-.056 8.336 1.416.734.883.393 1.173.473 4.154l.082 3.05 1.084.253c1.212.283 1.992 1.023 1.25 1.71-.41.38-22.712.38-23.12 0z" enable-background="new" fill="#324e5c"/><path transform="matrix(.87152 0 0 .86457 1.746 2.276)" d="M28.445 2.917c-2.376.016-4.848-.393-7.122.298-1.241.377-2.546.988-3.321 2.03-.436.585-1.085 1.61-.559 2.116.665.64 1.739-.64 2.645-.812.485-.093 1.003-.257 1.477-.117.552.163.945.663 1.37 1.05.58.528.815 1.75 1.596 1.723 1.164-.044 1.339-1.923 2.176-2.732.343-.332.673-.838 1.15-.854.543-.018.827.905 1.37.883.86-.035 1.19-1.543 2.052-1.57.822-.027 1.233 1.44 2.053 1.37.493-.04.722-.678 1.08-1.02.437-.42 1.453-.68 1.304-1.266-.3-1.183-2.317-.807-3.523-.991-1.236-.19-2.498-.116-3.748-.108z" enable-background="new" fill="url(#t)" filter="url(#u)" opacity=".97" stroke="url(#v)" stroke-width="1.152"/></g><path d="M23.679 24.217c-.365-.333-.413-.983-.413-1.245 0-.735.97-1.609 2.075-1.586.99.02 2.037.82 2.037 1.744 0 1.524-2.19 2.463-3.7 1.087zm2.555-1.586c0-.332-.191-.498-.573-.498-.381 0-.572.166-.572.498s.19.498.572.498.573-.166.573-.498z" enable-background="new" fill="#bd392a"/></svg>