<svg width="80" height="60" enable-background="new" viewBox="0 0 80 60" xmlns="http://www.w3.org/2000/svg" xmlns:xlink="http://www.w3.org/1999/xlink"><defs><filter id="f" x="-.013" y="-.011" width="1.026" height="1.023" color-interpolation-filters="sRGB"><feGaussianBlur stdDeviation=".191"/></filter><filter id="C" x="-.381" y="-.387" width="1.762" height="1.774" color-interpolation-filters="sRGB"><feGaussianBlur result="fbSourceGraphic" stdDeviation=".604"/><feColorMatrix in="fbSourceGraphic" result="fbSourceGraphicAlpha" values="0 0 0 -1 0 0 0 0 -1 0 0 0 0 -1 0 0 0 0 1 0"/><feConvolveMatrix divisor="1" in="fbSourceGraphic" kernelMatrix="0 -0.15 0 -0.15 1.6 -0.15 0 -0.15 0" order="3 3" result="fbSourceGraphic" targetX="1" targetY="1"/><feColorMatrix in="fbSourceGraphic" result="fbSourceGraphicAlpha" values="0 0 0 -1 0 0 0 0 -1 0 0 0 0 -1 0 0 0 0 1 0"/><feGaussianBlur in="fbSourceGraphic" result="result3" stdDeviation="5"/><feColorMatrix result="result7" values="1 0 0 0 0 0 1 0 0 0 0 0 1 0 0 0 0 0 50 0"/><feComposite in2="fbSourceGraphic" operator="in" result="result9"/><feComposite in="result9" in2="result7" k1=".5" k3=".5" operator="arithmetic" result="result1"/><feBlend in="fbSourceGraphic" in2="result1" mode="screen" result="result5"/><feBlend in="result5" in2="result5" mode="darken" result="result6"/><feComposite in2="fbSourceGraphic" operator="in" result="result8"/></filter><filter id="x" x="-.381" y="-.387" width="1.762" height="1.774" color-interpolation-filters="sRGB"><feGaussianBlur result="fbSourceGraphic" stdDeviation=".604"/><feColorMatrix in="fbSourceGraphic" result="fbSourceGraphicAlpha" values="0 0 0 -1 0 0 0 0 -1 0 0 0 0 -1 0 0 0 0 1 0"/><feConvolveMatrix divisor="1" in="fbSourceGraphic" kernelMatrix="0 -0.15 0 -0.15 1.6 -0.15 0 -0.15 0" order="3 3" result="fbSourceGraphic" targetX="1" targetY="1"/><feColorMatrix in="fbSourceGraphic" result="fbSourceGraphicAlpha" values="0 0 0 -1 0 0 0 0 -1 0 0 0 0 -1 0 0 0 0 1 0"/><feGaussianBlur in="fbSourceGraphic" result="result3" stdDeviation="5"/><feColorMatrix result="result7" values="1 0 0 0 0 0 1 0 0 0 0 0 1 0 0 0 0 0 50 0"/><feComposite in2="fbSourceGraphic" operator="in" result="result9"/><feComposite in="result9" in2="result7" k1=".5" k3=".5" operator="arithmetic" result="result1"/><feBlend in="fbSourceGraphic" in2="result1" mode="screen" result="result5"/><feBlend in="result5" in2="result5" mode="darken" result="result6"/><feComposite in2="fbSourceGraphic" operator="in" result="result8"/></filter><filter id="w" x="-.381" y="-.387" width="1.762" height="1.774" color-interpolation-filters="sRGB"><feGaussianBlur result="fbSourceGraphic" stdDeviation=".604"/><feColorMatrix in="fbSourceGraphic" result="fbSourceGraphicAlpha" values="0 0 0 -1 0 0 0 0 -1 0 0 0 0 -1 0 0 0 0 1 0"/><feConvolveMatrix divisor="1" in="fbSourceGraphic" kernelMatrix="0 -0.15 0 -0.15 1.6 -0.15 0 -0.15 0" order="3 3" result="fbSourceGraphic" targetX="1" targetY="1"/><feColorMatrix in="fbSourceGraphic" result="fbSourceGraphicAlpha" values="0 0 0 -1 0 0 0 0 -1 0 0 0 0 -1 0 0 0 0 1 0"/><feGaussianBlur in="fbSourceGraphic" result="result3" stdDeviation="5"/><feColorMatrix result="result7" values="1 0 0 0 0 0 1 0 0 0 0 0 1 0 0 0 0 0 50 0"/><feComposite in2="fbSourceGraphic" operator="in" result="result9"/><feComposite in="result9" in2="result7" k1=".5" k3=".5" operator="arithmetic" result="result1"/><feBlend in="fbSourceGraphic" in2="result1" mode="screen" result="result5"/><feBlend in="result5" in2="result5" mode="darken" result="result6"/><feComposite in2="fbSourceGraphic" operator="in" result="result8"/></filter><filter id="v" x="-.381" y="-.387" width="1.762" height="1.774" color-interpolation-filters="sRGB"><feGaussianBlur result="fbSourceGraphic" stdDeviation=".604"/><feColorMatrix in="fbSourceGraphic" result="fbSourceGraphicAlpha" values="0 0 0 -1 0 0 0 0 -1 0 0 0 0 -1 0 0 0 0 1 0"/><feConvolveMatrix divisor="1" in="fbSourceGraphic" kernelMatrix="0 -0.15 0 -0.15 1.6 -0.15 0 -0.15 0" order="3 3" result="fbSourceGraphic" targetX="1" targetY="1"/><feColorMatrix in="fbSourceGraphic" result="fbSourceGraphicAlpha" values="0 0 0 -1 0 0 0 0 -1 0 0 0 0 -1 0 0 0 0 1 0"/><feGaussianBlur in="fbSourceGraphic" result="result3" stdDeviation="5"/><feColorMatrix result="result7" values="1 0 0 0 0 0 1 0 0 0 0 0 1 0 0 0 0 0 50 0"/><feComposite in2="fbSourceGraphic" operator="in" result="result9"/><feComposite in="result9" in2="result7" k1=".5" k3=".5" operator="arithmetic" result="result1"/><feBlend in="fbSourceGraphic" in2="result1" mode="screen" result="result5"/><feBlend in="result5" in2="result5" mode="darken" result="result6"/><feComposite in2="fbSourceGraphic" operator="in" result="result8"/></filter><filter id="u" x="-.381" y="-.387" width="1.762" height="1.774" color-interpolation-filters="sRGB"><feGaussianBlur result="fbSourceGraphic" stdDeviation=".604"/><feColorMatrix in="fbSourceGraphic" result="fbSourceGraphicAlpha" values="0 0 0 -1 0 0 0 0 -1 0 0 0 0 -1 0 0 0 0 1 0"/><feConvolveMatrix divisor="1" in="fbSourceGraphic" kernelMatrix="0 -0.15 0 -0.15 1.6 -0.15 0 -0.15 0" order="3 3" result="fbSourceGraphic" targetX="1" targetY="1"/><feColorMatrix in="fbSourceGraphic" result="fbSourceGraphicAlpha" values="0 0 0 -1 0 0 0 0 -1 0 0 0 0 -1 0 0 0 0 1 0"/><feGaussianBlur in="fbSourceGraphic" result="result3" stdDeviation="5"/><feColorMatrix result="result7" values="1 0 0 0 0 0 1 0 0 0 0 0 1 0 0 0 0 0 50 0"/><feComposite in2="fbSourceGraphic" operator="in" result="result9"/><feComposite in="result9" in2="result7" k1=".5" k3=".5" operator="arithmetic" result="result1"/><feBlend in="fbSourceGraphic" in2="result1" mode="screen" result="result5"/><feBlend in="result5" in2="result5" mode="darken" result="result6"/><feComposite in2="fbSourceGraphic" operator="in" result="result8"/></filter><filter id="t" x="-.381" y="-.387" width="1.762" height="1.774" color-interpolation-filters="sRGB"><feGaussianBlur result="fbSourceGraphic" stdDeviation=".604"/><feColorMatrix in="fbSourceGraphic" result="fbSourceGraphicAlpha" values="0 0 0 -1 0 0 0 0 -1 0 0 0 0 -1 0 0 0 0 1 0"/><feConvolveMatrix divisor="1" in="fbSourceGraphic" kernelMatrix="0 -0.15 0 -0.15 1.6 -0.15 0 -0.15 0" order="3 3" result="fbSourceGraphic" targetX="1" targetY="1"/><feColorMatrix in="fbSourceGraphic" result="fbSourceGraphicAlpha" values="0 0 0 -1 0 0 0 0 -1 0 0 0 0 -1 0 0 0 0 1 0"/><feGaussianBlur in="fbSourceGraphic" result="result3" stdDeviation="5"/><feColorMatrix result="result7" values="1 0 0 0 0 0 1 0 0 0 0 0 1 0 0 0 0 0 50 0"/><feComposite in2="fbSourceGraphic" operator="in" result="result9"/><feComposite in="result9" in2="result7" k1=".5" k3=".5" operator="arithmetic" result="result1"/><feBlend in="fbSourceGraphic" in2="result1" mode="screen" result="result5"/><feBlend in="result5" in2="result5" mode="darken" result="result6"/><feComposite in2="fbSourceGraphic" operator="in" result="result8"/></filter><filter id="s" x="-.381" y="-.387" width="1.762" height="1.774" color-interpolation-filters="sRGB"><feGaussianBlur result="fbSourceGraphic" stdDeviation=".604"/><feColorMatrix in="fbSourceGraphic" result="fbSourceGraphicAlpha" values="0 0 0 -1 0 0 0 0 -1 0 0 0 0 -1 0 0 0 0 1 0"/><feConvolveMatrix divisor="1" in="fbSourceGraphic" kernelMatrix="0 -0.15 0 -0.15 1.6 -0.15 0 -0.15 0" order="3 3" result="fbSourceGraphic" targetX="1" targetY="1"/><feColorMatrix in="fbSourceGraphic" result="fbSourceGraphicAlpha" values="0 0 0 -1 0 0 0 0 -1 0 0 0 0 -1 0 0 0 0 1 0"/><feGaussianBlur in="fbSourceGraphic" result="result3" stdDeviation="5"/><feColorMatrix result="result7" values="1 0 0 0 0 0 1 0 0 0 0 0 1 0 0 0 0 0 50 0"/><feComposite in2="fbSourceGraphic" operator="in" result="result9"/><feComposite in="result9" in2="result7" k1=".5" k3=".5" operator="arithmetic" result="result1"/><feBlend in="fbSourceGraphic" in2="result1" mode="screen" result="result5"/><feBlend in="result5" in2="result5" mode="darken" result="result6"/><feComposite in2="fbSourceGraphic" operator="in" result="result8"/></filter><filter id="r" x="-.381" y="-.387" width="1.762" height="1.774" color-interpolation-filters="sRGB"><feGaussianBlur result="fbSourceGraphic" stdDeviation=".604"/><feColorMatrix in="fbSourceGraphic" result="fbSourceGraphicAlpha" values="0 0 0 -1 0 0 0 0 -1 0 0 0 0 -1 0 0 0 0 1 0"/><feConvolveMatrix divisor="1" in="fbSourceGraphic" kernelMatrix="0 -0.15 0 -0.15 1.6 -0.15 0 -0.15 0" order="3 3" result="fbSourceGraphic" targetX="1" targetY="1"/><feColorMatrix in="fbSourceGraphic" result="fbSourceGraphicAlpha" values="0 0 0 -1 0 0 0 0 -1 0 0 0 0 -1 0 0 0 0 1 0"/><feGaussianBlur in="fbSourceGraphic" result="result3" stdDeviation="5"/><feColorMatrix result="result7" values="1 0 0 0 0 0 1 0 0 0 0 0 1 0 0 0 0 0 50 0"/><feComposite in2="fbSourceGraphic" operator="in" result="result9"/><feComposite in="result9" in2="result7" k1=".5" k3=".5" operator="arithmetic" result="result1"/><feBlend in="fbSourceGraphic" in2="result1" mode="screen" result="result5"/><feBlend in="result5" in2="result5" mode="darken" result="result6"/><feComposite in2="fbSourceGraphic" operator="in" result="result8"/></filter><filter id="q" x="-.381" y="-.387" width="1.762" height="1.774" color-interpolation-filters="sRGB"><feGaussianBlur result="fbSourceGraphic" stdDeviation=".604"/><feColorMatrix in="fbSourceGraphic" result="fbSourceGraphicAlpha" values="0 0 0 -1 0 0 0 0 -1 0 0 0 0 -1 0 0 0 0 1 0"/><feConvolveMatrix divisor="1" in="fbSourceGraphic" kernelMatrix="0 -0.15 0 -0.15 1.6 -0.15 0 -0.15 0" order="3 3" result="fbSourceGraphic" targetX="1" targetY="1"/><feColorMatrix in="fbSourceGraphic" result="fbSourceGraphicAlpha" values="0 0 0 -1 0 0 0 0 -1 0 0 0 0 -1 0 0 0 0 1 0"/><feGaussianBlur in="fbSourceGraphic" result="result3" stdDeviation="5"/><feColorMatrix result="result7" values="1 0 0 0 0 0 1 0 0 0 0 0 1 0 0 0 0 0 50 0"/><feComposite in2="fbSourceGraphic" operator="in" result="result9"/><feComposite in="result9" in2="result7" k1=".5" k3=".5" operator="arithmetic" result="result1"/><feBlend in="fbSourceGraphic" in2="result1" mode="screen" result="result5"/><feBlend in="result5" in2="result5" mode="darken" result="result6"/><feComposite in2="fbSourceGraphic" operator="in" result="result8"/></filter><filter id="p" x="-.381" y="-.387" width="1.762" height="1.774" color-interpolation-filters="sRGB"><feGaussianBlur result="fbSourceGraphic" stdDeviation=".604"/><feColorMatrix in="fbSourceGraphic" result="fbSourceGraphicAlpha" values="0 0 0 -1 0 0 0 0 -1 0 0 0 0 -1 0 0 0 0 1 0"/><feConvolveMatrix divisor="1" in="fbSourceGraphic" kernelMatrix="0 -0.15 0 -0.15 1.6 -0.15 0 -0.15 0" order="3 3" result="fbSourceGraphic" targetX="1" targetY="1"/><feColorMatrix in="fbSourceGraphic" result="fbSourceGraphicAlpha" values="0 0 0 -1 0 0 0 0 -1 0 0 0 0 -1 0 0 0 0 1 0"/><feGaussianBlur in="fbSourceGraphic" result="result3" stdDeviation="5"/><feColorMatrix result="result7" values="1 0 0 0 0 0 1 0 0 0 0 0 1 0 0 0 0 0 50 0"/><feComposite in2="fbSourceGraphic" operator="in" result="result9"/><feComposite in="result9" in2="result7" k1=".5" k3=".5" operator="arithmetic" result="result1"/><feBlend in="fbSourceGraphic" in2="result1" mode="screen" result="result5"/><feBlend in="result5" in2="result5" mode="darken" result="result6"/><feComposite in2="fbSourceGraphic" operator="in" result="result8"/></filter><filter id="o" x="-.381" y="-.387" width="1.762" height="1.774" color-interpolation-filters="sRGB"><feGaussianBlur result="fbSourceGraphic" stdDeviation=".604"/><feColorMatrix in="fbSourceGraphic" result="fbSourceGraphicAlpha" values="0 0 0 -1 0 0 0 0 -1 0 0 0 0 -1 0 0 0 0 1 0"/><feConvolveMatrix divisor="1" in="fbSourceGraphic" kernelMatrix="0 -0.15 0 -0.15 1.6 -0.15 0 -0.15 0" order="3 3" result="fbSourceGraphic" targetX="1" targetY="1"/><feColorMatrix in="fbSourceGraphic" result="fbSourceGraphicAlpha" values="0 0 0 -1 0 0 0 0 -1 0 0 0 0 -1 0 0 0 0 1 0"/><feGaussianBlur in="fbSourceGraphic" result="result3" stdDeviation="5"/><feColorMatrix result="result7" values="1 0 0 0 0 0 1 0 0 0 0 0 1 0 0 0 0 0 50 0"/><feComposite in2="fbSourceGraphic" operator="in" result="result9"/><feComposite in="result9" in2="result7" k1=".5" k3=".5" operator="arithmetic" result="result1"/><feBlend in="fbSourceGraphic" in2="result1" mode="screen" result="result5"/><feBlend in="result5" in2="result5" mode="darken" result="result6"/><feComposite in2="fbSourceGraphic" operator="in" result="result8"/></filter><filter id="n" x="-.381" y="-.387" width="1.762" height="1.774" color-interpolation-filters="sRGB"><feGaussianBlur result="fbSourceGraphic" stdDeviation=".604"/><feColorMatrix in="fbSourceGraphic" result="fbSourceGraphicAlpha" values="0 0 0 -1 0 0 0 0 -1 0 0 0 0 -1 0 0 0 0 1 0"/><feConvolveMatrix divisor="1" in="fbSourceGraphic" kernelMatrix="0 -0.15 0 -0.15 1.6 -0.15 0 -0.15 0" order="3 3" result="fbSourceGraphic" targetX="1" targetY="1"/><feColorMatrix in="fbSourceGraphic" result="fbSourceGraphicAlpha" values="0 0 0 -1 0 0 0 0 -1 0 0 0 0 -1 0 0 0 0 1 0"/><feGaussianBlur in="fbSourceGraphic" result="result3" stdDeviation="5"/><feColorMatrix result="result7" values="1 0 0 0 0 0 1 0 0 0 0 0 1 0 0 0 0 0 50 0"/><feComposite in2="fbSourceGraphic" operator="in" result="result9"/><feComposite in="result9" in2="result7" k1=".5" k3=".5" operator="arithmetic" result="result1"/><feBlend in="fbSourceGraphic" in2="result1" mode="screen" result="result5"/><feBlend in="result5" in2="result5" mode="darken" result="result6"/><feComposite in2="fbSourceGraphic" operator="in" result="result8"/></filter><filter id="m" x="-.381" y="-.387" width="1.762" height="1.774" color-interpolation-filters="sRGB"><feGaussianBlur result="fbSourceGraphic" stdDeviation=".604"/><feColorMatrix in="fbSourceGraphic" result="fbSourceGraphicAlpha" values="0 0 0 -1 0 0 0 0 -1 0 0 0 0 -1 0 0 0 0 1 0"/><feConvolveMatrix divisor="1" in="fbSourceGraphic" kernelMatrix="0 -0.15 0 -0.15 1.6 -0.15 0 -0.15 0" order="3 3" result="fbSourceGraphic" targetX="1" targetY="1"/><feColorMatrix in="fbSourceGraphic" result="fbSourceGraphicAlpha" values="0 0 0 -1 0 0 0 0 -1 0 0 0 0 -1 0 0 0 0 1 0"/><feGaussianBlur in="fbSourceGraphic" result="result3" stdDeviation="5"/><feColorMatrix result="result7" values="1 0 0 0 0 0 1 0 0 0 0 0 1 0 0 0 0 0 50 0"/><feComposite in2="fbSourceGraphic" operator="in" result="result9"/><feComposite in="result9" in2="result7" k1=".5" k3=".5" operator="arithmetic" result="result1"/><feBlend in="fbSourceGraphic" in2="result1" mode="screen" result="result5"/><feBlend in="result5" in2="result5" mode="darken" result="result6"/><feComposite in2="fbSourceGraphic" operator="in" result="result8"/></filter><filter id="l" x="-.381" y="-.387" width="1.762" height="1.774" color-interpolation-filters="sRGB"><feGaussianBlur result="fbSourceGraphic" stdDeviation=".604"/><feColorMatrix in="fbSourceGraphic" result="fbSourceGraphicAlpha" values="0 0 0 -1 0 0 0 0 -1 0 0 0 0 -1 0 0 0 0 1 0"/><feConvolveMatrix divisor="1" in="fbSourceGraphic" kernelMatrix="0 -0.15 0 -0.15 1.6 -0.15 0 -0.15 0" order="3 3" result="fbSourceGraphic" targetX="1" targetY="1"/><feColorMatrix in="fbSourceGraphic" result="fbSourceGraphicAlpha" values="0 0 0 -1 0 0 0 0 -1 0 0 0 0 -1 0 0 0 0 1 0"/><feGaussianBlur in="fbSourceGraphic" result="result3" stdDeviation="5"/><feColorMatrix result="result7" values="1 0 0 0 0 0 1 0 0 0 0 0 1 0 0 0 0 0 50 0"/><feComposite in2="fbSourceGraphic" operator="in" result="result9"/><feComposite in="result9" in2="result7" k1=".5" k3=".5" operator="arithmetic" result="result1"/><feBlend in="fbSourceGraphic" in2="result1" mode="screen" result="result5"/><feBlend in="result5" in2="result5" mode="darken" result="result6"/><feComposite in2="fbSourceGraphic" operator="in" result="result8"/></filter><filter id="y" x="-.381" y="-.387" width="1.762" height="1.774" color-interpolation-filters="sRGB"><feGaussianBlur result="fbSourceGraphic" stdDeviation=".604"/><feColorMatrix in="fbSourceGraphic" result="fbSourceGraphicAlpha" values="0 0 0 -1 0 0 0 0 -1 0 0 0 0 -1 0 0 0 0 1 0"/><feConvolveMatrix divisor="1" in="fbSourceGraphic" kernelMatrix="0 -0.15 0 -0.15 1.6 -0.15 0 -0.15 0" order="3 3" result="fbSourceGraphic" targetX="1" targetY="1"/><feColorMatrix in="fbSourceGraphic" result="fbSourceGraphicAlpha" values="0 0 0 -1 0 0 0 0 -1 0 0 0 0 -1 0 0 0 0 1 0"/><feGaussianBlur in="fbSourceGraphic" result="result3" stdDeviation="5"/><feColorMatrix result="result7" values="1 0 0 0 0 0 1 0 0 0 0 0 1 0 0 0 0 0 50 0"/><feComposite in2="fbSourceGraphic" operator="in" result="result9"/><feComposite in="result9" in2="result7" k1=".5" k3=".5" operator="arithmetic" result="result1"/><feBlend in="fbSourceGraphic" in2="result1" mode="screen" result="result5"/><feBlend in="result5" in2="result5" mode="darken" result="result6"/><feComposite in2="fbSourceGraphic" operator="in" result="result8"/></filter><filter id="z" x="-.381" y="-.387" width="1.762" height="1.774" color-interpolation-filters="sRGB"><feGaussianBlur result="fbSourceGraphic" stdDeviation=".604"/><feColorMatrix in="fbSourceGraphic" result="fbSourceGraphicAlpha" values="0 0 0 -1 0 0 0 0 -1 0 0 0 0 -1 0 0 0 0 1 0"/><feConvolveMatrix divisor="1" in="fbSourceGraphic" kernelMatrix="0 -0.15 0 -0.15 1.6 -0.15 0 -0.15 0" order="3 3" result="fbSourceGraphic" targetX="1" targetY="1"/><feColorMatrix in="fbSourceGraphic" result="fbSourceGraphicAlpha" values="0 0 0 -1 0 0 0 0 -1 0 0 0 0 -1 0 0 0 0 1 0"/><feGaussianBlur in="fbSourceGraphic" result="result3" stdDeviation="5"/><feColorMatrix result="result7" values="1 0 0 0 0 0 1 0 0 0 0 0 1 0 0 0 0 0 50 0"/><feComposite in2="fbSourceGraphic" operator="in" result="result9"/><feComposite in="result9" in2="result7" k1=".5" k3=".5" operator="arithmetic" result="result1"/><feBlend in="fbSourceGraphic" in2="result1" mode="screen" result="result5"/><feBlend in="result5" in2="result5" mode="darken" result="result6"/><feComposite in2="fbSourceGraphic" operator="in" result="result8"/></filter><filter id="A" x="-.381" y="-.387" width="1.762" height="1.774" color-interpolation-filters="sRGB"><feGaussianBlur result="fbSourceGraphic" stdDeviation=".604"/><feColorMatrix in="fbSourceGraphic" result="fbSourceGraphicAlpha" values="0 0 0 -1 0 0 0 0 -1 0 0 0 0 -1 0 0 0 0 1 0"/><feConvolveMatrix divisor="1" in="fbSourceGraphic" kernelMatrix="0 -0.15 0 -0.15 1.6 -0.15 0 -0.15 0" order="3 3" result="fbSourceGraphic" targetX="1" targetY="1"/><feColorMatrix in="fbSourceGraphic" result="fbSourceGraphicAlpha" values="0 0 0 -1 0 0 0 0 -1 0 0 0 0 -1 0 0 0 0 1 0"/><feGaussianBlur in="fbSourceGraphic" result="result3" stdDeviation="5"/><feColorMatrix result="result7" values="1 0 0 0 0 0 1 0 0 0 0 0 1 0 0 0 0 0 50 0"/><feComposite in2="fbSourceGraphic" operator="in" result="result9"/><feComposite in="result9" in2="result7" k1=".5" k3=".5" operator="arithmetic" result="result1"/><feBlend in="fbSourceGraphic" in2="result1" mode="screen" result="result5"/><feBlend in="result5" in2="result5" mode="darken" result="result6"/><feComposite in2="fbSourceGraphic" operator="in" result="result8"/></filter><filter id="B" x="-.381" y="-.387" width="1.762" height="1.774" color-interpolation-filters="sRGB"><feGaussianBlur result="fbSourceGraphic" stdDeviation=".604"/><feColorMatrix in="fbSourceGraphic" result="fbSourceGraphicAlpha" values="0 0 0 -1 0 0 0 0 -1 0 0 0 0 -1 0 0 0 0 1 0"/><feConvolveMatrix divisor="1" in="fbSourceGraphic" kernelMatrix="0 -0.15 0 -0.15 1.6 -0.15 0 -0.15 0" order="3 3" result="fbSourceGraphic" targetX="1" targetY="1"/><feColorMatrix in="fbSourceGraphic" result="fbSourceGraphicAlpha" values="0 0 0 -1 0 0 0 0 -1 0 0 0 0 -1 0 0 0 0 1 0"/><feGaussianBlur in="fbSourceGraphic" result="result3" stdDeviation="5"/><feColorMatrix result="result7" values="1 0 0 0 0 0 1 0 0 0 0 0 1 0 0 0 0 0 50 0"/><feComposite in2="fbSourceGraphic" operator="in" result="result9"/><feComposite in="result9" in2="result7" k1=".5" k3=".5" operator="arithmetic" result="result1"/><feBlend in="fbSourceGraphic" in2="result1" mode="screen" result="result5"/><feBlend in="result5" in2="result5" mode="darken" result="result6"/><feComposite in2="fbSourceGraphic" operator="in" result="result8"/></filter><filter id="H" x="-.381" y="-.387" width="1.762" height="1.774" color-interpolation-filters="sRGB"><feGaussianBlur result="fbSourceGraphic" stdDeviation=".604"/><feColorMatrix in="fbSourceGraphic" result="fbSourceGraphicAlpha" values="0 0 0 -1 0 0 0 0 -1 0 0 0 0 -1 0 0 0 0 1 0"/><feConvolveMatrix divisor="1" in="fbSourceGraphic" kernelMatrix="0 -0.15 0 -0.15 1.6 -0.15 0 -0.15 0" order="3 3" result="fbSourceGraphic" targetX="1" targetY="1"/><feColorMatrix in="fbSourceGraphic" result="fbSourceGraphicAlpha" values="0 0 0 -1 0 0 0 0 -1 0 0 0 0 -1 0 0 0 0 1 0"/><feGaussianBlur in="fbSourceGraphic" result="result3" stdDeviation="5"/><feColorMatrix result="result7" values="1 0 0 0 0 0 1 0 0 0 0 0 1 0 0 0 0 0 50 0"/><feComposite in2="fbSourceGraphic" operator="in" result="result9"/><feComposite in="result9" in2="result7" k1=".5" k3=".5" operator="arithmetic" result="result1"/><feBlend in="fbSourceGraphic" in2="result1" mode="screen" result="result5"/><feBlend in="result5" in2="result5" mode="darken" result="result6"/><feComposite in2="fbSourceGraphic" operator="in" result="result8"/></filter><filter id="D" x="-.381" y="-.387" width="1.762" height="1.774" color-interpolation-filters="sRGB"><feGaussianBlur result="fbSourceGraphic" stdDeviation=".604"/><feColorMatrix in="fbSourceGraphic" result="fbSourceGraphicAlpha" values="0 0 0 -1 0 0 0 0 -1 0 0 0 0 -1 0 0 0 0 1 0"/><feConvolveMatrix divisor="1" in="fbSourceGraphic" kernelMatrix="0 -0.15 0 -0.15 1.6 -0.15 0 -0.15 0" order="3 3" result="fbSourceGraphic" targetX="1" targetY="1"/><feColorMatrix in="fbSourceGraphic" result="fbSourceGraphicAlpha" values="0 0 0 -1 0 0 0 0 -1 0 0 0 0 -1 0 0 0 0 1 0"/><feGaussianBlur in="fbSourceGraphic" result="result3" stdDeviation="5"/><feColorMatrix result="result7" values="1 0 0 0 0 0 1 0 0 0 0 0 1 0 0 0 0 0 50 0"/><feComposite in2="fbSourceGraphic" operator="in" result="result9"/><feComposite in="result9" in2="result7" k1=".5" k3=".5" operator="arithmetic" result="result1"/><feBlend in="fbSourceGraphic" in2="result1" mode="screen" result="result5"/><feBlend in="result5" in2="result5" mode="darken" result="result6"/><feComposite in2="fbSourceGraphic" operator="in" result="result8"/></filter><filter id="E" x="-.381" y="-.387" width="1.762" height="1.774" color-interpolation-filters="sRGB"><feGaussianBlur result="fbSourceGraphic" stdDeviation=".604"/><feColorMatrix in="fbSourceGraphic" result="fbSourceGraphicAlpha" values="0 0 0 -1 0 0 0 0 -1 0 0 0 0 -1 0 0 0 0 1 0"/><feConvolveMatrix divisor="1" in="fbSourceGraphic" kernelMatrix="0 -0.15 0 -0.15 1.6 -0.15 0 -0.15 0" order="3 3" result="fbSourceGraphic" targetX="1" targetY="1"/><feColorMatrix in="fbSourceGraphic" result="fbSourceGraphicAlpha" values="0 0 0 -1 0 0 0 0 -1 0 0 0 0 -1 0 0 0 0 1 0"/><feGaussianBlur in="fbSourceGraphic" result="result3" stdDeviation="5"/><feColorMatrix result="result7" values="1 0 0 0 0 0 1 0 0 0 0 0 1 0 0 0 0 0 50 0"/><feComposite in2="fbSourceGraphic" operator="in" result="result9"/><feComposite in="result9" in2="result7" k1=".5" k3=".5" operator="arithmetic" result="result1"/><feBlend in="fbSourceGraphic" in2="result1" mode="screen" result="result5"/><feBlend in="result5" in2="result5" mode="darken" result="result6"/><feComposite in2="fbSourceGraphic" operator="in" result="result8"/></filter><filter id="F" x="-.381" y="-.387" width="1.762" height="1.774" color-interpolation-filters="sRGB"><feGaussianBlur result="fbSourceGraphic" stdDeviation=".604"/><feColorMatrix in="fbSourceGraphic" result="fbSourceGraphicAlpha" values="0 0 0 -1 0 0 0 0 -1 0 0 0 0 -1 0 0 0 0 1 0"/><feConvolveMatrix divisor="1" in="fbSourceGraphic" kernelMatrix="0 -0.15 0 -0.15 1.6 -0.15 0 -0.15 0" order="3 3" result="fbSourceGraphic" targetX="1" targetY="1"/><feColorMatrix in="fbSourceGraphic" result="fbSourceGraphicAlpha" values="0 0 0 -1 0 0 0 0 -1 0 0 0 0 -1 0 0 0 0 1 0"/><feGaussianBlur in="fbSourceGraphic" result="result3" stdDeviation="5"/><feColorMatrix result="result7" values="1 0 0 0 0 0 1 0 0 0 0 0 1 0 0 0 0 0 50 0"/><feComposite in2="fbSourceGraphic" operator="in" result="result9"/><feComposite in="result9" in2="result7" k1=".5" k3=".5" operator="arithmetic" result="result1"/><feBlend in="fbSourceGraphic" in2="result1" mode="screen" result="result5"/><feBlend in="result5" in2="result5" mode="darken" result="result6"/><feComposite in2="fbSourceGraphic" operator="in" result="result8"/></filter><filter id="G" x="-.381" y="-.387" width="1.762" height="1.774" color-interpolation-filters="sRGB"><feGaussianBlur result="fbSourceGraphic" stdDeviation=".604"/><feColorMatrix in="fbSourceGraphic" result="fbSourceGraphicAlpha" values="0 0 0 -1 0 0 0 0 -1 0 0 0 0 -1 0 0 0 0 1 0"/><feConvolveMatrix divisor="1" in="fbSourceGraphic" kernelMatrix="0 -0.15 0 -0.15 1.6 -0.15 0 -0.15 0" order="3 3" result="fbSourceGraphic" targetX="1" targetY="1"/><feColorMatrix in="fbSourceGraphic" result="fbSourceGraphicAlpha" values="0 0 0 -1 0 0 0 0 -1 0 0 0 0 -1 0 0 0 0 1 0"/><feGaussianBlur in="fbSourceGraphic" result="result3" stdDeviation="5"/><feColorMatrix result="result7" values="1 0 0 0 0 0 1 0 0 0 0 0 1 0 0 0 0 0 50 0"/><feComposite in2="fbSourceGraphic" operator="in" result="result9"/><feComposite in="result9" in2="result7" k1=".5" k3=".5" operator="arithmetic" result="result1"/><feBlend in="fbSourceGraphic" in2="result1" mode="screen" result="result5"/><feBlend in="result5" in2="result5" mode="darken" result="result6"/><feComposite in2="fbSourceGraphic" operator="in" result="result8"/></filter><filter id="j" x="-.016" y="-.05" width="1.032" height="1.099" color-interpolation-filters="sRGB"><feGaussianBlur stdDeviation=".142"/></filter><filter id="I" x="-.381" y="-.387" width="1.762" height="1.774" color-interpolation-filters="sRGB"><feGaussianBlur result="fbSourceGraphic" stdDeviation=".604"/><feColorMatrix in="fbSourceGraphic" result="fbSourceGraphicAlpha" values="0 0 0 -1 0 0 0 0 -1 0 0 0 0 -1 0 0 0 0 1 0"/><feConvolveMatrix divisor="1" in="fbSourceGraphic" kernelMatrix="0 -0.15 0 -0.15 1.6 -0.15 0 -0.15 0" order="3 3" result="fbSourceGraphic" targetX="1" targetY="1"/><feColorMatrix in="fbSourceGraphic" result="fbSourceGraphicAlpha" values="0 0 0 -1 0 0 0 0 -1 0 0 0 0 -1 0 0 0 0 1 0"/><feGaussianBlur in="fbSourceGraphic" result="result3" stdDeviation="5"/><feColorMatrix result="result7" values="1 0 0 0 0 0 1 0 0 0 0 0 1 0 0 0 0 0 50 0"/><feComposite in2="fbSourceGraphic" operator="in" result="result9"/><feComposite in="result9" in2="result7" k1=".5" k3=".5" operator="arithmetic" result="result1"/><feBlend in="fbSourceGraphic" in2="result1" mode="screen" result="result5"/><feBlend in="result5" in2="result5" mode="darken" result="result6"/><feComposite in2="fbSourceGraphic" operator="in" result="result8"/></filter><filter id="J" x="-.381" y="-.387" width="1.762" height="1.774" color-interpolation-filters="sRGB"><feGaussianBlur result="fbSourceGraphic" stdDeviation=".604"/><feColorMatrix in="fbSourceGraphic" result="fbSourceGraphicAlpha" values="0 0 0 -1 0 0 0 0 -1 0 0 0 0 -1 0 0 0 0 1 0"/><feConvolveMatrix divisor="1" in="fbSourceGraphic" kernelMatrix="0 -0.15 0 -0.15 1.6 -0.15 0 -0.15 0" order="3 3" result="fbSourceGraphic" targetX="1" targetY="1"/><feColorMatrix in="fbSourceGraphic" result="fbSourceGraphicAlpha" values="0 0 0 -1 0 0 0 0 -1 0 0 0 0 -1 0 0 0 0 1 0"/><feGaussianBlur in="fbSourceGraphic" result="result3" stdDeviation="5"/><feColorMatrix result="result7" values="1 0 0 0 0 0 1 0 0 0 0 0 1 0 0 0 0 0 50 0"/><feComposite in2="fbSourceGraphic" operator="in" result="result9"/><feComposite in="result9" in2="result7" k1=".5" k3=".5" operator="arithmetic" result="result1"/><feBlend in="fbSourceGraphic" in2="result1" mode="screen" result="result5"/><feBlend in="result5" in2="result5" mode="darken" result="result6"/><feComposite in2="fbSourceGraphic" operator="in" result="result8"/></filter><filter id="K" x="-.381" y="-.387" width="1.762" height="1.774" color-interpolation-filters="sRGB"><feGaussianBlur result="fbSourceGraphic" stdDeviation=".604"/><feColorMatrix in="fbSourceGraphic" result="fbSourceGraphicAlpha" values="0 0 0 -1 0 0 0 0 -1 0 0 0 0 -1 0 0 0 0 1 0"/><feConvolveMatrix divisor="1" in="fbSourceGraphic" kernelMatrix="0 -0.15 0 -0.15 1.6 -0.15 0 -0.15 0" order="3 3" result="fbSourceGraphic" targetX="1" targetY="1"/><feColorMatrix in="fbSourceGraphic" result="fbSourceGraphicAlpha" values="0 0 0 -1 0 0 0 0 -1 0 0 0 0 -1 0 0 0 0 1 0"/><feGaussianBlur in="fbSourceGraphic" result="result3" stdDeviation="5"/><feColorMatrix result="result7" values="1 0 0 0 0 0 1 0 0 0 0 0 1 0 0 0 0 0 50 0"/><feComposite in2="fbSourceGraphic" operator="in" result="result9"/><feComposite in="result9" in2="result7" k1=".5" k3=".5" operator="arithmetic" result="result1"/><feBlend in="fbSourceGraphic" in2="result1" mode="screen" result="result5"/><feBlend in="result5" in2="result5" mode="darken" result="result6"/><feComposite in2="fbSourceGraphic" operator="in" result="result8"/></filter><filter id="L" x="-.381" y="-.387" width="1.762" height="1.774" color-interpolation-filters="sRGB"><feGaussianBlur result="fbSourceGraphic" stdDeviation=".604"/><feColorMatrix in="fbSourceGraphic" result="fbSourceGraphicAlpha" values="0 0 0 -1 0 0 0 0 -1 0 0 0 0 -1 0 0 0 0 1 0"/><feConvolveMatrix divisor="1" in="fbSourceGraphic" kernelMatrix="0 -0.15 0 -0.15 1.6 -0.15 0 -0.15 0" order="3 3" result="fbSourceGraphic" targetX="1" targetY="1"/><feColorMatrix in="fbSourceGraphic" result="fbSourceGraphicAlpha" values="0 0 0 -1 0 0 0 0 -1 0 0 0 0 -1 0 0 0 0 1 0"/><feGaussianBlur in="fbSourceGraphic" result="result3" stdDeviation="5"/><feColorMatrix result="result7" values="1 0 0 0 0 0 1 0 0 0 0 0 1 0 0 0 0 0 50 0"/><feComposite in2="fbSourceGraphic" operator="in" result="result9"/><feComposite in="result9" in2="result7" k1=".5" k3=".5" operator="arithmetic" result="result1"/><feBlend in="fbSourceGraphic" in2="result1" mode="screen" result="result5"/><feBlend in="result5" in2="result5" mode="darken" result="result6"/><feComposite in2="fbSourceGraphic" operator="in" result="result8"/></filter><linearGradient id="e" x1="65.581" x2="84.019" y1="35.487" y2="34.895" gradientTransform="matrix(.8068 .6933 -.62398 1.0608 4.881 -50.383)" gradientUnits="userSpaceOnUse" xlink:href="#a"/><linearGradient id="a"><stop stop-color="#e6e6e6" offset="0"/><stop stop-color="#939393" offset="1"/></linearGradient><linearGradient id="c"><stop stop-color="#f9f9f9" offset="0"/><stop stop-color="#a1a1a2" offset="1"/></linearGradient><linearGradient id="i" x1="51.162" x2="73.325" y1="32.759" y2="32.759" gradientTransform="matrix(.99527 0 0 .94146 -32.407 -24.589)" gradientUnits="userSpaceOnUse" xlink:href="#b"/><linearGradient id="b"><stop stop-color="#fff" offset="0"/><stop stop-color="#898789" offset="1"/></linearGradient><linearGradient id="k" x1="16.95" x2="36.026" y1="6.005" y2="6.005" gradientUnits="userSpaceOnUse" xlink:href="#c"/><linearGradient id="d"><stop stop-color="#a00" offset="0"/><stop stop-color="#f55" offset="1"/></linearGradient><linearGradient id="h" x1="-57.577" x2="-56.055" y1="42.856" y2="40.175" gradientUnits="userSpaceOnUse" xlink:href="#d"/><linearGradient id="g" x1="53.96" x2="67.4" y1="11.371" y2="14.992" gradientUnits="userSpaceOnUse"><stop stop-color="#3c5764" offset="0"/><stop stop-color="#323944" offset="1"/></linearGradient></defs><path d="M55.143 14.357c-5.374-4.095-12.517-4.056-17.12 1.088-2.195 2.452-2.569 7.173-1.27 9.791-5.815-.841-8.913.047-13.176 4.31-3.862 6.938-3.11 14.768 3.08 19.965 7.965 3.91 18.514 2.088 22-4.167 2.982-4.567 2.264-8.548.162-13.117 2.19-.466 6.73-2.197 8.074-5.078 1.82-3.9 1.674-10.184-1.75-12.793z" fill="url(#e)" filter="url(#f)" opacity=".98" paint-order="markers stroke fill"/><path d="M63.677 21.972c-2.152-2.224-1.107-4.263-5.147-8.234-3.42-3.361-4.945-4.667-4.72-5.045.37-.618 1.278-.377 1.801.478.534.872 1.556 1.034 3.613.573.69-.155 1.576-.406 1.968-.558.926-.36 1.57-.439 2.146-.262.702.215 1.141.595 2.037 1.76.799 1.04.977.87 2.312 1.837.596.432 1.002.974 1.502 1.602.43.54.836 1.292-.155 2.038-1.139.858-1.342 1.128-2.792 3.711l-1.237 2.202.36.434c.46.553.562 1.002.32 1.406-.356.598-1.092-.996-2.008-1.942z" fill="url(#g)" fill-rule="evenodd" opacity=".98" paint-order="markers stroke fill"/><path d="M50.14 32.033c.287.563.274.829.338 1.865.588 1.386 1.995 2.512 3.378 2.423 2.512-.16 3.223-1.488 5.222-.538 1.832.87.018 2.806-2.977 3.102-1.58.156-4.202-.13-5.573-1.477-.866-.85-1.621-2.018-2.417-2.493-.796-.475-3.218-.495-4.725-1.078-2.065-.799-4.066-1.868-5.784-3.265-1.266-1.028-2.594-2.175-3.225-3.679-.494-1.18-1.29-3.165-.284-3.826 2.02-1.328 1.833.106 2.832 1.652.916 1.419 2.119 2.579 3.532 3.7 1.81 1.436 4.165 3.218 6.45 3.12 1.25-.053 1.833-.443 2.655-.112.259.104.626.33.578.606z" fill="#bd392a"/><path d="M48.51 20.153h-3.313m1.657-1.656v3.312m-3.678-7.059h-3.313m1.657-1.656v3.312" fill="none" stroke="#000" stroke-width=".9"/><path d="M-58.09 42.659c-.29-.308-.329-.912-.329-1.155 0-.682.774-1.494 1.655-1.473.79.019 1.624.76 1.624 1.62 0 1.414-1.746 2.286-2.95 1.008zm2.037-1.472c0-.308-.152-.462-.456-.462-.304 0-.457.154-.457.462 0 .309.153.463.457.463.304 0 .456-.154.456-.463z" transform="matrix(.5674 -.8659 .86611 .56754 39.555 -55.031)" fill="url(#h)"/><path d="M42.046 20.496c.151 1.251-.785 3.043-2.038 3.186-.874.099-1.91-.968-1.884-1.847.039-1.23 1.562-2.444 2.792-2.415.52.013 1.068.56 1.13 1.076z" opacity=".956"/><path transform="matrix(.49349 .45207 -.38775 .53668 54.979 -1.847)" d="M25.997 3.26c-2.464.577-3.125-.487-4.674-.045-1.217.347-2.546.988-3.321 2.03-.436.585-1.633 1.585-1.107 2.091.665.64 2.287-.615 3.193-.787.485-.093 1.003-.257 1.477-.117.552.163.945.663 1.37 1.05.58.528 1.86 1.52 2.641 1.491 1.164-.044.495-.999-.27-2.126-1.15-1.04-.424-2.218.963-2.172.543-.018 2.767 2.494 3.31 2.472.852 1.08-2.12-1.766-.2-3.256.823-.027 2.211 1.244 2.795 2.237.657 1.118.501-1.565.143-2.13-.571-.905-2.048-1.127-3.056-1.069-1.49.29-2.057.33-3.264.332z" enable-background="new" fill="url(#i)" filter="url(#j)" opacity=".97" stroke="url(#k)" stroke-width="1.507"/><g fill="#e2e4e3" paint-order="markers stroke fill"><path transform="rotate(14.454 33.149 24.596)" d="M49.754 22.338a1.905 1.872 0 01-1.882 1.871 1.905 1.872 0 01-1.927-1.827 1.905 1.872 0 011.837-1.914 1.905 1.872 0 011.97 1.782" filter="url(#l)"/><path transform="rotate(14.454 33.149 24.596)" d="M48.408 10.961a1.905 1.872 0 01-1.882 1.871 1.905 1.872 0 01-1.927-1.827 1.905 1.872 0 011.837-1.914 1.905 1.872 0 011.97 1.782" filter="url(#m)"/><path transform="rotate(14.454 33.149 24.596)" d="M19.375 9.812a1.905 1.872 0 01-1.882 1.872 1.905 1.872 0 01-1.927-1.827 1.905 1.872 0 011.837-1.915 1.905 1.872 0 011.97 1.782" filter="url(#n)"/><path transform="rotate(14.454 33.149 24.596)" d="M28.445 30.956a1.905 1.872 0 01-1.882 1.871A1.905 1.872 0 0124.636 31a1.905 1.872 0 011.837-1.914 1.905 1.872 0 011.97 1.781" filter="url(#o)"/><path transform="rotate(14.454 33.149 24.596)" d="M59.967 33.328a1.905 1.872 0 01-1.882 1.871 1.905 1.872 0 01-1.927-1.827 1.905 1.872 0 011.837-1.914 1.905 1.872 0 011.97 1.782" filter="url(#p)"/><path transform="rotate(14.454 42.846 12.083)" d="M14.81 24.353a1.905 1.872 0 01-1.882 1.871A1.905 1.872 0 0111 24.397a1.905 1.872 0 011.837-1.914 1.905 1.872 0 011.97 1.782" enable-background="new" filter="url(#q)"/><path transform="rotate(14.454 33.149 24.596)" d="M16.245 41.431a1.905 1.872 0 01-1.882 1.871 1.905 1.872 0 01-1.927-1.827 1.905 1.872 0 011.837-1.914 1.905 1.872 0 011.97 1.782" enable-background="new" filter="url(#r)"/><path transform="rotate(14.454 33.149 24.596)" d="M27.999 48.345a1.905 1.872 0 01-1.882 1.871 1.905 1.872 0 01-1.927-1.827 1.905 1.872 0 011.837-1.914 1.905 1.872 0 011.97 1.782" enable-background="new" filter="url(#s)"/><path transform="rotate(14.454 33.149 24.596)" d="M52.364 47.184a1.905 1.872 0 01-1.882 1.871 1.905 1.872 0 01-1.927-1.827 1.905 1.872 0 011.837-1.914 1.905 1.872 0 011.97 1.782" enable-background="new" filter="url(#t)"/><path transform="rotate(14.454 33.149 24.596)" d="M42.382 35.226a1.905 1.872 0 01-1.882 1.871 1.905 1.872 0 01-1.927-1.827 1.905 1.872 0 011.837-1.914 1.905 1.872 0 011.97 1.782" enable-background="new" filter="url(#u)"/><path transform="rotate(14.454 33.149 24.596)" d="M33.248 16.746a1.905 1.872 0 01-1.882 1.871 1.905 1.872 0 01-1.927-1.827 1.905 1.872 0 011.837-1.914 1.905 1.872 0 011.97 1.781" enable-background="new" filter="url(#v)"/><path transform="rotate(14.454 33.149 24.596)" d="M65.659 10.402a1.905 1.872 0 01-1.882 1.871 1.905 1.872 0 01-1.927-1.827 1.905 1.872 0 011.837-1.914 1.905 1.872 0 011.97 1.781" enable-background="new" filter="url(#w)"/><path transform="rotate(14.454 33.149 24.596)" d="M69.33 45.112a1.905 1.872 0 01-1.882 1.871 1.905 1.872 0 01-1.927-1.827 1.905 1.872 0 011.837-1.914 1.905 1.872 0 011.97 1.782" enable-background="new" filter="url(#x)"/><path transform="rotate(14.454 -38.909 95.803)" d="M19.375 9.812a1.905 1.872 0 01-1.882 1.872 1.905 1.872 0 01-1.927-1.827 1.905 1.872 0 011.837-1.915 1.905 1.872 0 011.97 1.782" enable-background="new" filter="url(#y)"/><path transform="rotate(14.454 -12.769 34.996)" d="M19.375 9.812a1.905 1.872 0 01-1.882 1.872 1.905 1.872 0 01-1.927-1.827 1.905 1.872 0 011.837-1.915 1.905 1.872 0 011.97 1.782" enable-background="new" filter="url(#z)"/><path transform="rotate(14.454 -90.614 56.688)" d="M19.375 9.812a1.905 1.872 0 01-1.882 1.872 1.905 1.872 0 01-1.927-1.827 1.905 1.872 0 011.837-1.915 1.905 1.872 0 011.97 1.782" enable-background="new" filter="url(#A)"/><path transform="rotate(14.454 -66.397 141.74)" d="M19.375 9.812a1.905 1.872 0 01-1.882 1.872 1.905 1.872 0 01-1.927-1.827 1.905 1.872 0 011.837-1.915 1.905 1.872 0 011.97 1.782" enable-background="new" filter="url(#B)"/><path transform="rotate(14.454 -36.759 189.02)" d="M19.375 9.812a1.905 1.872 0 01-1.882 1.872 1.905 1.872 0 01-1.927-1.827 1.905 1.872 0 011.837-1.915 1.905 1.872 0 011.97 1.782" enable-background="new" filter="url(#C)"/><path transform="rotate(14.454 -109.06 93.415)" d="M19.375 9.812a1.905 1.872 0 01-1.882 1.872 1.905 1.872 0 01-1.927-1.827 1.905 1.872 0 011.837-1.915 1.905 1.872 0 011.97 1.782" enable-background="new" filter="url(#D)"/><path transform="rotate(14.454 -108.13 172.82)" d="M19.375 9.812a1.905 1.872 0 01-1.882 1.872 1.905 1.872 0 01-1.927-1.827 1.905 1.872 0 011.837-1.915 1.905 1.872 0 011.97 1.782" enable-background="new" filter="url(#E)"/><path transform="rotate(14.454 -68.591 209.18)" d="M19.375 9.812a1.905 1.872 0 01-1.882 1.872 1.905 1.872 0 01-1.927-1.827 1.905 1.872 0 011.837-1.915 1.905 1.872 0 011.97 1.782" enable-background="new" filter="url(#F)"/><path transform="rotate(14.454 -53.607 9.549)" d="M19.375 9.812a1.905 1.872 0 01-1.882 1.872 1.905 1.872 0 01-1.927-1.827 1.905 1.872 0 011.837-1.915 1.905 1.872 0 011.97 1.782" enable-background="new" filter="url(#G)"/><path transform="rotate(14.454 -136.85 5.598)" d="M19.375 9.812a1.905 1.872 0 01-1.882 1.872 1.905 1.872 0 01-1.927-1.827 1.905 1.872 0 011.837-1.915 1.905 1.872 0 011.97 1.782" enable-background="new" filter="url(#H)"/><path transform="rotate(14.454 25.404 86.035)" d="M19.375 9.812a1.905 1.872 0 01-1.882 1.872 1.905 1.872 0 01-1.927-1.827 1.905 1.872 0 011.837-1.915 1.905 1.872 0 011.97 1.782" enable-background="new" filter="url(#I)"/><path transform="rotate(14.454 -7.37 170.79)" d="M19.375 9.812a1.905 1.872 0 01-1.882 1.872 1.905 1.872 0 01-1.927-1.827 1.905 1.872 0 011.837-1.915 1.905 1.872 0 011.97 1.782" enable-background="new" filter="url(#J)"/><path transform="rotate(14.454 36.259 167.4)" d="M19.375 9.812a1.905 1.872 0 01-1.882 1.872 1.905 1.872 0 01-1.927-1.827 1.905 1.872 0 011.837-1.915 1.905 1.872 0 011.97 1.782" enable-background="new" filter="url(#K)"/><path transform="rotate(14.454 41.806 126.4)" d="M19.375 9.812a1.905 1.872 0 01-1.882 1.872 1.905 1.872 0 01-1.927-1.827 1.905 1.872 0 011.837-1.915 1.905 1.872 0 011.97 1.782" enable-background="new" filter="url(#L)"/></g></svg>