<svg width="80" height="60" enable-background="new" viewBox="0 0 80 60" xmlns="http://www.w3.org/2000/svg" xmlns:xlink="http://www.w3.org/1999/xlink"><defs><linearGradient id="e" x1="33.224" x2="64.158" y1="40.922" y2="8.928" gradientUnits="userSpaceOnUse" xlink:href="#d"/><linearGradient id="j" x1="8.974" x2="37.147" y1="33.139" y2="33.139" gradientUnits="userSpaceOnUse" xlink:href="#a"/><linearGradient id="d"><stop stop-color="#b3b3b3" offset="0"/><stop stop-color="#b3b3b3" stop-opacity="0" offset="1"/></linearGradient><linearGradient id="a"><stop stop-color="#e6e6e6" offset="0"/><stop stop-color="#939393" offset="1"/></linearGradient><linearGradient id="k" x1="51.162" x2="73.325" y1="32.759" y2="32.759" gradientTransform="matrix(.99527 0 0 .94146 -32.407 -24.589)" gradientUnits="userSpaceOnUse" xlink:href="#c"/><linearGradient id="c"><stop stop-color="#fff" offset="0"/><stop stop-color="#898789" offset="1"/></linearGradient><linearGradient id="m" x1="16.95" x2="36.026" y1="6.005" y2="6.005" gradientUnits="userSpaceOnUse" xlink:href="#b"/><linearGradient id="b"><stop stop-color="#f9f9f9" offset="0"/><stop stop-color="#a1a1a2" offset="1"/></linearGradient><linearGradient id="h" x1="17.903" x2="37.862" y1="26.492" y2="29.941" gradientUnits="userSpaceOnUse" xlink:href="#b"/><linearGradient id="g" x1="33.337" x2="46.389" y1="51.885" y2="51.885" gradientTransform="translate(.1 -4)" gradientUnits="userSpaceOnUse"><stop stop-color="#d40000" offset="0"/><stop stop-color="red" offset="1"/></linearGradient><filter id="i" x="-.014" y="-.01" width="1.028" height="1.021" color-interpolation-filters="sRGB"><feGaussianBlur stdDeviation=".161"/></filter><filter id="f" color-interpolation-filters="sRGB"><feColorMatrix result="fbSourceGraphic" values="0.973958 0 0 0.0977109 0.0130208 0 0.973958 0 0.0977109 0.0130208 0 0 0.973958 0.0977109 0.0130208 0 0 0 1 0"/><feColorMatrix in="fbSourceGraphic" result="fbSourceGraphicAlpha" values="0 0 0 -1 0 0 0 0 -1 0 0 0 0 -1 0 0 0 0 1 0"/><feColorMatrix in="fbSourceGraphic" values="0.927083 0 0 0.0300625 0.0364583 0 0.927083 0 0.0300625 0.0364583 0 0 0.927083 0.0300625 0.0364583 0 0 0 1 0"/></filter><filter id="l" x="-.016" y="-.05" width="1.032" height="1.099" color-interpolation-filters="sRGB"><feGaussianBlur stdDeviation=".142"/></filter></defs><path transform="matrix(.57343 0 0 .68815 34.288 9.359)" d="M48.579 11.568c-2.966-.038-6.537.92-8.953 2.855-1.59 1.273-3.007 2.763-3.414 5.348-3.33-.657-7.517.183-9.7 2.315-2.05 2.004-2.07 5.165-1.136 7.844-3.185.452-5.595.632-7.596 3.521-2.655 3.832-2.252 8.628.62 11.787 2.347 2.582 6.017 3.22 9.016 3.158l35.451-.022c3.723-.002 7.992-2.437 9.834-5.875 1.938-3.617 2.021-8.795-.376-12.423-1.694-2.563-4.69-4.453-8.758-4.88.544-3.986-1.963-7.51-5.044-10.1-2.537-2.13-6.536-3.485-9.944-3.528z" color="#000" enable-background="accumulate" fill="url(#e)" filter="url(#f)" stroke="url(#P)" stroke-linejoin="round" stroke-width=".318" style="font-feature-settings:normal;font-variant-alternates:normal;font-variant-caps:normal;font-variant-ligatures:normal;font-variant-numeric:normal;font-variant-position:normal;isolation:auto;mix-blend-mode:normal;shape-padding:0;text-decoration-color:#000;text-decoration-line:none;text-decoration-style:solid;text-indent:0;text-orientation:mixed;text-transform:none;white-space:normal"/><path d="M40.938 43.794v2.541h-7.05v3.1h7.05v2.54l5.102-4.09-2.551-2.046z" fill="url(#g)" fill-rule="evenodd" paint-order="stroke markers fill"/><g stroke-width="1.308"><path d="M18.517 26.162c-.23-.223-.26-.66-.26-.835 0-.493.612-1.08 1.309-1.064.625.013 1.285.55 1.285 1.17 0 1.022-1.382 1.653-2.334.729zm1.612-1.064c0-.223-.12-.334-.361-.334s-.362.111-.362.334c0 .223.12.334.362.334.24 0 .36-.111.36-.334z" enable-background="new" fill="#bd392a"/><path transform="matrix(.87619 0 0 .81511 -.713 6.084)" d="M23.314 14.548c-5.653 0-10.424 3.923-10.424 8.763 0 1.973 1.268 4.527 2.697 6.075-3.802 2.411-6.248 5.918-6.1 10.344.178 6.903 6.232 12.079 13.735 11.998 7.504-.082 13.54-5.702 13.54-12.607l-.015-.596c-.201-3.805-2.261-7.321-5.604-9.568 1.555-1.58 2.408-3.58 2.408-5.646 0-4.84-4.583-8.763-10.236-8.763z" enable-background="new" fill="url(#h)" filter="url(#i)" opacity=".98" stroke="url(#j)" stroke-linecap="round" stroke-linejoin="round" stroke-width=".237" paint-order="markers stroke fill"/><path d="M12.886 28.622c-.626 0-1.248.454-1.403 1.024-.125.462-.051 1.084.289 1.462.217.242.486.37.821.558l.558.322-.987 2.147c-.543 1.181-.987 2.354-.987 2.606 0 .623.333 1.15.849 1.342 1.224.456 1.81-.065 2.971-2.637 1.2-2.66 1.061-2.508 2.096-2.287.478.102 1.809.187 2.957.19 3.4.007 7.503-1.106 8.068-2.208.315-.614.06-1.292-.643-1.718-.491-.299-.663-.288-2.592.269-2.393.69-4.458.93-6.331.73-1.79-.19-2.421-.374-3.957-1.155-.698-.355-1.467-.645-1.71-.645z" enable-background="new" fill="#bd392a"/><path d="M2.871 33.095l3.06 2.688-1.563-3.756m6.172 6.266l-4.61-2.51-3.862-.345m34.424-2.817l-3.06 2.69 1.563-3.757m-6.568 6.668l5.006-2.912 3.86-.344" enable-background="new" fill="none" stroke="#502d16" stroke-width="1"/><path d="M18.368 28.69c-.588-.27-.768-.447-.768-.757 0-.561.387-.645 1.107-.239.769.434 1.717.438 2.414.01.298-.182.687-.332.864-.332.477-.002.582.463.197.863-.811.843-2.522 1.047-3.814.455zm-1.699-4.5c-.815-.44-.44-2 .48-2 .843 0 1.153 1.434.414 1.913-.464.301-.492.304-.894.087zm5.092-.202c-.405-.415-.376-1.127.063-1.533.434-.402.526-.409 1.043-.074.752.488.355 1.912-.533 1.912-.15 0-.408-.137-.573-.305zM10.906 19.64c-.591-.547.01-1.303 1.037-1.303.329.064.642.01 1.174-.037.012-.818-.023-.502.061-2.49.101-2.36.449-2.782 1.454-3.731.271-.256.707-.32 1.088-.392 1.39-.26 4.254-.114 4.254-.114 5.172-.075 5.424-.043 6.355 1.079.56.673.3.894.36 3.167l.063 2.325.826.193c.924.215 1.519.78.953 1.303-.312.29-17.313.29-17.625 0z" enable-background="new" fill="#324e5c"/><path transform="matrix(.66436 0 0 .65906 1.79 9.71)" d="M28.445 2.917c-2.376.016-4.848-.393-7.122.298-1.241.377-2.546.988-3.321 2.03-.436.585-1.085 1.61-.559 2.116.665.64 1.739-.64 2.645-.812.485-.093 1.003-.257 1.477-.117.552.163.945.663 1.37 1.05.58.528.815 1.75 1.596 1.723 1.164-.044 1.339-1.923 2.176-2.732.343-.332.673-.838 1.15-.854.543-.018.827.905 1.37.883.86-.035 1.19-1.543 2.052-1.57.822-.027 1.233 1.44 2.053 1.37.493-.04.722-.678 1.08-1.02.437-.42 1.453-.68 1.304-1.266-.3-1.183-2.317-.807-3.523-.991-1.236-.19-2.498-.116-3.748-.108z" enable-background="new" fill="url(#k)" filter="url(#l)" opacity=".97" stroke="url(#m)" stroke-width="1.511"/></g><path d="M18.462 26.094c-.278-.253-.315-.75-.315-.949 0-.56.74-1.226 1.582-1.209.755.015 1.553.625 1.553 1.33 0 1.161-1.67 1.877-2.82.828zm1.947-1.209c0-.253-.145-.38-.436-.38-.29 0-.436.127-.436.38s.145.38.436.38.436-.127.436-.38z" enable-background="new" fill="#bd392a"/></svg>