<svg xmlns="http://www.w3.org/2000/svg" xmlns:xlink="http://www.w3.org/1999/xlink" viewBox="0 0 80 60" height="60" width="80" enable-background="new"><defs><linearGradient id="d"><stop offset="0" stop-color="#e6e6e6"/><stop offset="1" stop-color="#939393"/></linearGradient><linearGradient xlink:href="#a" id="k" gradientUnits="userSpaceOnUse" x1="22.107" y1="30.016" x2="58.052" y2="14.106" spreadMethod="pad"/><linearGradient id="f"><stop offset="0" stop-color="#08a"/><stop offset="1" stop-color="#08a" stop-opacity="0"/></linearGradient><linearGradient id="a"><stop offset="0" stop-color="#0015b6"/><stop offset="1" stop-color="#00ffdf"/></linearGradient><linearGradient xlink:href="#c" id="y" x1="16.95" y1="6.005" x2="36.026" y2="6.005" gradientUnits="userSpaceOnUse"/><linearGradient id="e"><stop offset="0" stop-color="#d40000"/><stop offset="1" stop-color="red"/></linearGradient><linearGradient xlink:href="#d" id="v" x1="8.974" y1="33.139" x2="37.147" y2="33.139" gradientUnits="userSpaceOnUse"/><linearGradient xlink:href="#c" id="u" gradientUnits="userSpaceOnUse" x1="17.903" y1="26.492" x2="37.862" y2="29.941"/><linearGradient id="g"><stop offset="0" stop-color="#00f"/><stop offset="1" stop-color="#0ff"/></linearGradient><linearGradient xlink:href="#e" id="h" x1="33.337" y1="51.885" x2="46.389" y2="51.885" gradientUnits="userSpaceOnUse" gradientTransform="translate(.1 -4)"/><linearGradient id="b"><stop stop-color="#fff" offset="0"/><stop stop-color="#898789" offset="1"/></linearGradient><linearGradient id="c"><stop offset="0" stop-color="#f9f9f9"/><stop offset="1" stop-color="#a1a1a2"/></linearGradient><linearGradient xlink:href="#a" id="j" gradientUnits="userSpaceOnUse" x1="22.107" y1="30.016" x2="58.052" y2="14.106" spreadMethod="pad"/><linearGradient id="x" x1="51.162" x2="73.325" y1="32.759" y2="32.759" gradientTransform="matrix(.99527 0 0 .94146 -32.407 -24.59)" gradientUnits="userSpaceOnUse" xlink:href="#b"/><linearGradient xlink:href="#f" id="l" gradientUnits="userSpaceOnUse" x1="22.607" y1="17.34" x2="67.214" y2="17.34"/><linearGradient xlink:href="#a" id="i" gradientUnits="userSpaceOnUse" x1="22.107" y1="30.016" x2="58.052" y2="14.106" spreadMethod="pad"/><linearGradient xlink:href="#g" id="m" gradientUnits="userSpaceOnUse" gradientTransform="translate(59.456 -13.869)" x1="28.403" y1="7.993" x2="32.166" y2="9.319"/><linearGradient xlink:href="#g" id="o" gradientUnits="userSpaceOnUse" gradientTransform="translate(52.965 -13.869)" x1="28.403" y1="7.993" x2="32.166" y2="9.319"/><linearGradient xlink:href="#g" id="q" gradientUnits="userSpaceOnUse" gradientTransform="translate(65.948 -11.97)" x1="28.403" y1="7.993" x2="32.166" y2="9.319"/><linearGradient xlink:href="#g" id="s" gradientUnits="userSpaceOnUse" gradientTransform="translate(-.99 .228)" x1="28.403" y1="7.993" x2="32.166" y2="9.319"/><filter id="t" color-interpolation-filters="sRGB"><feComponentTransfer result="component"><feFuncR type="gamma" amplitude="2" exponent="2" offset="-.7"/><feFuncG type="gamma" amplitude="2" exponent="2" offset="-.7"/><feFuncB type="gamma" amplitude="2" exponent="2" offset="-.7"/></feComponentTransfer></filter><filter id="r" color-interpolation-filters="sRGB"><feComponentTransfer result="component"><feFuncR type="gamma" amplitude="2" exponent="2" offset="-.7"/><feFuncG type="gamma" amplitude="2" exponent="2" offset="-.7"/><feFuncB type="gamma" amplitude="2" exponent="2" offset="-.7"/></feComponentTransfer></filter><filter id="p" color-interpolation-filters="sRGB"><feComponentTransfer result="component"><feFuncR type="gamma" amplitude="2" exponent="2" offset="-.7"/><feFuncG type="gamma" amplitude="2" exponent="2" offset="-.7"/><feFuncB type="gamma" amplitude="2" exponent="2" offset="-.7"/></feComponentTransfer></filter><filter id="n" color-interpolation-filters="sRGB"><feComponentTransfer result="component"><feFuncR type="gamma" amplitude="2" exponent="2" offset="-.7"/><feFuncG type="gamma" amplitude="2" exponent="2" offset="-.7"/><feFuncB type="gamma" amplitude="2" exponent="2" offset="-.7"/></feComponentTransfer></filter><filter id="w" x="-.014" width="1.028" y="-.01" height="1.021" color-interpolation-filters="sRGB"><feGaussianBlur stdDeviation=".161"/></filter><filter id="z" x="-.016" y="-.05" width="1.032" height="1.099" color-interpolation-filters="sRGB"><feGaussianBlur stdDeviation=".142"/></filter></defs><path d="M40.938 43.794v2.541h-7.051v3.1h7.05v2.541l2.552-2.045 2.55-2.045-2.55-2.047z" fill="url(#h)" fill-rule="evenodd" paint-order="stroke markers fill"/><g stroke-width="1.246"><g transform="matrix(.77134 0 0 .70665 25.361 11.65)" fill="url(#i)" stroke-width="1.354" fill-rule="evenodd"><path d="M38.542 26.165c-1.7-.05-3.426.37-4.995 1.023-.508.212-1.375.915-1.375.915l-.967-.835c-2.615-1.787-3.767-1.847-7.62-1.194-.836.296-.977.423-.942-.36.08-1.787 2.178-6.473 4.409-8.897 4.06-4.411 8.541-6.81 14.757-7.601.893-.114 1.712-.266 1.784-.34.073-.074.14-.498.216-.97.266-1.02.678-1.265 1.154-1.305.36.02.565.214.694.419.311.532.317 1.32.494 1.839.073.073.868.231 1.762.345 6.215.792 10.848 3.213 14.908 7.625 2.225 2.417 4.452 6.89 4.452 8.945 0 .512-.016.517-1.096.184-2.745-.846-6.567-.209-8.195 1.334l-.84.81s-.72-.697-1.157-.914c-1.212-.6-2.653-.933-3.912-.989-2.418-.107-4.627.66-7.085 1.69-3.123-1.21-4.223-1.658-6.446-1.724z" fill="url(#j)"/><path d="M45.801 27.581l-.813.308-.788-.283.001 16.359m-.045 0h1.747m-1.891.014v3.583c.027 1.14-1.119 1.779-2.105 1.767-1.042-.012-1.758-.907-1.919-1.876-.081-.49.05-1.059-.465-1.465-.403-.259-1.173-.091-1.318.314-.158.41-.135.848-.088 1.264.219 1.018.488 1.994 1.53 2.868.938.786 2.356.87 3.516.601.77-.178 1.512-.711 1.984-1.4.587-.859.86-1.629.831-3.083V43.98" fill="#666" opacity=".97"/><path d="M53.7 45.426c0-4.863.006-6.86.013-4.437.006 2.423.006 6.403 0 8.843-.007 2.441-.013.458-.013-4.406z" opacity=".83" fill="url(#k)" paint-order="markers stroke fill"/><path d="M44.534 27.708l.454.18.443-.18.478-.127c.164 5.766.018 10.198 0 16.4H44.12V27.564z" opacity=".97" fill="#666" paint-order="markers fill stroke"/><path d="M38.418 26.216c-1.676-.056-3.374.476-4.93 1.103-.503.203-1.308.768-1.308.768l-.373-.219c-2.325-1.925-3.699-2.673-8.332-1.73-.836.297-.868.189-.868-.328 0-2.076 2.22-6.564 4.452-9 4.06-4.432 8.763-6.854 14.978-7.65.894-.114 1.47-.242 1.542-.316.073-.074.196-.524.271-.997.134-.837.593-1.255 1.107-1.255s.866.418 1 1.255c.1.572.167.923.24.997.072.074.614.202 1.508.316 6.215.796 10.997 3.219 15.057 7.65 2.225 2.429 4.452 6.924 4.452 8.987 0 .515-.016.52-1.096.186-2.745-.85-6.667-.11-8.295 1.44l-.64.664s-.964-.811-1.474-1.015c-1.339-.535-2.818-.923-4.258-.856-2.24.105-2.722.117-6.463 1.673-3.343-1.571-4.31-1.597-6.57-1.673z" fill="url(#l)"/></g><path d="M92.036-6.65l-.648.404c-.357.221-.885.734-1.172 1.138-.403.568-.46.843-.252 1.205.148.259.44.494.646.524.726.105 1.123-.486 1.276-1.889z" fill="url(#m)" filter="url(#n)" enable-background="new" transform="matrix(.80212 0 0 .80349 -10.317 17.246)"/><path d="M85.545-6.65l-.649.404c-.357.221-.884.734-1.171 1.138-.403.568-.461.843-.252 1.205.148.259.44.494.646.524.726.105 1.123-.486 1.275-1.889z" fill="url(#o)" filter="url(#p)" enable-background="new" transform="matrix(.80212 0 0 .80349 -10.317 17.246)"/><path d="M98.527-4.751l-.648.404c-.357.222-.885.735-1.172 1.139-.403.567-.46.842-.252 1.205.148.259.44.494.646.524.726.105 1.124-.486 1.276-1.89z" fill="url(#q)" filter="url(#r)" enable-background="new" transform="matrix(.80212 0 0 .80349 -10.317 17.246)"/><path d="M31.59 7.447l-.65.404c-.356.222-.884.734-1.171 1.139-.403.567-.46.842-.252 1.205.149.258.44.493.646.523.726.105 1.124-.486 1.276-1.889z" fill="url(#s)" filter="url(#t)" enable-background="new" transform="matrix(.80212 0 0 .80349 27.756 7.446)"/></g><g stroke-width="1.308"><path d="M18.516 26.162c-.23-.223-.26-.66-.26-.835 0-.493.612-1.08 1.31-1.065.624.014 1.285.55 1.285 1.17 0 1.023-1.382 1.653-2.335.73zm1.613-1.064c0-.223-.12-.334-.362-.334-.24 0-.36.111-.36.334 0 .223.12.334.36.334.241 0 .362-.111.362-.334z" fill="#bd392a" enable-background="new"/><path transform="matrix(.8762 0 0 .8151 -.714 6.084)" d="M23.314 14.548c-5.653 0-10.425 3.924-10.425 8.763 0 1.973 1.268 4.528 2.698 6.075-3.803 2.412-6.249 5.918-6.1 10.344.177 6.903 6.232 12.08 13.735 11.998 7.503-.081 13.54-5.702 13.54-12.607l-.016-.596c-.201-3.804-2.261-7.32-5.604-9.567 1.555-1.58 2.408-3.58 2.408-5.647 0-4.84-4.583-8.763-10.236-8.763z" opacity=".98" fill="url(#u)" stroke="url(#v)" stroke-width=".237" stroke-linecap="round" stroke-linejoin="round" paint-order="markers stroke fill" filter="url(#w)" enable-background="new"/><path d="M12.885 28.621c-.625 0-1.248.455-1.402 1.025-.126.462-.052 1.084.288 1.461.218.242.487.371.821.558l.558.323-.987 2.147c-.542 1.181-.986 2.353-.986 2.605 0 .624.332 1.15.848 1.343 1.224.456 1.81-.065 2.972-2.638 1.2-2.66 1.06-2.507 2.096-2.286.477.102 1.808.187 2.957.19 3.4.006 7.503-1.106 8.068-2.209.314-.613.06-1.291-.643-1.718-.492-.298-.663-.288-2.592.27-2.393.69-4.458.929-6.332.73-1.788-.19-2.42-.374-3.956-1.155-.698-.355-1.467-.646-1.71-.646z" fill="#bd392a" enable-background="new"/><path d="M2.87 33.094l3.06 2.69-1.563-3.757m6.172 6.266l-4.61-2.51-3.861-.345m34.424-2.817l-3.06 2.69 1.563-3.757m-6.568 6.668l5.006-2.912 3.86-.345" fill="none" stroke="#502d16" enable-background="new" stroke-width="1"/><path d="M18.367 28.69c-.588-.27-.767-.447-.767-.757 0-.561.387-.645 1.106-.239.77.434 1.717.438 2.415.01.298-.182.687-.332.863-.332.477-.002.583.463.197.863-.81.843-2.522 1.047-3.814.455zm-1.698-4.5c-.816-.44-.441-2 .48-2 .842 0 1.152 1.434.414 1.913-.465.301-.492.304-.894.087zm5.092-.202c-.406-.415-.377-1.127.062-1.533.435-.402.527-.409 1.043-.074.753.488.356 1.912-.533 1.912-.15 0-.408-.137-.572-.305zm-10.856-4.346c-.59-.547.012-1.304 1.038-1.304.328.064.642.01 1.174-.037.011-.818-.024-.502.061-2.49.101-2.36.449-2.782 1.454-3.731.27-.256.707-.32 1.088-.391 1.39-.26 4.253-.115 4.253-.115 5.173-.075 5.424-.043 6.356 1.08.559.672.3.894.36 3.166l.063 2.326.826.192c.924.216 1.518.78.952 1.304-.312.288-17.312.288-17.625 0z" fill="#324e5c" enable-background="new"/><path transform="matrix(.66436 0 0 .65906 1.789 9.71)" d="M28.445 2.917c-2.376.016-4.848-.393-7.122.298-1.241.377-2.546.988-3.321 2.03-.436.585-1.085 1.61-.56 2.116.666.64 1.74-.64 2.646-.812.485-.093 1.003-.257 1.477-.117.552.163.945.663 1.37 1.05.58.528.815 1.75 1.596 1.723 1.164-.044 1.339-1.923 2.176-2.732.343-.332.673-.838 1.15-.854.543-.018.827.905 1.37.883.86-.035 1.19-1.543 2.052-1.57.822-.027 1.233 1.44 2.053 1.37.493-.04.722-.678 1.08-1.02.437-.42 1.453-.68 1.304-1.266-.3-1.183-2.317-.807-3.523-.991-1.236-.19-2.498-.116-3.748-.108z" opacity=".97" fill="url(#x)" stroke="url(#y)" stroke-width="1.511" filter="url(#z)" enable-background="new"/><path d="M18.46 26.093c-.277-.253-.314-.749-.314-.948 0-.56.74-1.227 1.582-1.21.755.016 1.553.625 1.553 1.33 0 1.162-1.67 1.878-2.82.828zm1.949-1.208c0-.253-.146-.38-.437-.38-.29 0-.436.127-.436.38s.145.38.436.38c.291 0 .437-.127.437-.38z" fill="#bd392a" enable-background="new"/></g></svg>