<svg width="80" height="60" viewBox="0 0 80 60" xmlns="http://www.w3.org/2000/svg" xmlns:xlink="http://www.w3.org/1999/xlink"><defs><linearGradient id="a"><stop stop-color="#ff0" offset="0"/><stop stop-color="#ff0" stop-opacity="0" offset="1"/></linearGradient><linearGradient id="c" x1="28.762" x2="80.868" y1="70.122" y2="35.195" gradientTransform="translate(1.472 .554)" gradientUnits="userSpaceOnUse"><stop stop-color="#ff0" offset="0"/><stop stop-color="#ff0" stop-opacity="0" offset="1"/></linearGradient><linearGradient id="b" x1="-23.288" x2="-9.795" y1="22.406" y2="17.062" gradientTransform="translate(37.696 5.758)" gradientUnits="userSpaceOnUse" xlink:href="#a"/></defs><g stroke-width="1.065" paint-order="markers stroke fill"><path d="M38.472 31.467l-5.295-2.49-5.054 2.95.732-5.806-4.368-3.894 5.748-1.098 2.355-5.358 2.82 5.128 5.823.583-4.005 4.267z" fill="#ff7f2a"/><path d="M33.208 52.002c-6.865-1.932-12.535-6.927-15.218-13.407-.234-.565-.396-1.048-.36-1.074.035-.026.528.38 1.096.9 6.787 6.226 17.037 6.982 24.687 1.822 3.555-2.397 6.122-5.662 7.696-9.789.394-1.033.5-1.505.856-3.846s.396-2.823.328-3.927c-.375-6.013-3.082-11.217-7.77-14.937-.913-.725-.933-.75-.525-.689.234.036 1.029.238 1.767.45 8.307 2.38 14.564 9.182 16.284 17.702.534 2.646.58 5.092.148 7.927-.586 3.846-1.812 6.915-3.984 9.977-2.963 4.175-7.429 7.366-12.32 8.803-4.057 1.191-8.654 1.223-12.685.089z" fill="#ff7f2a"/><path transform="translate(16.397 10.983) scale(.7198)" d="M30.669 28.458l-7.357-3.46-7.02 4.1 1.016-8.067-6.068-5.41 7.986-1.526 3.27-7.443 3.919 7.124 8.089.81-5.564 5.928z" fill="url(#b)"/><path d="M54.49 60.194c-7.539-.934-14.31-5.284-18.175-11.678-.337-.557-.585-1.04-.552-1.072.033-.033.618.314 1.3.772 8.145 5.467 19.06 4.62 26.288-2.04 3.36-3.096 5.538-6.945 6.534-11.543.25-1.151.284-1.665.284-4.187 0-2.523-.034-3.036-.284-4.188-1.359-6.272-5.043-11.318-10.577-14.484-1.078-.616-1.102-.64-.662-.64.25 0 1.12.085 1.932.19 9.129 1.173 16.809 7.333 19.986 16.03.986 2.7 1.427 5.268 1.427 8.323 0 4.143-.799 7.573-2.595 11.145-2.45 4.871-6.642 8.948-11.562 11.245-4.081 1.905-8.917 2.676-13.343 2.128z" fill="url(#c)" transform="rotate(8.658 71.965 -64.288) scale(.93882)"/></g></svg>