<svg width="80" height="60" enable-background="new" viewBox="0 0 80 60" xmlns="http://www.w3.org/2000/svg" xmlns:xlink="http://www.w3.org/1999/xlink"><defs><linearGradient id="b"><stop stop-color="#b3b3b3" offset="0"/><stop stop-color="#b3b3b3" stop-opacity="0" offset="1"/></linearGradient><linearGradient id="a"><stop stop-color="#ff0" offset="0"/><stop stop-color="#ff0" stop-opacity="0" offset="1"/></linearGradient><linearGradient id="e" x1="-23.288" x2="-9.795" y1="22.406" y2="17.062" gradientTransform="translate(37.696 5.758)" gradientUnits="userSpaceOnUse" xlink:href="#a"/><linearGradient id="f" x1="28.762" x2="80.868" y1="70.122" y2="35.195" gradientTransform="translate(1.472 .554)" gradientUnits="userSpaceOnUse" xlink:href="#a"/><linearGradient id="c" x1="33.224" x2="64.158" y1="40.922" y2="8.928" gradientUnits="userSpaceOnUse" xlink:href="#b"/><filter id="d" color-interpolation-filters="sRGB"><feColorMatrix result="fbSourceGraphic" values="0.973958 0 0 0.0977109 0.0130208 0 0.973958 0 0.0977109 0.0130208 0 0 0.973958 0.0977109 0.0130208 0 0 0 1 0"/><feColorMatrix in="fbSourceGraphic" result="fbSourceGraphicAlpha" values="0 0 0 -1 0 0 0 0 -1 0 0 0 0 -1 0 0 0 0 1 0"/><feColorMatrix in="fbSourceGraphic" values="0.927083 0 0 0.0300625 0.0364583 0 0.927083 0 0.0300625 0.0364583 0 0 0.927083 0.0300625 0.0364583 0 0 0 1 0"/></filter></defs><path transform="matrix(.47158 0 0 .56555 38.819 23.193)" d="M48.579 11.568c-2.966-.038-6.537.92-8.953 2.855-1.59 1.273-3.007 2.763-3.414 5.348-3.33-.657-7.517.183-9.7 2.315-2.05 2.004-2.07 5.165-1.136 7.844-3.185.452-5.595.632-7.596 3.521-2.655 3.832-2.252 8.628.62 11.787 2.347 2.582 6.017 3.22 9.016 3.158l35.451-.022c3.723-.002 7.992-2.437 9.834-5.875 1.938-3.617 2.021-8.795-.376-12.423-1.694-2.563-4.69-4.453-8.758-4.88.544-3.986-1.963-7.51-5.044-10.1-2.537-2.13-6.536-3.485-9.944-3.528z" color="#000" enable-background="accumulate" fill="url(#c)" filter="url(#d)" stroke="url(#O)" stroke-linejoin="round" stroke-width=".387" style="font-feature-settings:normal;font-variant-alternates:normal;font-variant-caps:normal;font-variant-ligatures:normal;font-variant-numeric:normal;font-variant-position:normal;isolation:auto;mix-blend-mode:normal;shape-padding:0;text-decoration-color:#000;text-decoration-line:none;text-decoration-style:solid;text-indent:0;text-orientation:mixed;text-transform:none;white-space:normal"/><g stroke-width="1.327" paint-order="markers stroke fill"><path d="M26.777 28.258l-4.25-1.998-4.054 2.367.587-4.659-3.505-3.125 4.613-.88 1.889-4.3 2.263 4.115 4.672.468-3.214 3.424z" fill="#ff7f2a"/><path d="M22.553 44.735c-5.509-1.55-10.058-5.558-12.212-10.758-.187-.453-.317-.84-.289-.861.028-.021.425.304.88.722 5.446 4.995 13.67 5.602 19.81 1.462 2.852-1.924 4.912-4.543 6.175-7.855.316-.83.4-1.208.687-3.086.286-1.879.318-2.265.263-3.151-.3-4.825-2.473-9.001-6.235-11.987-.732-.581-.748-.602-.42-.552.187.029.825.19 1.417.36 6.666 1.91 11.687 7.369 13.066 14.205.429 2.123.465 4.086.119 6.361-.47 3.086-1.453 5.55-3.197 8.006-2.377 3.35-5.96 5.91-9.886 7.064-3.255.955-6.943.981-10.178.071z" fill="#ff7f2a"/><path transform="translate(9.063 11.821) scale(.57758)" d="M30.669 28.458l-7.357-3.46-7.02 4.1 1.016-8.067-6.068-5.41 7.986-1.526 3.27-7.443 3.919 7.124 8.089.81-5.564 5.928z" fill="url(#e)"/><path d="M54.49 60.194c-7.539-.934-14.31-5.284-18.175-11.678-.337-.557-.585-1.04-.552-1.072.033-.033.618.314 1.3.772 8.145 5.467 19.06 4.62 26.288-2.04 3.36-3.096 5.538-6.945 6.534-11.543.25-1.151.284-1.665.284-4.187 0-2.523-.034-3.036-.284-4.188-1.359-6.272-5.043-11.318-10.577-14.484-1.078-.616-1.102-.64-.662-.64.25 0 1.12.085 1.932.19 9.129 1.173 16.809 7.333 19.986 16.03.986 2.7 1.427 5.268 1.427 8.323 0 4.143-.799 7.573-2.595 11.145-2.45 4.871-6.642 8.948-11.562 11.245-4.081 1.905-8.917 2.676-13.343 2.128z" fill="url(#f)" transform="rotate(8.658 35.833 -77.121) scale(.75333)"/></g></svg>