<svg width="80" height="60" enable-background="new" viewBox="0 0 80 60" xmlns="http://www.w3.org/2000/svg" xmlns:xlink="http://www.w3.org/1999/xlink"><defs><linearGradient id="o" x1="-23.288" x2="-9.795" y1="22.406" y2="17.062" gradientTransform="translate(37.696 5.758)" gradientUnits="userSpaceOnUse" xlink:href="#b"/><linearGradient id="a"><stop stop-color="#00f" offset="0"/><stop stop-color="#0ff" offset="1"/></linearGradient><linearGradient id="d"><stop stop-color="#08a" offset="0"/><stop stop-color="#08a" stop-opacity="0" offset="1"/></linearGradient><linearGradient id="c"><stop stop-color="#0015b6" offset="0"/><stop stop-color="#00ffdf" offset="1"/></linearGradient><linearGradient id="b"><stop stop-color="#ff0" offset="0"/><stop stop-color="#ff0" stop-opacity="0" offset="1"/></linearGradient><linearGradient id="m" x1="28.403" x2="32.166" y1="7.993" y2="9.319" gradientTransform="translate(-.99 .228)" gradientUnits="userSpaceOnUse" xlink:href="#a"/><linearGradient id="p" x1="28.762" x2="80.868" y1="70.122" y2="35.195" gradientTransform="translate(1.472 .554)" gradientUnits="userSpaceOnUse" xlink:href="#b"/><linearGradient id="k" x1="28.403" x2="32.166" y1="7.993" y2="9.319" gradientTransform="translate(65.948 -11.969)" gradientUnits="userSpaceOnUse" xlink:href="#a"/><linearGradient id="i" x1="28.403" x2="32.166" y1="7.993" y2="9.319" gradientTransform="translate(52.965 -13.869)" gradientUnits="userSpaceOnUse" xlink:href="#a"/><linearGradient id="g" x1="28.403" x2="32.166" y1="7.993" y2="9.319" gradientTransform="translate(59.456 -13.869)" gradientUnits="userSpaceOnUse" xlink:href="#a"/><linearGradient id="e" x1="22.107" x2="58.052" y1="30.016" y2="14.106" gradientUnits="userSpaceOnUse" xlink:href="#c"/><linearGradient id="f" x1="22.607" x2="67.214" y1="17.34" y2="17.34" gradientUnits="userSpaceOnUse" xlink:href="#d"/><filter id="l" color-interpolation-filters="sRGB"><feComponentTransfer result="component"><feFuncR amplitude="2" exponent="2" offset="-.7" type="gamma"/><feFuncG amplitude="2" exponent="2" offset="-.7" type="gamma"/><feFuncB amplitude="2" exponent="2" offset="-.7" type="gamma"/></feComponentTransfer></filter><filter id="h" color-interpolation-filters="sRGB"><feComponentTransfer result="component"><feFuncR amplitude="2" exponent="2" offset="-.7" type="gamma"/><feFuncG amplitude="2" exponent="2" offset="-.7" type="gamma"/><feFuncB amplitude="2" exponent="2" offset="-.7" type="gamma"/></feComponentTransfer></filter><filter id="j" color-interpolation-filters="sRGB"><feComponentTransfer result="component"><feFuncR amplitude="2" exponent="2" offset="-.7" type="gamma"/><feFuncG amplitude="2" exponent="2" offset="-.7" type="gamma"/><feFuncB amplitude="2" exponent="2" offset="-.7" type="gamma"/></feComponentTransfer></filter><filter id="n" color-interpolation-filters="sRGB"><feComponentTransfer result="component"><feFuncR amplitude="2" exponent="2" offset="-.7" type="gamma"/><feFuncG amplitude="2" exponent="2" offset="-.7" type="gamma"/><feFuncB amplitude="2" exponent="2" offset="-.7" type="gamma"/></feComponentTransfer></filter></defs><g stroke-width="1.729" fill-rule="evenodd"><g fill="url(#e)" transform="matrix(.60346 0 0 .55422 32.975 25.738)"><path d="M38.542 26.165c-1.699-.05-3.426.37-4.995 1.024-.508.211-1.374.914-1.374.914l-.968-.835c-2.615-1.787-3.767-1.847-7.62-1.194-.836.296-.977.423-.942-.36.08-1.787 2.178-6.472 4.41-8.897 4.06-4.411 8.54-6.81 14.756-7.601.894-.114 1.713-.266 1.785-.34.073-.073.14-.498.216-.969.266-1.02.678-1.265 1.154-1.306.36.021.565.214.694.419.31.532.317 1.32.494 1.839.073.073.868.231 1.761.345 6.216.792 10.848 3.213 14.908 7.625 2.225 2.417 4.453 6.89 4.453 8.945 0 .512-.017.517-1.097.184-2.745-.846-6.567-.209-8.195 1.334l-.84.81s-.72-.697-1.157-.914c-1.212-.6-2.653-.933-3.912-.989-2.417-.106-4.626.66-7.085 1.69-3.122-1.21-4.223-1.658-6.446-1.724z"/><path d="M45.802 27.58l-.814.308-.787-.283v16.36m-.045 0h1.747m-1.89.014v3.582c.026 1.141-1.12 1.779-2.105 1.767-1.042-.012-1.759-.907-1.92-1.875-.08-.49.051-1.06-.465-1.465-.402-.26-1.173-.092-1.318.314-.157.408-.135.848-.088 1.264.219 1.017.488 1.993 1.53 2.867.938.786 2.356.87 3.516.602.77-.18 1.513-.712 1.984-1.401.587-.858.861-1.628.831-3.083v-2.572" fill="#666" opacity=".97"/><path d="M53.7 45.426c0-4.864.006-6.86.012-4.437.007 2.423.007 6.403 0 8.843-.006 2.44-.012.458-.012-4.406z" opacity=".83" paint-order="markers stroke fill"/></g><path d="M59.85 41.095l.273.1.268-.1.288-.07c.1 3.195.011 5.651 0 9.088H59.6v-9.097z" fill="#666" opacity=".97" paint-order="markers fill stroke"/><path d="M38.418 26.216c-1.676-.056-3.374.476-4.93 1.103-.503.203-1.308.768-1.308.768l-.373-.219c-2.325-1.925-3.7-2.674-8.332-1.73-.836.297-.868.188-.868-.328 0-2.076 2.22-6.564 4.452-9 4.06-4.432 8.763-6.854 14.978-7.65.894-.114 1.47-.242 1.542-.316.073-.074.195-.524.27-.997.135-.837.594-1.255 1.108-1.255s.866.418 1 1.255c.1.571.167.923.24.997.072.074.614.202 1.507.316 6.216.796 10.997 3.218 15.057 7.65 2.225 2.429 4.453 6.923 4.453 8.987 0 .515-.017.52-1.097.185-2.745-.85-6.666-.109-8.294 1.441l-.641.664s-.964-.811-1.473-1.015c-1.34-.535-2.819-.924-4.259-.856-2.24.105-2.721.117-6.463 1.673-3.343-1.571-4.31-1.598-6.57-1.673z" fill="url(#f)" transform="matrix(.60346 0 0 .55422 32.975 25.738)"/></g><g stroke-width="1.59"><path d="M92.036-6.65l-.648.404c-.357.221-.885.734-1.172 1.138-.403.568-.46.843-.252 1.205.148.259.44.494.646.524.726.105 1.123-.486 1.276-1.889z" enable-background="new" fill="url(#g)" filter="url(#h)" transform="matrix(.62754 0 0 .63018 5.062 30.128)"/><path d="M85.545-6.65l-.648.404c-.357.221-.885.734-1.172 1.138-.403.568-.46.843-.252 1.205.148.259.44.494.646.524.726.105 1.123-.486 1.276-1.889z" enable-background="new" fill="url(#i)" filter="url(#j)" transform="matrix(.62754 0 0 .63018 5.062 30.128)"/><path d="M98.527-4.751l-.648.404c-.357.222-.885.735-1.172 1.139-.403.567-.46.842-.252 1.205.148.259.44.494.646.524.726.105 1.123-.486 1.276-1.89z" enable-background="new" fill="url(#k)" filter="url(#l)" transform="matrix(.62754 0 0 .63018 5.062 30.128)"/><path d="M31.589 7.447l-.648.404c-.357.222-.885.734-1.172 1.139-.403.567-.46.842-.252 1.205.148.258.44.493.646.523.726.105 1.123-.486 1.276-1.889z" enable-background="new" fill="url(#m)" filter="url(#n)" transform="matrix(.62754 0 0 .63018 34.848 22.441)"/></g><g stroke-width="1.327" paint-order="markers stroke fill"><path d="M26.777 28.258l-4.25-1.998-4.054 2.367.587-4.659-3.505-3.125 4.613-.88 1.889-4.3 2.263 4.115 4.672.468-3.214 3.424z" fill="#ff7f2a"/><path d="M22.553 44.735c-5.509-1.55-10.058-5.558-12.212-10.758-.187-.453-.317-.84-.289-.861.028-.021.425.304.88.722 5.446 4.995 13.67 5.602 19.81 1.462 2.852-1.924 4.912-4.543 6.175-7.855.316-.83.4-1.208.687-3.086.286-1.879.318-2.265.263-3.151-.3-4.825-2.473-9.001-6.235-11.987-.732-.581-.748-.602-.42-.552.187.029.825.19 1.417.36 6.666 1.91 11.687 7.369 13.066 14.205.429 2.123.465 4.086.119 6.361-.47 3.086-1.453 5.55-3.197 8.006-2.377 3.35-5.96 5.91-9.886 7.064-3.255.955-6.943.981-10.178.071z" fill="#ff7f2a"/><path transform="translate(9.063 11.821) scale(.57758)" d="M30.669 28.458l-7.357-3.46-7.02 4.1 1.016-8.067-6.068-5.41 7.986-1.526 3.27-7.443 3.919 7.124 8.089.81-5.564 5.928z" fill="url(#o)"/><path d="M54.49 60.194c-7.539-.934-14.31-5.284-18.175-11.678-.337-.557-.585-1.04-.552-1.072.033-.033.618.314 1.3.772 8.145 5.467 19.06 4.62 26.288-2.04 3.36-3.096 5.538-6.945 6.534-11.543.25-1.151.284-1.665.284-4.187 0-2.523-.034-3.036-.284-4.188-1.359-6.272-5.043-11.318-10.577-14.484-1.078-.616-1.102-.64-.662-.64.25 0 1.12.085 1.932.19 9.129 1.173 16.809 7.333 19.986 16.03.986 2.7 1.427 5.268 1.427 8.323 0 4.143-.799 7.573-2.595 11.145-2.45 4.871-6.642 8.948-11.562 11.245-4.081 1.905-8.917 2.676-13.343 2.128z" fill="url(#p)" transform="rotate(8.658 35.833 -77.121) scale(.75333)"/></g></svg>