<svg width="80" height="60" enable-background="new" viewBox="0 0 80 60" xmlns="http://www.w3.org/2000/svg" xmlns:xlink="http://www.w3.org/1999/xlink"><defs><linearGradient id="a"><stop stop-color="#e6e6e6" offset="0"/><stop stop-color="#939393" offset="1"/></linearGradient><linearGradient id="i" x1="8.974" x2="37.147" y1="33.139" y2="33.139" gradientUnits="userSpaceOnUse" xlink:href="#a"/><linearGradient id="b"><stop stop-color="#ff0" offset="0"/><stop stop-color="#ff0" stop-opacity="0" offset="1"/></linearGradient><linearGradient id="l" x1="16.95" x2="36.026" y1="6.005" y2="6.005" gradientUnits="userSpaceOnUse" xlink:href="#c"/><linearGradient id="m" x1="-23.288" x2="-9.795" y1="22.406" y2="17.062" gradientTransform="translate(37.696 5.758)" gradientUnits="userSpaceOnUse" xlink:href="#b"/><linearGradient id="j" x1="51.162" x2="73.325" y1="32.759" y2="32.759" gradientTransform="matrix(.99527 0 0 .94146 -32.407 -24.589)" gradientUnits="userSpaceOnUse" xlink:href="#d"/><linearGradient id="d"><stop stop-color="#fff" offset="0"/><stop stop-color="#898789" offset="1"/></linearGradient><linearGradient id="n" x1="28.762" x2="80.868" y1="70.122" y2="35.195" gradientTransform="translate(1.472 .554)" gradientUnits="userSpaceOnUse" xlink:href="#b"/><linearGradient id="c"><stop stop-color="#f9f9f9" offset="0"/><stop stop-color="#a1a1a2" offset="1"/></linearGradient><linearGradient id="g" x1="17.903" x2="37.862" y1="26.492" y2="29.941" gradientUnits="userSpaceOnUse" xlink:href="#c"/><linearGradient id="e" x1="25.139" x2="44.405" y1="30.894" y2="32.872" gradientUnits="userSpaceOnUse" xlink:href="#a"/><filter id="f" x="-.014" y="-.01" width="1.028" height="1.021" color-interpolation-filters="sRGB"><feGaussianBlur stdDeviation=".161"/></filter><filter id="h" x="-.014" y="-.01" width="1.028" height="1.021" color-interpolation-filters="sRGB"><feGaussianBlur stdDeviation=".161"/></filter><filter id="k" x="-.016" y="-.05" width="1.032" height="1.099" color-interpolation-filters="sRGB"><feGaussianBlur stdDeviation=".142"/></filter></defs><g stroke-width="1.393"><path d="M23.314 14.548c-5.653 0-10.424 3.923-10.424 8.763 0 1.973 1.268 4.527 2.697 6.075-3.802 2.411-6.33 5.784-6.224 10.033.177 6.903 6.356 12.39 13.86 12.309 7.503-.082 13.54-5.702 13.54-12.607l-.016-.596c-.202-3.805-2.262-7.321-5.604-9.568 1.555-1.58 2.408-3.58 2.408-5.646 0-4.84-4.583-8.763-10.236-8.763z" fill="url(#e)" filter="url(#f)" opacity=".98" paint-order="markers stroke fill" transform="matrix(.78078 0 0 .6602 41.963 20.718)"/><g stroke-width="1.571"><path d="M58.92 36.98c-.2-.18-.227-.534-.227-.676 0-.4.535-.874 1.145-.862.547.01 1.125.445 1.125.948 0 .828-1.209 1.338-2.042.59zm1.411-.861c0-.18-.105-.271-.316-.271-.21 0-.316.09-.316.27 0 .181.105.271.316.271.21 0 .316-.09.316-.27z" fill="#bd392a"/><path d="M58.597 39.028c-.515-.218-.672-.361-.672-.613 0-.454.339-.522.968-.193.673.351 1.503.355 2.113.008.26-.148.6-.269.755-.27.418 0 .51.376.173.7-.71.683-2.207.848-3.337.368zm-1.383-3.645c-.714-.356-.386-1.619.42-1.619.737 0 1.008 1.161.362 1.549-.407.244-.43.246-.782.07zm4.318-.163c-.355-.336-.33-.913.055-1.242.38-.325.46-.33.913-.06.658.395.31 1.55-.467 1.55-.132 0-.357-.112-.5-.248zm-9.464-3.52c-.517-.444.01-1.056.908-1.056.287.052.561.007 1.027-.03.01-.663-.02-.407.054-2.017.088-1.912.392-2.254 1.271-3.022.238-.207.619-.26.953-.317 1.216-.211 3.72-.093 3.72-.093 4.526-.06 4.81.004 5.625.913.489.545.394.841.448 2.682l.054 1.884h.527c.83 0 1.329.631.833 1.055-.273.234-15.147.234-15.42 0z" fill="#324e5c"/></g><path d="M53.84 38.973c-.547 0-1.091.368-1.227.83-.11.374-.045.877.252 1.183.19.196.426.3.72.452l.487.261-.863 1.74c-.475.956-.864 1.905-.864 2.11 0 .505.291.93.743 1.087 1.07.37 1.584-.053 2.6-2.136 1.05-2.155.928-2.031 1.834-1.852.417.082 1.582.151 2.587.153 2.975.006 6.564-.895 7.059-1.788.275-.497.053-1.046-.563-1.392-.43-.241-.58-.233-2.268.218-2.093.56-3.9.753-5.54.592-1.564-.154-2.117-.303-3.461-.936-.61-.287-1.284-.523-1.496-.523z" fill="#bd392a"/></g><g stroke-width="1.606"><path d="M59 37.27c-.188-.182-.213-.537-.213-.68 0-.402.5-.88 1.067-.867.51.01 1.047.448 1.047.953 0 .833-1.125 1.347-1.902.594zm1.313-.867c0-.181-.098-.272-.294-.272-.197 0-.295.09-.295.272 0 .182.098.273.295.273.196 0 .294-.091.294-.273z" enable-background="new" fill="#bd392a"/><path transform="matrix(.71384 0 0 .66408 43.333 20.912)" d="M23.314 14.548c-5.653 0-10.424 3.923-10.424 8.763 0 1.973 1.268 4.527 2.697 6.075-3.802 2.411-6.248 5.918-6.1 10.344.178 6.903 6.232 12.079 13.735 11.998 7.504-.082 13.54-5.702 13.54-12.607l-.015-.596c-.201-3.805-2.261-7.321-5.604-9.568 1.555-1.58 2.408-3.58 2.408-5.646 0-4.84-4.583-8.763-10.236-8.763z" enable-background="new" fill="url(#g)" filter="url(#h)" opacity=".98" stroke="url(#i)" stroke-linecap="round" stroke-linejoin="round" stroke-width=".29" paint-order="markers stroke fill"/><path d="M54.412 39.274c-.51 0-1.017.37-1.143.835-.102.376-.042.883.235 1.19.177.198.397.303.67.455l.454.263-.804 1.75c-.442.961-.804 1.916-.804 2.122 0 .508.27.936.691 1.093.997.372 1.475-.052 2.421-2.148.978-2.168.864-2.043 1.708-1.863.389.083 1.473.152 2.409.154 2.77.006 6.113-.9 6.573-1.799.256-.5.05-1.052-.524-1.4-.4-.242-.54-.234-2.112.22-1.95.563-3.632.757-5.158.595-1.457-.155-1.972-.305-3.224-.941-.568-.29-1.195-.526-1.392-.526z" enable-background="new" fill="#bd392a"/><path d="M46.253 42.918l2.492 2.19-1.273-3.06m5.029 5.106l-3.756-2.045-3.146-.282m28.045-2.294l-2.492 2.19 1.273-3.06m-5.352 5.433l4.079-2.373 3.145-.28" enable-background="new" fill="none" stroke="#502d16" stroke-width="1"/><path d="M58.878 39.33c-.479-.22-.625-.364-.625-.617 0-.457.315-.525.901-.195.627.354 1.4.357 1.968.009.242-.149.559-.27.703-.271.388-.002.475.377.16.703-.66.687-2.054.853-3.107.37zm-1.384-3.667c-.664-.359-.359-1.628.392-1.628.686 0 .938 1.168.337 1.558-.379.245-.401.247-.729.07zm4.149-.164c-.33-.338-.307-.918.05-1.249.355-.328.43-.333.85-.06.614.397.29 1.558-.434 1.558-.122 0-.332-.112-.466-.25zm-8.844-3.541c-.482-.446.009-1.062.845-1.062.267.052.523.007.956-.03.01-.667-.019-.41.05-2.029.083-1.923.366-2.267 1.185-3.04.22-.208.576-.26.886-.319 1.133-.212 3.465-.093 3.465-.093 4.214-.06 4.42-.035 5.178.88.456.548.244.728.294 2.58l.05 1.894.674.157c.752.175 1.237.635.776 1.062-.254.235-14.105.235-14.359 0z" enable-background="new" fill="#324e5c"/><path transform="matrix(.54126 0 0 .53694 45.333 23.588)" d="M28.445 2.917c-2.376.016-4.848-.393-7.122.298-1.241.377-2.546.988-3.321 2.03-.436.585-1.085 1.61-.559 2.116.665.64 1.739-.64 2.645-.812.485-.093 1.003-.257 1.477-.117.552.163.945.663 1.37 1.05.58.528.815 1.75 1.596 1.723 1.164-.044 1.339-1.923 2.176-2.732.343-.332.673-.838 1.15-.854.543-.018.827.905 1.37.883.86-.035 1.19-1.543 2.052-1.57.822-.027 1.233 1.44 2.053 1.37.493-.04.722-.678 1.08-1.02.437-.42 1.453-.68 1.304-1.266-.3-1.183-2.317-.807-3.523-.991-1.236-.19-2.498-.116-3.748-.108z" enable-background="new" fill="url(#j)" filter="url(#k)" opacity=".97" stroke="url(#l)" stroke-width="1.855"/></g><path d="M58.955 37.215c-.227-.207-.257-.61-.257-.773 0-.457.603-1 1.29-.985.614.012 1.264.508 1.264 1.083 0 .946-1.36 1.53-2.297.675zm1.586-.985c0-.206-.118-.31-.355-.31s-.356.104-.356.31.119.31.356.31.355-.104.355-.31z" enable-background="new" fill="#bd392a"/><g stroke-width="1.327" paint-order="markers stroke fill"><path d="M26.702 28.258l-4.25-1.998-4.054 2.367.587-4.659-3.505-3.125 4.613-.88 1.889-4.3 2.263 4.115 4.672.468-3.214 3.424z" fill="#ff7f2a"/><path d="M22.478 44.735c-5.509-1.55-10.058-5.558-12.212-10.758-.187-.453-.317-.84-.289-.861.028-.021.425.304.88.722 5.446 4.995 13.67 5.602 19.81 1.462 2.852-1.924 4.912-4.543 6.175-7.855.316-.83.4-1.208.687-3.086.286-1.879.318-2.265.263-3.151-.3-4.825-2.473-9.001-6.235-11.987-.732-.581-.748-.602-.42-.552.187.029.825.19 1.417.36 6.666 1.91 11.687 7.369 13.066 14.205.429 2.123.465 4.086.119 6.361-.47 3.086-1.453 5.55-3.197 8.006-2.377 3.35-5.96 5.91-9.886 7.064-3.255.955-6.943.981-10.178.071z" fill="#ff7f2a"/><path transform="translate(8.988 11.821) scale(.57758)" d="M30.669 28.458l-7.357-3.46-7.02 4.1 1.016-8.067-6.068-5.41 7.986-1.526 3.27-7.443 3.919 7.124 8.089.81-5.564 5.928z" fill="url(#m)"/><path d="M54.49 60.194c-7.539-.934-14.31-5.284-18.175-11.678-.337-.557-.585-1.04-.552-1.072.033-.033.618.314 1.3.772 8.145 5.467 19.06 4.62 26.288-2.04 3.36-3.096 5.538-6.945 6.534-11.543.25-1.151.284-1.665.284-4.187 0-2.523-.034-3.036-.284-4.188-1.359-6.272-5.043-11.318-10.577-14.484-1.078-.616-1.102-.64-.662-.64.25 0 1.12.085 1.932.19 9.129 1.173 16.809 7.333 19.986 16.03.986 2.7 1.427 5.268 1.427 8.323 0 4.143-.799 7.573-2.595 11.145-2.45 4.871-6.642 8.948-11.562 11.245-4.081 1.905-8.917 2.676-13.343 2.128z" fill="url(#n)" transform="rotate(8.658 35.796 -77.617) scale(.75333)"/></g></svg>