<svg width="80" height="60" enable-background="new" viewBox="0 0 80 60" xmlns="http://www.w3.org/2000/svg" xmlns:xlink="http://www.w3.org/1999/xlink"><defs><linearGradient id="a"><stop stop-color="#ff0" offset="0"/><stop stop-color="#ff0" stop-opacity="0" offset="1"/></linearGradient><linearGradient id="b"><stop stop-color="#b3b3b3" offset="0"/><stop stop-color="#b3b3b3" stop-opacity="0" offset="1"/></linearGradient><linearGradient id="f" x1="-23.288" x2="-9.795" y1="22.406" y2="17.062" gradientTransform="translate(37.696 5.758)" gradientUnits="userSpaceOnUse" xlink:href="#a"/><linearGradient id="g" x1="28.762" x2="80.868" y1="70.122" y2="35.195" gradientTransform="translate(1.472 .554)" gradientUnits="userSpaceOnUse" xlink:href="#a"/><linearGradient id="e" x1="33.337" x2="46.389" y1="51.885" y2="51.885" gradientTransform="translate(.1 -4)" gradientUnits="userSpaceOnUse"><stop stop-color="#d40000" offset="0"/><stop stop-color="red" offset="1"/></linearGradient><linearGradient id="c" x1="33.224" x2="64.158" y1="40.922" y2="8.928" gradientUnits="userSpaceOnUse" xlink:href="#b"/><filter id="d" color-interpolation-filters="sRGB"><feColorMatrix result="fbSourceGraphic" values="0.973958 0 0 0.0977109 0.0130208 0 0.973958 0 0.0977109 0.0130208 0 0 0.973958 0.0977109 0.0130208 0 0 0 1 0"/><feColorMatrix in="fbSourceGraphic" result="fbSourceGraphicAlpha" values="0 0 0 -1 0 0 0 0 -1 0 0 0 0 -1 0 0 0 0 1 0"/><feColorMatrix in="fbSourceGraphic" values="0.927083 0 0 0.0300625 0.0364583 0 0.927083 0 0.0300625 0.0364583 0 0 0.927083 0.0300625 0.0364583 0 0 0 1 0"/></filter></defs><path transform="matrix(.57276 0 0 .68735 34.299 9.398)" d="M48.579 11.568c-2.966-.038-6.537.92-8.953 2.855-1.59 1.273-3.007 2.763-3.414 5.348-3.33-.657-7.517.183-9.7 2.315-2.05 2.004-2.07 5.165-1.136 7.844-3.185.452-5.595.632-7.596 3.521-2.655 3.832-2.252 8.628.62 11.787 2.347 2.582 6.017 3.22 9.016 3.158l35.451-.022c3.723-.002 7.992-2.437 9.834-5.875 1.938-3.617 2.021-8.795-.376-12.423-1.694-2.563-4.69-4.453-8.758-4.88.544-3.986-1.963-7.51-5.044-10.1-2.537-2.13-6.536-3.485-9.944-3.528z" color="#000" enable-background="accumulate" fill="url(#c)" filter="url(#d)" stroke="url(#P)" stroke-linejoin="round" stroke-width=".319" style="font-feature-settings:normal;font-variant-alternates:normal;font-variant-caps:normal;font-variant-ligatures:normal;font-variant-numeric:normal;font-variant-position:normal;isolation:auto;mix-blend-mode:normal;shape-padding:0;text-decoration-color:#000;text-decoration-line:none;text-decoration-style:solid;text-indent:0;text-orientation:mixed;text-transform:none;white-space:normal"/><path d="M40.938 43.794v2.541h-7.05v3.1h7.05v2.54l5.102-4.09-2.551-2.046z" fill="url(#e)" fill-rule="evenodd" paint-order="stroke markers fill"/><g stroke-width="1.493" paint-order="markers stroke fill"><path d="M18.918 31.063l-3.777-1.777-3.604 2.105.522-4.141-3.116-2.778 4.1-.783 1.68-3.822 2.011 3.658 4.153.416-2.856 3.043z" fill="#ff7f2a"/><path d="M15.163 45.71c-4.896-1.379-8.94-4.941-10.854-9.564-.167-.402-.283-.747-.257-.765.025-.019.377.27.782.642 4.84 4.44 12.152 4.98 17.609 1.3 2.535-1.71 4.366-4.04 5.489-6.983.28-.737.356-1.073.61-2.743s.283-2.014.234-2.801c-.267-4.29-2.198-8.001-5.542-10.655-.651-.517-.665-.535-.374-.49.166.025.733.169 1.26.32 5.925 1.697 10.388 6.55 11.615 12.626.38 1.887.413 3.632.105 5.654-.417 2.743-1.292 4.933-2.841 7.117-2.113 2.978-5.299 5.254-8.788 6.278-2.893.85-6.172.873-9.047.064z" fill="#ff7f2a"/><path transform="translate(3.173 16.452) scale(.51341)" d="M30.669 28.458l-7.357-3.46-7.02 4.1 1.016-8.067-6.068-5.41 7.986-1.526 3.27-7.443 3.919 7.124 8.089.81-5.564 5.928z" fill="url(#f)"/><path d="M54.49 60.194c-7.539-.934-14.31-5.284-18.175-11.678-.337-.557-.585-1.04-.552-1.072.033-.033.618.314 1.3.772 8.145 5.467 19.06 4.62 26.288-2.04 3.36-3.096 5.538-6.945 6.534-11.543.25-1.151.284-1.665.284-4.187 0-2.523-.034-3.036-.284-4.188-1.359-6.272-5.043-11.318-10.577-14.484-1.078-.616-1.102-.64-.662-.64.25 0 1.12.085 1.932.19 9.129 1.173 16.809 7.333 19.986 16.03.986 2.7 1.427 5.268 1.427 8.323 0 4.143-.799 7.573-2.595 11.145-2.45 4.871-6.642 8.948-11.562 11.245-4.081 1.905-8.917 2.676-13.343 2.128z" fill="url(#g)" transform="rotate(8.658 -9.85 -97.835) scale(.66963)"/></g></svg>