<svg width="80" height="60" enable-background="new" viewBox="0 0 80 60" xmlns="http://www.w3.org/2000/svg" xmlns:xlink="http://www.w3.org/1999/xlink"><defs><linearGradient id="b"><stop stop-color="#b3b3b3" offset="0"/><stop stop-color="#b3b3b3" stop-opacity="0" offset="1"/></linearGradient><linearGradient id="a"><stop stop-color="#ff0" offset="0"/><stop stop-color="#ff0" stop-opacity="0" offset="1"/></linearGradient><linearGradient id="e" x1="-23.288" x2="-9.795" y1="22.406" y2="17.062" gradientTransform="translate(37.696 5.758)" gradientUnits="userSpaceOnUse" xlink:href="#a"/><linearGradient id="f" x1="28.762" x2="80.868" y1="70.122" y2="35.195" gradientTransform="translate(1.624 .665)" gradientUnits="userSpaceOnUse" xlink:href="#a"/><linearGradient id="c" x1="33.224" x2="64.158" y1="40.922" y2="8.928" gradientUnits="userSpaceOnUse" xlink:href="#b"/><filter id="d" color-interpolation-filters="sRGB"><feColorMatrix result="fbSourceGraphic" values="0.973958 0 0 0.0977109 0.0130208 0 0.973958 0 0.0977109 0.0130208 0 0 0.973958 0.0977109 0.0130208 0 0 0 1 0"/><feColorMatrix in="fbSourceGraphic" result="fbSourceGraphicAlpha" values="0 0 0 -1 0 0 0 0 -1 0 0 0 0 -1 0 0 0 0 1 0"/><feColorMatrix in="fbSourceGraphic" values="0.927083 0 0 0.0300625 0.0364583 0 0.927083 0 0.0300625 0.0364583 0 0 0.927083 0.0300625 0.0364583 0 0 0 1 0"/></filter></defs><path transform="matrix(.68013 0 0 .81497 -.987 2.627)" d="M46.913 11.808c-2.666-.172-5.62.336-7.77 1.662-2.488 1.533-4.823 3.16-4.845 6.603-4.742-1.086-7.315.1-9.484 2.148-2.138 2.019-2.4 5-1.366 8.001-4.598 0-7.178 2.552-8.346 5.303-1.333 3.141.272 7.16 2.839 9.713 2.016 2.006 5.618 3.22 8.617 3.158l33.607-.021c3.722-.003 7.786-2.91 9.476-5.876 2.133-3.743 1.677-8.763-.656-12.423-1.65-2.589-4.407-4.807-8.474-5.233-.119-3.067-1.483-7.217-4.341-9.72-2.316-2.03-5.91-3.099-9.257-3.315z" color="#000" enable-background="accumulate" fill="url(#c)" filter="url(#d)" stroke="url(#p)" stroke-linejoin="round" stroke-width=".269" style="font-feature-settings:normal;font-variant-alternates:normal;font-variant-caps:normal;font-variant-ligatures:normal;font-variant-numeric:normal;font-variant-position:normal;isolation:auto;mix-blend-mode:normal;shape-padding:0;text-decoration-color:#000;text-decoration-line:none;text-decoration-style:solid;text-indent:0;text-orientation:mixed;text-transform:none;white-space:normal"/><g stroke-width="1.843" paint-order="markers stroke fill"><path d="M59.072 40.999l-3.06-1.44-2.92 1.706.422-3.356-2.524-2.25 3.322-.635 1.36-3.096 1.63 2.963 3.366.337-2.315 2.466z" fill="#ff7f2a"/><path d="M56.03 52.866c-3.968-1.116-7.244-4.003-8.795-7.748-.135-.326-.229-.605-.209-.62.02-.015.306.219.635.52 3.922 3.598 9.845 4.035 14.267 1.053 2.054-1.386 3.538-3.273 4.447-5.658.228-.597.289-.87.495-2.222.206-1.354.23-1.632.19-2.27-.217-3.475-1.781-6.483-4.49-8.633-.529-.418-.54-.433-.304-.397.135.02.594.137 1.021.26 4.8 1.374 8.417 5.306 9.41 10.23.31 1.529.336 2.942.086 4.581-.338 2.223-1.047 3.997-2.302 5.766-1.712 2.413-4.293 4.257-7.12 5.087-2.345.689-5.001.708-7.331.052z" fill="#ff7f2a"/><path transform="matrix(.416 0 0 .416 46.314 29.16)" d="M30.669 28.458l-7.357-3.46-7.02 4.1 1.016-8.067-6.068-5.41 7.986-1.526 3.27-7.443 3.919 7.124 8.089.81-5.564 5.928z" fill="url(#e)"/><path d="M54.641 60.305c-7.539-.934-14.31-5.284-18.175-11.678-.337-.557-.585-1.04-.552-1.072.033-.033.618.314 1.3.772 8.145 5.467 19.06 4.62 26.288-2.04 3.36-3.096 5.538-6.945 6.534-11.543.25-1.151.284-1.665.284-4.187 0-2.523-.034-3.036-.284-4.188-1.359-6.272-5.043-11.318-10.577-14.484-1.078-.616-1.102-.64-.662-.64.25 0 1.12.085 1.932.19 9.129 1.173 16.809 7.333 19.986 16.03.986 2.7 1.427 5.268 1.427 8.323 0 4.143-.799 7.573-2.595 11.145-2.45 4.871-6.642 8.948-11.562 11.245-4.081 1.905-8.917 2.676-13.343 2.128z" fill="url(#f)" transform="rotate(8.658 -90.664 217.557) scale(.54257)"/></g></svg>