<svg width="80" height="60" enable-background="new" viewBox="0 0 80 60" xmlns="http://www.w3.org/2000/svg" xmlns:xlink="http://www.w3.org/1999/xlink"><defs><linearGradient id="q" x1="28.762" x2="80.868" y1="70.122" y2="35.195" gradientTransform="translate(1.472 .554)" gradientUnits="userSpaceOnUse" xlink:href="#b"/><linearGradient id="a"><stop stop-color="#00f" offset="0"/><stop stop-color="#0ff" offset="1"/></linearGradient><linearGradient id="d"><stop stop-color="#08a" offset="0"/><stop stop-color="#08a" stop-opacity="0" offset="1"/></linearGradient><linearGradient id="c"><stop stop-color="#0015b6" offset="0"/><stop stop-color="#00ffdf" offset="1"/></linearGradient><linearGradient id="b"><stop stop-color="#ff0" offset="0"/><stop stop-color="#ff0" stop-opacity="0" offset="1"/></linearGradient><linearGradient id="n" x1="28.403" x2="32.166" y1="7.993" y2="9.319" gradientTransform="translate(-.99 .228)" gradientUnits="userSpaceOnUse" xlink:href="#a"/><linearGradient id="p" x1="-23.288" x2="-9.795" y1="22.406" y2="17.062" gradientTransform="translate(37.696 5.758)" gradientUnits="userSpaceOnUse" xlink:href="#b"/><linearGradient id="l" x1="28.403" x2="32.166" y1="7.993" y2="9.319" gradientTransform="translate(65.948 -11.969)" gradientUnits="userSpaceOnUse" xlink:href="#a"/><linearGradient id="j" x1="28.403" x2="32.166" y1="7.993" y2="9.319" gradientTransform="translate(52.965 -13.869)" gradientUnits="userSpaceOnUse" xlink:href="#a"/><linearGradient id="h" x1="28.403" x2="32.166" y1="7.993" y2="9.319" gradientTransform="translate(59.456 -13.869)" gradientUnits="userSpaceOnUse" xlink:href="#a"/><linearGradient id="e" x1="33.337" x2="46.389" y1="51.885" y2="51.885" gradientTransform="translate(.1 -4)" gradientUnits="userSpaceOnUse"><stop stop-color="#d40000" offset="0"/><stop stop-color="red" offset="1"/></linearGradient><linearGradient id="f" x1="22.107" x2="58.052" y1="30.016" y2="14.106" gradientUnits="userSpaceOnUse" xlink:href="#c"/><linearGradient id="g" x1="22.607" x2="67.214" y1="17.34" y2="17.34" gradientUnits="userSpaceOnUse" xlink:href="#d"/><filter id="i" color-interpolation-filters="sRGB"><feComponentTransfer result="component"><feFuncR amplitude="2" exponent="2" offset="-.7" type="gamma"/><feFuncG amplitude="2" exponent="2" offset="-.7" type="gamma"/><feFuncB amplitude="2" exponent="2" offset="-.7" type="gamma"/></feComponentTransfer></filter><filter id="k" color-interpolation-filters="sRGB"><feComponentTransfer result="component"><feFuncR amplitude="2" exponent="2" offset="-.7" type="gamma"/><feFuncG amplitude="2" exponent="2" offset="-.7" type="gamma"/><feFuncB amplitude="2" exponent="2" offset="-.7" type="gamma"/></feComponentTransfer></filter><filter id="m" color-interpolation-filters="sRGB"><feComponentTransfer result="component"><feFuncR amplitude="2" exponent="2" offset="-.7" type="gamma"/><feFuncG amplitude="2" exponent="2" offset="-.7" type="gamma"/><feFuncB amplitude="2" exponent="2" offset="-.7" type="gamma"/></feComponentTransfer></filter><filter id="o" color-interpolation-filters="sRGB"><feComponentTransfer result="component"><feFuncR amplitude="2" exponent="2" offset="-.7" type="gamma"/><feFuncG amplitude="2" exponent="2" offset="-.7" type="gamma"/><feFuncB amplitude="2" exponent="2" offset="-.7" type="gamma"/></feComponentTransfer></filter></defs><path d="M40.938 43.794v2.541h-7.05v3.1h7.05v2.54l5.102-4.09-2.551-2.046z" fill="url(#e)" fill-rule="evenodd" paint-order="stroke markers fill"/><g stroke-width="1.263" fill-rule="evenodd"><g fill="url(#f)" transform="matrix(.8273 0 0 .75743 -17.22 10.351)"><path d="M38.542 26.165c-1.699-.05-3.426.37-4.995 1.024-.508.211-1.374.914-1.374.914l-.968-.835c-2.615-1.787-3.767-1.847-7.62-1.194-.836.296-.977.423-.942-.36.08-1.787 2.178-6.472 4.41-8.897 4.06-4.411 8.54-6.81 14.756-7.601.894-.114 1.713-.266 1.785-.34.073-.073.14-.498.216-.969.266-1.02.678-1.265 1.154-1.306.36.021.565.214.694.419.31.532.317 1.32.494 1.839.073.073.868.231 1.761.345 6.216.792 10.848 3.213 14.908 7.625 2.225 2.417 4.453 6.89 4.453 8.945 0 .512-.017.517-1.097.184-2.745-.846-6.567-.209-8.195 1.334l-.84.81s-.72-.697-1.157-.914c-1.212-.6-2.653-.933-3.912-.989-2.417-.106-4.626.66-7.085 1.69-3.122-1.21-4.223-1.658-6.446-1.724z"/><path d="M45.802 27.58l-.814.308-.787-.283v16.36m-.045 0h1.747m-1.89.014v3.582c.026 1.141-1.12 1.779-2.105 1.767-1.042-.012-1.759-.907-1.92-1.875-.08-.49.051-1.06-.465-1.465-.402-.26-1.173-.092-1.318.314-.157.408-.135.848-.088 1.264.219 1.017.488 1.993 1.53 2.867.938.786 2.356.87 3.516.602.77-.18 1.513-.712 1.984-1.401.587-.858.861-1.628.831-3.083v-2.572" fill="#666" opacity=".97"/><path d="M53.7 45.426c0-4.864.006-6.86.012-4.437.007 2.423.007 6.403 0 8.843-.006 2.44-.012.458-.012-4.406z" opacity=".83" paint-order="markers stroke fill"/></g><path d="M19.623 31.338l.375.137.367-.137.395-.096c.136 4.367.015 7.724 0 12.421h-1.48V31.23z" fill="#666" opacity=".97" paint-order="markers fill stroke"/><path d="M38.418 26.216c-1.676-.056-3.374.476-4.93 1.103-.503.203-1.308.768-1.308.768l-.373-.219c-2.325-1.925-3.7-2.674-8.332-1.73-.836.297-.868.188-.868-.328 0-2.076 2.22-6.564 4.452-9 4.06-4.432 8.763-6.854 14.978-7.65.894-.114 1.47-.242 1.542-.316.073-.074.195-.524.27-.997.135-.837.594-1.255 1.108-1.255s.866.418 1 1.255c.1.571.167.923.24.997.072.074.614.202 1.507.316 6.216.796 10.997 3.218 15.057 7.65 2.225 2.429 4.453 6.923 4.453 8.987 0 .515-.017.52-1.097.185-2.745-.85-6.666-.109-8.294 1.441l-.641.664s-.964-.811-1.473-1.015c-1.34-.535-2.819-.924-4.259-.856-2.24.105-2.721.117-6.463 1.673-3.343-1.571-4.31-1.598-6.57-1.673z" fill="url(#g)" transform="matrix(.8273 0 0 .75743 -17.22 10.351)"/></g><g stroke-width="1.162"><path d="M92.036-6.65l-.648.404c-.357.221-.885.734-1.172 1.138-.403.568-.46.843-.252 1.205.148.259.44.494.646.524.726.105 1.123-.486 1.276-1.889z" enable-background="new" fill="url(#h)" filter="url(#i)" transform="matrix(.86031 0 0 .86123 -55.486 16.35)"/><path d="M85.545-6.65l-.648.404c-.357.221-.885.734-1.172 1.138-.403.568-.46.843-.252 1.205.148.259.44.494.646.524.726.105 1.123-.486 1.276-1.889z" enable-background="new" fill="url(#j)" filter="url(#k)" transform="matrix(.86031 0 0 .86123 -55.486 16.35)"/><path d="M98.527-4.751l-.648.404c-.357.222-.885.735-1.172 1.139-.403.567-.46.842-.252 1.205.148.259.44.494.646.524.726.105 1.123-.486 1.276-1.89z" enable-background="new" fill="url(#l)" filter="url(#m)" transform="matrix(.86031 0 0 .86123 -55.486 16.35)"/><path d="M31.589 7.447l-.648.404c-.357.222-.885.734-1.172 1.139-.403.567-.46.842-.252 1.205.148.258.44.493.646.523.726.105 1.123-.486 1.276-1.889z" enable-background="new" fill="url(#n)" filter="url(#o)" transform="matrix(.86031 0 0 .86123 -14.652 5.845)"/></g><g stroke-width="1.493" paint-order="markers stroke fill"><path d="M59.019 31.063l-3.777-1.777-3.605 2.105.522-4.141-3.115-2.778 4.1-.783 1.679-3.822 2.011 3.658 4.154.416-2.857 3.043z" fill="#ff7f2a"/><path d="M55.264 45.71c-4.897-1.379-8.94-4.941-10.855-9.564-.167-.402-.282-.747-.257-.765.025-.019.377.27.783.642 4.84 4.44 12.15 4.98 17.608 1.3 2.536-1.71 4.366-4.04 5.489-6.983.281-.737.356-1.073.61-2.743.255-1.67.283-2.014.234-2.801-.267-4.29-2.198-8.001-5.542-10.655-.65-.517-.665-.535-.374-.49.167.025.734.169 1.26.32 5.925 1.697 10.389 6.55 11.615 12.626.38 1.887.413 3.632.106 5.654-.418 2.743-1.292 4.933-2.842 7.117-2.113 2.978-5.299 5.254-8.788 6.278-2.893.85-6.172.873-9.047.064z" fill="#ff7f2a"/><path transform="translate(43.273 16.452) scale(.51341)" d="M30.669 28.458l-7.357-3.46-7.02 4.1 1.016-8.067-6.068-5.41 7.986-1.526 3.27-7.443 3.919 7.124 8.089.81-5.564 5.928z" fill="url(#p)"/><path d="M54.49 60.194c-7.539-.934-14.31-5.284-18.175-11.678-.337-.557-.585-1.04-.552-1.072.033-.033.618.314 1.3.772 8.145 5.467 19.06 4.62 26.288-2.04 3.36-3.096 5.538-6.945 6.534-11.543.25-1.151.284-1.665.284-4.187 0-2.523-.034-3.036-.284-4.188-1.359-6.272-5.043-11.318-10.577-14.484-1.078-.616-1.102-.64-.662-.64.25 0 1.12.085 1.932.19 9.129 1.173 16.809 7.333 19.986 16.03.986 2.7 1.427 5.268 1.427 8.323 0 4.143-.799 7.573-2.595 11.145-2.45 4.871-6.642 8.948-11.562 11.245-4.081 1.905-8.917 2.676-13.343 2.128z" fill="url(#q)" transform="rotate(8.658 10.2 167.015) scale(.66963)"/></g></svg>