<svg width="80" height="60" enable-background="new" viewBox="0 0 80 60" xmlns="http://www.w3.org/2000/svg" xmlns:xlink="http://www.w3.org/1999/xlink"><defs><linearGradient id="d"><stop stop-color="#e6e6e6" offset="0"/><stop stop-color="#939393" offset="1"/></linearGradient><linearGradient id="c"><stop stop-color="#fff" offset="0"/><stop stop-color="#898789" offset="1"/></linearGradient><linearGradient id="a"><stop stop-color="#ff0" offset="0"/><stop stop-color="#ff0" stop-opacity="0" offset="1"/></linearGradient><linearGradient id="j" x1="16.95" x2="36.026" y1="6.005" y2="6.005" gradientUnits="userSpaceOnUse" xlink:href="#b"/><linearGradient id="l" x1="28.762" x2="80.868" y1="70.122" y2="35.195" gradientTransform="translate(1.624 .665)" gradientUnits="userSpaceOnUse" xlink:href="#a"/><linearGradient id="h" x1="51.162" x2="73.325" y1="32.759" y2="32.759" gradientTransform="matrix(.99527 0 0 .94146 -32.407 -24.589)" gradientUnits="userSpaceOnUse" xlink:href="#c"/><linearGradient id="k" x1="-23.288" x2="-9.795" y1="22.406" y2="17.062" gradientTransform="translate(37.696 5.758)" gradientUnits="userSpaceOnUse" xlink:href="#a"/><linearGradient id="g" x1="8.974" x2="37.147" y1="33.139" y2="33.139" gradientUnits="userSpaceOnUse" xlink:href="#d"/><linearGradient id="b"><stop stop-color="#f9f9f9" offset="0"/><stop stop-color="#a1a1a2" offset="1"/></linearGradient><linearGradient id="e" x1="17.903" x2="37.862" y1="26.492" y2="29.941" gradientUnits="userSpaceOnUse" xlink:href="#b"/><filter id="f" x="-.014" y="-.01" width="1.028" height="1.021" color-interpolation-filters="sRGB"><feGaussianBlur stdDeviation=".161"/></filter><filter id="i" x="-.016" y="-.05" width="1.032" height="1.099" color-interpolation-filters="sRGB"><feGaussianBlur stdDeviation=".142"/></filter></defs><g stroke-width=".997"><path d="M23.75 24.306c-.3-.293-.34-.865-.34-1.096 0-.646.802-1.415 1.717-1.396.82.018 1.686.722 1.686 1.536 0 1.34-1.812 2.168-3.062.956zm2.116-1.395c0-.293-.158-.439-.474-.439-.316 0-.474.146-.474.439 0 .292.158.438.474.438.316 0 .474-.146.474-.438z" enable-background="new" fill="#bd392a"/><path transform="matrix(1.1494 0 0 1.0693 -1.475 -2.033)" d="M23.314 14.548c-5.653 0-10.424 3.923-10.424 8.763 0 1.973 1.268 4.527 2.697 6.075-3.802 2.411-6.248 5.918-6.1 10.344.178 6.903 6.232 12.079 13.735 11.998 7.504-.082 13.54-5.702 13.54-12.607l-.015-.596c-.201-3.805-2.261-7.321-5.604-9.568 1.555-1.58 2.408-3.58 2.408-5.646 0-4.84-4.583-8.763-10.236-8.763z" enable-background="new" fill="url(#e)" filter="url(#f)" opacity=".98" stroke="url(#g)" stroke-linecap="round" stroke-linejoin="round" stroke-width=".18" paint-order="markers stroke fill"/><path d="M16.364 27.533c-.82 0-1.637.596-1.84 1.344-.164.606-.067 1.421.378 1.917.286.317.639.486 1.078.732l.732.423-1.295 2.817c-.712 1.549-1.294 3.087-1.294 3.417 0 .818.436 1.509 1.113 1.761 1.605.599 2.375-.084 3.898-3.46 1.575-3.489 1.392-3.289 2.75-3 .626.135 2.372.246 3.879.25 4.46.009 9.842-1.45 10.583-2.897.413-.804.08-1.694-.843-2.254-.645-.39-.87-.377-3.4.353-3.14.907-5.849 1.22-8.306.959-2.347-.249-3.176-.491-5.19-1.516-.916-.465-1.925-.846-2.243-.846z" enable-background="new" fill="#bd392a"/><path d="M3.227 33.4l4.013 3.528L5.19 32m8.096 8.22L7.24 36.928l-5.065-.453m45.156-3.695l-4.013 3.528 2.05-4.928m-8.617 8.747l6.567-3.82 5.065-.452" enable-background="new" fill="none" stroke="#502d16" stroke-width="1"/><path d="M23.555 27.622c-.77-.353-1.007-.586-1.007-.993 0-.736.508-.845 1.452-.313 1.01.57 2.253.575 3.168.014.39-.24.9-.436 1.132-.437.626-.002.765.607.259 1.133-1.064 1.105-3.309 1.373-5.004.596zm-2.227-5.903c-1.07-.578-.58-2.623.63-2.623 1.104 0 1.51 1.881.542 2.509-.61.395-.645.399-1.172.114zm6.679-.265c-.532-.544-.494-1.478.082-2.01.57-.528.69-.537 1.368-.098.988.64.467 2.509-.699 2.509-.197 0-.535-.18-.75-.401zm-14.24-5.702c-.776-.717.014-1.71 1.361-1.71.43.084.841.012 1.54-.049.015-1.073-.031-.658.08-3.266.132-3.096.588-3.65 1.907-4.894.356-.336.927-.42 1.428-.514 1.823-.341 5.58-.15 5.58-.15 6.784-.098 7.115-.056 8.336 1.416.734.883.393 1.173.473 4.154l.082 3.05 1.084.253c1.212.283 1.992 1.023 1.25 1.71-.41.38-22.712.38-23.12 0z" enable-background="new" fill="#324e5c"/><path transform="matrix(.87152 0 0 .86457 1.746 2.276)" d="M28.445 2.917c-2.376.016-4.848-.393-7.122.298-1.241.377-2.546.988-3.321 2.03-.436.585-1.085 1.61-.559 2.116.665.64 1.739-.64 2.645-.812.485-.093 1.003-.257 1.477-.117.552.163.945.663 1.37 1.05.58.528.815 1.75 1.596 1.723 1.164-.044 1.339-1.923 2.176-2.732.343-.332.673-.838 1.15-.854.543-.018.827.905 1.37.883.86-.035 1.19-1.543 2.052-1.57.822-.027 1.233 1.44 2.053 1.37.493-.04.722-.678 1.08-1.02.437-.42 1.453-.68 1.304-1.266-.3-1.183-2.317-.807-3.523-.991-1.236-.19-2.498-.116-3.748-.108z" enable-background="new" fill="url(#h)" filter="url(#i)" opacity=".97" stroke="url(#j)" stroke-width="1.152"/></g><path d="M23.679 24.217c-.365-.333-.413-.983-.413-1.245 0-.735.97-1.609 2.075-1.586.99.02 2.037.82 2.037 1.744 0 1.524-2.19 2.463-3.7 1.087zm2.555-1.586c0-.332-.191-.498-.573-.498-.381 0-.572.166-.572.498s.19.498.572.498.573-.166.573-.498z" enable-background="new" fill="#bd392a"/><g stroke-width="1.843" paint-order="markers stroke fill"><path d="M59.072 40.999l-3.06-1.44-2.92 1.706.422-3.356-2.524-2.25 3.322-.635 1.36-3.096 1.63 2.963 3.366.337-2.315 2.466z" fill="#ff7f2a"/><path d="M56.03 52.866c-3.968-1.116-7.244-4.003-8.795-7.748-.135-.326-.229-.605-.209-.62.02-.015.306.219.635.52 3.922 3.598 9.845 4.035 14.267 1.053 2.054-1.386 3.538-3.273 4.447-5.658.228-.597.289-.87.495-2.222.206-1.354.23-1.632.19-2.27-.217-3.475-1.781-6.483-4.49-8.633-.529-.418-.54-.433-.304-.397.135.02.594.137 1.021.26 4.8 1.374 8.417 5.306 9.41 10.23.31 1.529.336 2.942.086 4.581-.338 2.223-1.047 3.997-2.302 5.766-1.712 2.413-4.293 4.257-7.12 5.087-2.345.689-5.001.708-7.331.052z" fill="#ff7f2a"/><path transform="matrix(.416 0 0 .416 46.314 29.16)" d="M30.669 28.458l-7.357-3.46-7.02 4.1 1.016-8.067-6.068-5.41 7.986-1.526 3.27-7.443 3.919 7.124 8.089.81-5.564 5.928z" fill="url(#k)"/><path d="M54.641 60.305c-7.539-.934-14.31-5.284-18.175-11.678-.337-.557-.585-1.04-.552-1.072.033-.033.618.314 1.3.772 8.145 5.467 19.06 4.62 26.288-2.04 3.36-3.096 5.538-6.945 6.534-11.543.25-1.151.284-1.665.284-4.187 0-2.523-.034-3.036-.284-4.188-1.359-6.272-5.043-11.318-10.577-14.484-1.078-.616-1.102-.64-.662-.64.25 0 1.12.085 1.932.19 9.129 1.173 16.809 7.333 19.986 16.03.986 2.7 1.427 5.268 1.427 8.323 0 4.143-.799 7.573-2.595 11.145-2.45 4.871-6.642 8.948-11.562 11.245-4.081 1.905-8.917 2.676-13.343 2.128z" fill="url(#l)" transform="rotate(8.658 -90.664 217.557) scale(.54257)"/></g></svg>