<svg width="80" height="60" enable-background="new" viewBox="0 0 80 60" xmlns="http://www.w3.org/2000/svg" xmlns:xlink="http://www.w3.org/1999/xlink"><defs><linearGradient id="d"><stop stop-color="#e6e6e6" offset="0"/><stop stop-color="#939393" offset="1"/></linearGradient><linearGradient id="c"><stop stop-color="#fff" offset="0"/><stop stop-color="#898789" offset="1"/></linearGradient><linearGradient id="a"><stop stop-color="#ff0" offset="0"/><stop stop-color="#ff0" stop-opacity="0" offset="1"/></linearGradient><linearGradient id="k" x1="16.95" x2="36.026" y1="6.005" y2="6.005" gradientUnits="userSpaceOnUse" xlink:href="#b"/><linearGradient id="m" x1="28.762" x2="80.868" y1="70.122" y2="35.195" gradientTransform="translate(1.472 .554)" gradientUnits="userSpaceOnUse" xlink:href="#a"/><linearGradient id="i" x1="51.162" x2="73.325" y1="32.759" y2="32.759" gradientTransform="matrix(.99527 0 0 .94146 -32.407 -24.589)" gradientUnits="userSpaceOnUse" xlink:href="#c"/><linearGradient id="l" x1="-23.288" x2="-9.795" y1="22.406" y2="17.062" gradientTransform="translate(37.696 5.758)" gradientUnits="userSpaceOnUse" xlink:href="#a"/><linearGradient id="h" x1="8.974" x2="37.147" y1="33.139" y2="33.139" gradientUnits="userSpaceOnUse" xlink:href="#d"/><linearGradient id="b"><stop stop-color="#f9f9f9" offset="0"/><stop stop-color="#a1a1a2" offset="1"/></linearGradient><linearGradient id="f" x1="17.903" x2="37.862" y1="26.492" y2="29.941" gradientUnits="userSpaceOnUse" xlink:href="#b"/><linearGradient id="e" x1="33.337" x2="46.389" y1="51.885" y2="51.885" gradientTransform="translate(.1 -4)" gradientUnits="userSpaceOnUse"><stop stop-color="#d40000" offset="0"/><stop stop-color="red" offset="1"/></linearGradient><filter id="g" x="-.014" y="-.01" width="1.028" height="1.021" color-interpolation-filters="sRGB"><feGaussianBlur stdDeviation=".161"/></filter><filter id="j" x="-.016" y="-.05" width="1.032" height="1.099" color-interpolation-filters="sRGB"><feGaussianBlur stdDeviation=".142"/></filter></defs><path d="M40.938 43.794v2.541h-7.05v3.1h7.05v2.54l5.102-4.09-2.551-2.046z" fill="url(#e)" fill-rule="evenodd" paint-order="stroke markers fill"/><g stroke-width="1.308"><path d="M18.517 26.162c-.23-.223-.26-.66-.26-.835 0-.493.612-1.08 1.309-1.064.625.013 1.285.55 1.285 1.17 0 1.022-1.382 1.653-2.334.729zm1.612-1.064c0-.223-.12-.334-.361-.334s-.362.111-.362.334c0 .223.12.334.362.334.24 0 .36-.111.36-.334z" enable-background="new" fill="#bd392a"/><path transform="matrix(.87619 0 0 .81511 -.713 6.084)" d="M23.314 14.548c-5.653 0-10.424 3.923-10.424 8.763 0 1.973 1.268 4.527 2.697 6.075-3.802 2.411-6.248 5.918-6.1 10.344.178 6.903 6.232 12.079 13.735 11.998 7.504-.082 13.54-5.702 13.54-12.607l-.015-.596c-.201-3.805-2.261-7.321-5.604-9.568 1.555-1.58 2.408-3.58 2.408-5.646 0-4.84-4.583-8.763-10.236-8.763z" enable-background="new" fill="url(#f)" filter="url(#g)" opacity=".98" stroke="url(#h)" stroke-linecap="round" stroke-linejoin="round" stroke-width=".237" paint-order="markers stroke fill"/><path d="M12.886 28.622c-.626 0-1.248.454-1.403 1.024-.125.462-.051 1.084.289 1.462.217.242.486.37.821.558l.558.322-.987 2.147c-.543 1.181-.987 2.354-.987 2.606 0 .623.333 1.15.849 1.342 1.224.456 1.81-.065 2.971-2.637 1.2-2.66 1.061-2.508 2.096-2.287.478.102 1.809.187 2.957.19 3.4.007 7.503-1.106 8.068-2.208.315-.614.06-1.292-.643-1.718-.491-.299-.663-.288-2.592.269-2.393.69-4.458.93-6.331.73-1.79-.19-2.421-.374-3.957-1.155-.698-.355-1.467-.645-1.71-.645z" enable-background="new" fill="#bd392a"/><path d="M2.871 33.095l3.06 2.688-1.563-3.756m6.172 6.266l-4.61-2.51-3.862-.345m34.424-2.817l-3.06 2.69 1.563-3.757m-6.568 6.668l5.006-2.912 3.86-.344" enable-background="new" fill="none" stroke="#502d16" stroke-width="1"/><path d="M18.368 28.69c-.588-.27-.768-.447-.768-.757 0-.561.387-.645 1.107-.239.769.434 1.717.438 2.414.01.298-.182.687-.332.864-.332.477-.002.582.463.197.863-.811.843-2.522 1.047-3.814.455zm-1.699-4.5c-.815-.44-.44-2 .48-2 .843 0 1.153 1.434.414 1.913-.464.301-.492.304-.894.087zm5.092-.202c-.405-.415-.376-1.127.063-1.533.434-.402.526-.409 1.043-.074.752.488.355 1.912-.533 1.912-.15 0-.408-.137-.573-.305zM10.906 19.64c-.591-.547.01-1.303 1.037-1.303.329.064.642.01 1.174-.037.012-.818-.023-.502.061-2.49.101-2.36.449-2.782 1.454-3.731.271-.256.707-.32 1.088-.392 1.39-.26 4.254-.114 4.254-.114 5.172-.075 5.424-.043 6.355 1.079.56.673.3.894.36 3.167l.063 2.325.826.193c.924.215 1.519.78.953 1.303-.312.29-17.313.29-17.625 0z" enable-background="new" fill="#324e5c"/><path transform="matrix(.66436 0 0 .65906 1.79 9.71)" d="M28.445 2.917c-2.376.016-4.848-.393-7.122.298-1.241.377-2.546.988-3.321 2.03-.436.585-1.085 1.61-.559 2.116.665.64 1.739-.64 2.645-.812.485-.093 1.003-.257 1.477-.117.552.163.945.663 1.37 1.05.58.528.815 1.75 1.596 1.723 1.164-.044 1.339-1.923 2.176-2.732.343-.332.673-.838 1.15-.854.543-.018.827.905 1.37.883.86-.035 1.19-1.543 2.052-1.57.822-.027 1.233 1.44 2.053 1.37.493-.04.722-.678 1.08-1.02.437-.42 1.453-.68 1.304-1.266-.3-1.183-2.317-.807-3.523-.991-1.236-.19-2.498-.116-3.748-.108z" enable-background="new" fill="url(#i)" filter="url(#j)" opacity=".97" stroke="url(#k)" stroke-width="1.511"/></g><path d="M18.462 26.094c-.278-.253-.315-.75-.315-.949 0-.56.74-1.226 1.582-1.209.755.015 1.553.625 1.553 1.33 0 1.161-1.67 1.877-2.82.828zm1.947-1.209c0-.253-.145-.38-.436-.38-.29 0-.436.127-.436.38s.145.38.436.38.436-.127.436-.38z" enable-background="new" fill="#bd392a"/><g stroke-width="1.493" paint-order="markers stroke fill"><path d="M58.87 31.063l-3.776-1.777-3.605 2.105.522-4.141-3.115-2.778 4.1-.783 1.679-3.822 2.011 3.658 4.154.416-2.857 3.043z" fill="#ff7f2a"/><path d="M55.116 45.71c-4.897-1.379-8.94-4.941-10.855-9.564-.167-.402-.282-.747-.257-.765.025-.019.377.27.783.642 4.84 4.44 12.15 4.98 17.608 1.3 2.536-1.71 4.366-4.04 5.489-6.983.281-.737.356-1.073.61-2.743.255-1.67.283-2.014.234-2.801-.267-4.29-2.198-8.001-5.542-10.655-.65-.517-.665-.535-.374-.49.167.025.734.169 1.26.32 5.925 1.697 10.389 6.55 11.615 12.626.38 1.887.413 3.632.106 5.654-.418 2.743-1.292 4.933-2.842 7.117-2.113 2.978-5.299 5.254-8.788 6.278-2.893.85-6.172.873-9.047.064z" fill="#ff7f2a"/><path transform="translate(43.125 16.452) scale(.51341)" d="M30.669 28.458l-7.357-3.46-7.02 4.1 1.016-8.067-6.068-5.41 7.986-1.526 3.27-7.443 3.919 7.124 8.089.81-5.564 5.928z" fill="url(#l)"/><path d="M54.49 60.194c-7.539-.934-14.31-5.284-18.175-11.678-.337-.557-.585-1.04-.552-1.072.033-.033.618.314 1.3.772 8.145 5.467 19.06 4.62 26.288-2.04 3.36-3.096 5.538-6.945 6.534-11.543.25-1.151.284-1.665.284-4.187 0-2.523-.034-3.036-.284-4.188-1.359-6.272-5.043-11.318-10.577-14.484-1.078-.616-1.102-.64-.662-.64.25 0 1.12.085 1.932.19 9.129 1.173 16.809 7.333 19.986 16.03.986 2.7 1.427 5.268 1.427 8.323 0 4.143-.799 7.573-2.595 11.145-2.45 4.871-6.642 8.948-11.562 11.245-4.081 1.905-8.917 2.676-13.343 2.128z" fill="url(#m)" transform="matrix(.662 .1008 -.1008 .662 25.11 .368)"/></g></svg>